<svg width="251" height="251" viewBox="0 0 251 251" fill="none" xmlns="http://www.w3.org/2000/svg">
<g filter="url(#filter0_ii_1_558)">
<rect width="251" height="251" rx="8" fill="white"/>
</g>
<path d="M41.9551 185.658V185.737H50.3398V185.619C50.3398 179.686 55.0464 175.177 61.2954 175.177C67.228 175.177 71.8159 179.211 71.8159 184.274C71.8159 188.743 69.9966 191.749 63.0356 198.987L42.4297 219.988V226H81.4663V218.525H54.374V218.327L68.6519 203.97C76.9971 195.427 80.5566 190.483 80.5566 183.839C80.5566 174.782 72.4487 167.86 61.5723 167.86C50.2212 167.86 41.9551 175.375 41.9551 185.658Z" fill="#000314"/>
<path d="M116.151 226H124.655V214.728H132.486V207.292H124.655V168.928H111.84C98.9863 187.517 92.5 197.761 87.5957 206.976V214.728H116.151V226ZM95.8618 207.213C100.41 198.947 106.185 190.048 116.072 175.771H116.23V207.411H95.8618V207.213Z" fill="#000314"/>
<path d="M150.204 191.868C156.769 191.868 161.95 186.687 161.95 180.121C161.95 173.556 156.769 168.375 150.204 168.375C143.638 168.375 138.497 173.556 138.497 180.121C138.497 186.687 143.638 191.868 150.204 191.868ZM150.243 186.172C147 186.172 144.192 183.404 144.192 180.121C144.192 176.759 147.04 174.07 150.243 174.07C153.605 174.07 156.294 176.759 156.294 180.121C156.294 183.404 153.605 186.172 150.243 186.172Z" fill="#000314"/>
<path d="M194.539 226.949C207.67 226.949 216.608 220.028 218.784 208.242H209.964C208.184 215.124 202.528 219.197 194.579 219.197C184.098 219.197 177.453 210.773 177.453 197.444C177.453 184.234 184.177 175.731 194.539 175.731C202.291 175.731 208.382 180.517 209.964 187.833H218.744C217.241 175.929 207.472 167.979 194.539 167.979C178.6 167.979 168.396 179.37 168.396 197.444C168.396 215.638 178.521 226.949 194.539 226.949Z" fill="#000314"/>
<path d="M77.3593 147.476C77.4854 147.478 77.6131 147.476 77.7393 147.476H168.937C169.064 147.476 169.191 147.479 169.317 147.476C180.684 147.274 189.836 137.993 189.836 126.577C189.836 117.571 184.139 109.895 176.152 106.957L176.157 106.438C176.157 90.2748 163.385 77.1337 147.507 76.8047C142.283 61.3359 127.651 50.1991 110.418 50.1991C88.802 50.1991 71.2794 67.7222 71.2794 89.338C71.2794 90.4775 71.3284 91.6055 71.4234 92.7202C59.1465 95.5789 50 106.59 50 119.737C50 134.93 62.2146 147.273 77.3593 147.476Z" fill="#4181FF"/>
<rect x="161.717" y="16" width="9.87973" height="13.6796" rx="4.93987" fill="#FFCD1D"/>
<rect x="217.814" y="61.4572" width="9.87973" height="14.4396" rx="4.93987" transform="rotate(90 217.814 61.4572)" fill="#FFCD1D"/>
<rect x="127.119" y="33.9863" width="9.87973" height="12.0621" rx="4.93987" transform="rotate(-45 127.119 33.9863)" fill="#FFCD1D"/>
<rect width="9.87973" height="12.0318" rx="4.93987" transform="matrix(-0.707107 -0.707107 -0.707107 0.707107 205.908 33.9893)" fill="#FFCD1D"/>
<rect width="9.87973" height="12.0318" rx="4.93987" transform="matrix(0.707107 -0.707107 -0.707107 -0.707107 199.104 105.212)" fill="#FFCD1D"/>
<path d="M183.961 87.8533C190.236 82.6962 194.238 74.8751 194.238 66.1192C194.238 50.5894 181.648 38 166.118 38C156.613 38 148.209 42.7166 143.119 49.9372C149.695 54.6642 154.744 61.3804 157.387 69.2049C169.453 69.4549 179.724 77.103 183.961 87.8533Z" fill="#FFCD1D"/>
<defs>
<filter id="filter0_ii_1_558" x="-1" y="-1" width="257" height="257" filterUnits="userSpaceOnUse" color-interpolation-filters="sRGB">
<feFlood flood-opacity="0" result="BackgroundImageFix"/>
<feBlend mode="normal" in="SourceGraphic" in2="BackgroundImageFix" result="shape"/>
<feColorMatrix in="SourceAlpha" type="matrix" values="0 0 0 0 0 0 0 0 0 0 0 0 0 0 0 0 0 0 127 0" result="hardAlpha"/>
<feMorphology radius="12" operator="dilate" in="SourceAlpha" result="effect1_innerShadow_1_558"/>
<feOffset dx="10" dy="10"/>
<feGaussianBlur stdDeviation="8.5"/>
<feComposite in2="hardAlpha" operator="arithmetic" k2="-1" k3="1"/>
<feColorMatrix type="matrix" values="0 0 0 0 0.251875 0 0 0 0 0.3744 0 0 0 0 0.4875 0 0 0 0.25 0"/>
<feBlend mode="normal" in2="shape" result="effect1_innerShadow_1_558"/>
<feColorMatrix in="SourceAlpha" type="matrix" values="0 0 0 0 0 0 0 0 0 0 0 0 0 0 0 0 0 0 127 0" result="hardAlpha"/>
<feOffset dx="-1" dy="-1"/>
<feGaussianBlur stdDeviation="0.5"/>
<feComposite in2="hardAlpha" operator="arithmetic" k2="-1" k3="1"/>
<feColorMatrix type="matrix" values="0 0 0 0 0.8875 0 0 0 0 0.872708 0 0 0 0 0.872708 0 0 0 0.25 0"/>
<feBlend mode="normal" in2="effect1_innerShadow_1_558" result="effect2_innerShadow_1_558"/>
</filter>
</defs>
</svg>
