<svg width="632" height="393" viewBox="0 0 632 393" fill="none" xmlns="http://www.w3.org/2000/svg">
<path d="M602.986 391.375H552.184C552.866 389.501 553.238 388.402 553.67 387.33C570.912 344.322 583.219 300.121 585.798 253.615C587.007 231.831 585.42 210.283 579.425 189.187C569.055 152.686 544.94 129.864 509.045 118.888C490.101 113.097 470.678 111.485 450.972 112.854C449.298 112.969 447.63 113.083 445.227 113.252C444.909 107.359 443.856 101.554 444.457 95.9179C445.503 86.0476 446.692 76.2716 444.619 66.4214C443.093 59.167 439.697 53.1935 432.906 49.5865C427.768 46.8627 423.306 47.6044 419.707 52.135C418.404 53.7734 417.318 53.9554 415.434 53.4363C402.985 49.9843 391.319 51.1979 382.09 61.0008C372.281 71.4173 368.824 83.9912 371.883 98.0754C372.787 102.235 374.948 105.788 378.965 107.878C379.518 108.168 380.146 108.687 380.342 109.24C382.887 116.461 387.91 121.902 393.155 127.188C393.54 127.572 393.824 128.057 394.148 128.496C389.199 131.988 384.21 135.238 379.532 138.878C364.861 150.286 353.547 164.579 344.021 180.416C342.725 182.567 340.936 184.576 338.957 186.127C330.208 192.983 322.917 201.195 316.2 209.96C315.092 211.409 313.486 212.92 315.902 214.794C316.294 215.097 316.078 216.675 315.686 217.423C306.356 235.033 298.154 253.116 292.571 272.29C291.963 274.367 290.68 274.4 289.02 274.4C274.397 274.38 259.767 274.394 245.144 274.4C243.848 274.4 242.552 274.4 240.695 274.4C250.693 313.518 260.523 351.961 270.447 390.775C268.976 390.883 268.01 391.011 267.045 391.011C255.46 391.024 243.868 390.95 232.283 391.078C229.846 391.105 228.638 390.242 227.76 388.065C225.397 382.219 225.377 376.475 227.976 370.731C228.516 369.531 229.07 368.337 229.914 366.503H216.735C217.917 365.094 218.525 364.386 219.119 363.672C222.595 359.505 223.514 354.806 221.434 349.81C219.308 344.693 215.27 341.848 209.687 341.605C205.576 341.423 201.451 341.571 196.874 341.571C200.87 326.537 204.691 312.163 208.641 297.303C205.738 297.128 203.328 296.979 200.276 296.797C201.633 293.359 202.734 290.129 204.165 287.055C206.892 281.183 203.902 275.621 203.388 269.93C203.361 269.627 201.255 268.973 200.783 269.337C195.638 273.315 189.427 276.234 187.638 283.509C186.734 287.176 184.978 290.669 183.331 294.101C182.764 295.274 181.339 296.036 180.306 296.986C179.442 295.88 178.166 294.896 177.788 293.642C175.763 286.981 173.981 280.246 172.077 273.551C170.497 268.009 166.109 265.231 161.235 266.633C156.502 267.995 154.247 272.506 155.705 277.974C157.353 284.136 159.121 290.271 161.012 297.054H148.691C152.694 312.102 156.516 326.469 160.526 341.531H134.385C135.29 343.392 135.81 344.437 136.31 345.495C139.293 351.786 139.388 358.096 136.127 364.279C135.634 365.216 134.149 366.2 133.116 366.2C126.838 366.193 122.125 368.708 119.668 374.506C117.197 380.338 118.784 385.489 123.246 389.851C123.381 389.986 123.401 390.249 123.732 391.166H54C56.7747 393.499 599.55 393.64 603 391.395L602.986 391.375ZM437.483 325.323C437.011 323.88 436.686 323.051 436.47 322.201C432.683 307.403 428.801 292.631 425.216 277.785C424.447 274.609 423.11 273.672 419.951 273.719C398.914 274.023 377.878 274.151 356.841 274.326C354.735 274.346 352.622 274.326 350.131 274.326C350.245 272.89 350.286 271.805 350.421 270.739C351.407 262.824 352.325 254.902 353.466 247.014C353.83 244.479 353.142 242.895 351.15 241.27C340.524 232.6 330.019 223.781 319.474 215.003C318.63 214.302 317.84 213.54 316.78 212.582C327.953 197.568 340.105 184.273 358.954 179.445C363.957 178.164 369.034 177.153 374.07 175.987C375.123 175.744 376.136 175.339 377.169 175.009C377.061 174.638 376.953 174.267 376.845 173.896C368.527 174.261 360.602 176.715 352.608 179.027C368.703 167.97 386.296 160.527 405.253 156.192C410.296 171.442 418.195 178.184 430.367 177.948C435.708 177.841 440.548 176.155 444.774 172.912C451.039 168.105 454.01 161.532 454.469 153.859C455.09 153.697 455.421 153.515 455.725 153.549C475.357 155.902 493.727 161.963 510.078 173.182C517.524 178.292 521.885 185.473 520.333 195.114C520.245 195.673 520.718 196.321 520.934 196.921C523.587 191.365 522.156 186.167 520.326 180.901C521.48 181.448 522.385 182.068 523.209 182.776C533.335 191.493 541.801 201.633 549.16 212.764C550.74 215.158 550.476 216.331 548.33 218.219C534.476 230.381 520.765 242.699 507.094 255.064C506.236 255.839 505.514 257.653 505.804 258.685C509.929 273.328 507.708 288.363 509.139 303.56C496.272 304.065 484.525 307.861 472.913 312.136C461.213 316.444 449.547 320.84 437.49 325.336L437.483 325.323ZM440.514 391.018H436.477C383.265 391.018 330.06 390.984 276.847 391.092C273.546 391.098 272.263 390.121 271.453 386.925C262.893 353.067 254.164 319.248 245.495 285.41C244.759 282.545 244.118 279.652 243.315 276.295C245.468 276.295 247.021 276.295 248.574 276.295C301.448 276.295 354.316 276.342 407.191 276.227C410.56 276.221 411.788 277.286 412.578 280.461C420.133 310.632 427.863 340.762 435.525 370.913C437.173 377.405 438.752 383.918 440.508 391.018H440.514ZM511.982 372.706C512.778 369.807 513.784 366.841 514.365 363.8C514.81 361.481 515.992 360.618 518.172 359.815C527.016 356.566 535.867 353.289 544.461 349.453C555.992 344.309 561.926 334.809 564.019 322.592C566.213 309.837 565.747 297.067 564.323 284.311C561.974 263.155 557.295 242.47 551.469 222.021C551.125 220.801 550.983 218.805 551.671 218.145C553.433 216.466 553.062 215.259 551.948 213.52C529.433 178.393 498.095 156.927 456.238 151.628C455.158 151.493 453.672 150.866 453.22 150.016C447.907 140.105 443.863 129.851 444.997 118.227C445.213 116.029 445.915 115.146 448.197 114.951C470.793 113.07 492.93 115.146 514.371 122.751C540.478 132.008 560.286 148.472 571.803 174.004C579.776 191.675 582.895 210.465 583.726 229.68C585.042 260.013 580.64 289.718 573.518 319.1C567.901 342.273 560.488 364.879 551.705 387.047C550.571 389.912 549.275 391.422 545.906 391.105C542.227 390.755 538.486 391.051 534.78 391.011C531.08 390.97 526.321 392.218 523.978 390.397C521.501 388.469 521.008 383.655 520.245 379.981C519.347 375.659 517.916 372.511 512.704 373.266C512.555 373.286 512.366 373.023 511.961 372.713L511.982 372.706ZM535.55 331.674C535.192 332.611 534.834 333.555 534.47 334.492C533.079 338.039 532.012 341.753 530.23 345.091C526.557 351.968 521.204 357.28 513.42 359.202C492.673 364.319 471.536 366.247 450.209 366.429C448.251 366.443 447.522 365.748 447.056 363.874C444.227 352.426 441.304 341.005 438.3 329.597C437.78 327.622 438.253 326.894 440.177 326.22C448.872 323.166 457.426 319.693 466.169 316.788C477.031 313.181 488.015 309.924 498.972 306.614C505.906 304.517 511.982 305.394 516.201 312.082C516.788 313.012 517.7 313.76 518.564 314.475C519.063 314.886 519.759 315.062 520.36 315.345C520.555 315.122 520.751 314.893 520.954 314.671C520.333 313.868 519.772 313.012 519.084 312.277C517.16 310.228 514.993 308.38 513.298 306.162C512.164 304.672 511.084 302.724 510.982 300.93C510.503 292.186 510.517 283.414 510.044 274.663C509.774 269.748 509.119 264.827 508.194 259.993C507.803 257.95 507.992 256.756 509.558 255.374C522.027 244.364 534.422 233.267 546.851 222.21C547.411 221.711 548.073 221.334 548.87 220.774C549.133 221.536 549.356 222.035 549.47 222.554C553.454 240.865 557.882 259.096 561.244 277.515C563.769 291.33 564.552 305.421 562.439 319.457C559.597 338.382 544.691 352.729 525.356 355.264C534.665 341.646 536.988 336.744 535.543 331.674H535.55ZM382.225 110.15C386.958 107.184 391.117 105.289 394.35 102.37C398.651 98.4799 402.364 93.9088 406.077 89.4186C409.385 85.4138 412.437 84.2339 417.5 85.697C421.821 86.9442 424.372 90.1063 426.519 93.8009C429.51 98.9316 433.757 101.689 439.954 100.516C440.474 100.415 441.027 100.503 442.411 100.503C442.675 106.085 443.539 111.58 443.06 116.946C442.02 128.509 445.004 139.047 450.405 148.944C452.653 153.07 452.977 156.987 451.039 160.756C449.088 164.552 446.698 168.523 443.478 171.193C436.585 176.924 428.43 177.578 420.349 173.802C412.943 170.343 408.663 164.303 407.799 156.839C409.75 154.999 411.728 153.886 412.524 152.207C413.625 149.908 414.914 148.89 417.446 148.465C423.367 147.468 427.897 142.782 428.835 137.031C429.004 135.986 428.376 134.813 428.113 133.7C427.113 134.166 425.905 134.415 425.162 135.143C422.759 137.476 420.045 138.42 416.575 137.928C419.019 134.921 420.027 132.399 419.599 130.363C418.877 131.685 418.607 132.433 418.134 133.013C414.624 137.274 411.903 138.089 407.42 134.995C401.723 131.064 396.126 126.844 391.164 122.05C387.545 118.558 385.02 113.946 382.232 110.15H382.225ZM294.198 274.164C300.004 253.851 308.503 235.188 318.367 216.83C319.562 217.76 320.453 218.414 321.297 219.115C330.627 226.869 339.896 234.683 349.307 242.335C351.136 243.825 351.643 245.315 351.332 247.533C350.239 255.307 349.152 263.087 348.348 270.901C348.071 273.564 347.295 274.474 344.507 274.447C329 274.313 313.492 274.38 297.985 274.367C296.912 274.367 295.831 274.252 294.204 274.164H294.198ZM205.799 299.09C205.691 300.04 205.704 300.809 205.515 301.53C202.167 314.104 198.764 326.658 195.463 339.239C194.943 341.221 193.761 341.538 192.006 341.531C183.135 341.484 174.257 341.45 165.387 341.558C163.118 341.585 162.308 340.661 161.768 338.598C158.635 326.55 155.361 314.542 152.148 302.515C151.871 301.47 151.702 300.391 151.432 299.09H205.805H205.799ZM178.612 390.775C177.471 390.869 176.519 391.011 175.567 391.011C161.397 391.024 147.219 391.051 133.049 391.011C125.67 390.991 120.6 386.359 120.539 379.725C120.478 372.969 125.616 368.263 133.177 368.25C147.24 368.223 161.295 368.236 175.358 368.25C176.377 368.25 177.397 368.378 178.767 368.465C171.868 377.163 171.868 381.255 178.612 390.775ZM413.712 141.096C413.125 143.591 412.504 146.51 411.741 149.389C411.093 151.837 409.642 153.171 406.928 153.765C388.234 157.844 370.688 164.842 354.458 175.036C352.23 176.432 350.043 177.888 347.835 179.317C347.626 179.122 347.41 178.933 347.201 178.737C350.164 174.47 353.013 170.114 356.112 165.941C366.32 152.194 378.539 140.577 393.304 131.779C394.458 131.091 396.463 130.491 397.402 131.024C402.924 134.172 408.244 137.665 413.706 141.09L413.712 141.096ZM226.45 368.182C225.249 372.699 222.645 374.956 218.639 374.951C209.984 374.951 201.329 374.931 192.674 374.965C188.901 374.978 186.821 376.61 186.727 379.468C186.625 382.448 188.772 384.208 192.728 384.222C201.606 384.255 210.491 384.235 219.368 384.235C224.925 384.235 225.465 384.741 226.119 390.802C225.242 390.869 224.364 390.997 223.487 390.997C211.686 391.011 199.878 391.045 188.077 390.997C180.691 390.97 175.594 386.345 175.527 379.752C175.452 373.023 180.637 368.25 188.124 368.229C199.702 368.189 211.281 368.189 222.859 368.169C223.952 368.169 225.039 368.169 226.45 368.169V368.182ZM137.707 343.412C150.973 343.412 163.773 343.378 176.566 343.425C183.831 343.452 188.901 348.246 188.874 354.88C188.84 361.548 183.79 366.22 176.506 366.234C164.711 366.261 152.91 366.241 141.116 366.227C140.144 366.227 139.179 366.119 138.186 366.059C139.341 359.552 139.341 359.519 145.444 359.505C154.659 359.478 163.868 359.471 173.083 359.505C175.884 359.519 177.964 358.561 178.592 355.662C179.26 352.588 176.863 350.208 173.049 350.194C162.936 350.154 152.823 350.228 142.716 350.14C141.677 350.134 140.178 349.655 139.699 348.893C138.787 347.423 138.456 345.596 137.707 343.405V343.412ZM185.498 343.567C194.247 343.567 202.531 343.183 210.754 343.695C216.688 344.066 220.773 349.669 220.449 355.487C220.111 361.481 215.365 366.112 209.167 366.214C202.207 366.328 195.247 366.254 188.293 366.234C187.476 366.234 186.652 366.079 185.647 365.978C192.62 357.53 192.634 352.163 185.505 343.567H185.498ZM512.927 361.528C512.022 364.852 511.171 367.488 510.618 370.185C510.105 372.72 508.842 373.549 506.223 373.529C488.488 373.421 470.746 373.482 453.011 373.468C449.055 373.468 448.562 372.854 449.007 368.472C470.192 368.007 491.31 366.443 512.92 361.528H512.927ZM184.377 296.979C186.963 290.635 189.258 285.019 191.662 279.133C195.733 280.778 199.392 282.262 203.24 283.819C201.572 287.965 200.209 291.626 198.602 295.166C198.237 295.975 197.029 296.858 196.165 296.899C192.499 297.087 188.82 296.979 184.377 296.979ZM172.563 282.7C173.913 287.561 175.155 292.017 176.533 296.966C172.151 296.966 168.357 297.04 164.57 296.899C163.901 296.872 162.889 296.062 162.679 295.409C161.727 292.462 161.012 289.442 160.161 286.273C161.322 285.895 162.153 285.592 163.003 285.356C166.021 284.507 169.046 283.677 172.576 282.7H172.563ZM171.213 276.747C167.79 277.738 165.029 278.553 162.261 279.335C158.305 280.461 157.974 280.246 157.231 276.221C156.657 273.119 157.994 270.261 160.749 268.973C163.442 267.712 166.156 267.793 168.006 270.288C169.336 272.081 170.045 274.326 171.213 276.747ZM193.647 277.765C196.003 273.928 198.933 273.982 201.532 275.978C202.7 276.875 202.761 279.201 203.321 280.879C203.017 281.028 202.72 281.176 202.416 281.324C199.547 280.158 196.678 278.998 193.64 277.765H193.647Z" fill="#4E4B66"/>
<path d="M264.354 123C266.876 122.562 268.194 120.981 267.977 118.557C267.773 116.269 266.25 114.868 263.838 115.01C261.303 115.165 259.855 116.713 260.011 119.21C260.168 121.714 261.84 122.906 264.348 123H264.354Z" fill="#FFB33F" fill-opacity="0.7"/>
<path d="M228.495 217C226.093 217.615 224.674 219.055 225.064 221.603C225.421 223.915 226.981 225.22 229.335 224.97C231.811 224.706 233.237 223.077 232.968 220.589C232.699 218.095 230.95 216.98 228.495 217.007V217Z" fill="#FFB33F" fill-opacity="0.7"/>
<path d="M597.796 289C600.512 288.69 602.047 287.383 601.999 284.862C601.958 282.53 600.525 281.034 598.158 281.001C595.695 280.967 594.085 282.288 594.003 284.882C593.921 287.538 595.654 288.562 597.789 289H597.796Z" fill="#FFB33F" fill-opacity="0.7"/>
<path d="M132.038 310C134.569 309.75 136.027 308.365 136 305.859C135.979 303.488 134.501 302.063 132.14 302.002C129.615 301.941 128.028 303.333 128 305.9C127.973 308.446 129.506 309.743 132.044 310H132.038Z" fill="#4E4B66"/>
<path d="M467.546 3.69768C467.845 6.04847 469.116 7.47016 471.42 7.33922C473.675 7.20827 475.033 5.81152 474.883 3.42332C474.746 1.20348 473.364 -0.00621153 471.227 2.39862e-05C468.891 0.012495 467.714 1.45289 467.54 3.69768H467.546Z" fill="#7CD85D"/>
<path d="M624.001 201.51C624.1 203.898 625.346 205.295 627.638 205.351C629.774 205.401 631.182 204.147 631.276 201.946C631.375 199.658 630.173 198.105 627.844 198.005C625.558 197.906 624.225 199.215 624.007 201.51H624.001Z" fill="#4E4B66"/>
<path d="M11 307.938C8.14574 304.831 4.56161 302.798 0.814573 301C0.540876 301.397 0.273696 301.801 0 302.199C3.42772 304.466 6.84894 306.733 10.2767 309C10.5178 308.648 10.7589 308.29 11 307.938Z" fill="#7CD85D"/>
<path d="M314 144.31C317.444 146.54 320.888 148.77 324.332 151C324.554 150.63 324.777 150.261 325 149.891C321.957 146.961 318.539 144.64 314.707 143C314.471 143.434 314.236 143.875 314 144.31Z" fill="#4E4B66"/>
<path d="M572.149 47.6918C574.699 50.9062 577.249 54.1207 579.798 57.3352C580.128 57.0564 580.457 56.7775 580.786 56.4986C578.84 52.749 576.344 49.4567 573.238 46.677C572.875 47.0132 572.511 47.3556 572.149 47.6918Z" fill="#4E4B66"/>
<path d="M383.008 12.4907C382.213 16.4053 381.418 20.3199 380.623 24.2344C381.033 24.3106 381.443 24.3867 381.853 24.4629C383.417 20.6733 384.303 16.7507 384.432 12.6848C383.959 12.6194 383.481 12.5562 383.008 12.4907Z" fill="#4E4B66"/>
<path d="M539.076 106C541.72 104.148 544.356 102.295 547 100.443C546.655 99.9619 546.303 99.481 545.957 99C543.307 100.833 540.65 102.672 538 104.505C538.359 105.006 538.717 105.5 539.076 106Z" fill="#7CD85D"/>
<path d="M113.034 241C115.691 239.138 118.342 237.276 121 235.414C120.671 234.941 120.342 234.474 120.007 234C117.336 235.829 114.671 237.658 112 239.48C112.342 239.987 112.685 240.493 113.027 241H113.034Z" fill="#4E4B66"/>
<path d="M217.739 166.762C220.911 167.626 224.079 168.483 227.251 169.347C227.419 168.783 227.582 168.223 227.745 167.654C224.591 166.759 221.441 165.869 218.292 164.97C218.107 165.566 217.921 166.162 217.735 166.757L217.739 166.762Z" fill="#4E4B66"/>
<path d="M576 372.521L584.058 378C584.372 377.548 584.686 377.102 585 376.65C582.341 374.769 579.682 372.888 577.022 371C576.682 371.505 576.341 372.009 576 372.521Z" fill="#4E4B66"/>
<path d="M535.788 332.162C537.238 337.244 534.908 342.157 525.564 355.808C544.969 353.267 559.929 338.886 562.781 319.917C564.895 305.84 564.109 291.722 561.582 277.875C558.208 259.406 553.763 241.132 549.766 222.784C549.651 222.264 549.427 221.764 549.163 221C548.363 221.561 547.699 221.939 547.137 222.439C534.664 233.523 522.224 244.646 509.71 255.682C508.138 257.067 507.949 258.264 508.342 260.311C509.27 265.157 509.934 270.09 510.198 275.017C510.672 283.782 510.659 292.574 511.14 301.346C511.242 303.15 512.319 305.103 513.464 306.59C515.164 308.813 517.339 310.665 519.27 312.719C519.961 313.456 520.524 314.314 521.147 315.118C520.95 315.341 520.754 315.571 520.551 315.794C519.941 315.51 519.243 315.335 518.749 314.923C517.881 314.206 516.967 313.456 516.377 312.523C512.143 305.82 506.045 304.941 499.087 307.043C488.084 310.361 477.067 313.618 466.166 317.241C457.392 320.153 448.807 323.634 440.081 326.695C438.15 327.371 437.676 328.101 438.197 330.081C441.212 341.508 444.146 352.963 446.985 364.438C447.446 366.317 448.184 367.02 450.149 367C471.552 366.817 492.765 364.884 513.586 359.755C521.398 357.829 526.77 352.504 530.456 345.611C532.245 342.265 533.315 338.542 534.711 334.987C535.077 334.048 535.436 333.108 535.795 332.162H535.788Z" fill="#1E1A2D"/>
<path d="M382.007 110.037C384.785 113.83 387.313 118.444 390.927 121.927C395.89 126.717 401.473 130.934 407.164 134.861C411.641 137.953 414.365 137.131 417.865 132.881C418.337 132.301 418.606 131.554 419.328 130.233C419.755 132.272 418.748 134.792 416.307 137.792C419.773 138.283 422.483 137.34 424.884 135.009C425.632 134.289 426.839 134.033 427.83 133.568C428.093 134.679 428.72 135.851 428.552 136.896C427.615 142.649 423.097 147.324 417.177 148.321C414.648 148.745 413.36 149.762 412.261 152.059C411.459 153.737 409.49 154.848 407.541 156.687C408.405 164.145 412.679 170.174 420.076 173.636C428.147 177.409 436.293 176.755 443.177 171.029C446.386 168.355 448.773 164.394 450.729 160.601C452.664 156.836 452.34 152.922 450.095 148.799C444.707 138.91 441.727 128.381 442.759 116.828C443.238 111.465 442.374 105.982 442.112 100.397C440.723 100.397 440.17 100.31 439.657 100.411C433.467 101.583 429.226 98.8279 426.239 93.7014C424.095 90.0166 421.546 86.8505 417.231 85.6042C412.174 84.1424 409.126 85.3145 405.822 89.3227C402.114 93.8092 398.405 98.3833 394.11 102.263C390.88 105.18 386.727 107.073 382 110.037H382.007ZM400.172 111.937C400.482 111.91 400.792 111.883 401.095 111.856C403.017 114.099 405.074 116.255 406.8 118.633C407.67 119.832 408.405 121.449 408.405 122.884C408.425 128.63 408.809 129.027 414.075 127.411C414.197 127.37 414.412 127.626 414.709 127.828C414.095 130.186 412.039 130.786 410.36 130.125C408.755 129.499 406.341 127.505 406.496 126.427C407.157 121.84 404.797 119.118 401.938 116.262C400.92 115.245 400.738 113.399 400.172 111.93V111.937ZM397.549 114.982C393.908 114.564 391.635 116.37 389.909 119.987C388.709 116.659 390.3 115.319 391.838 114.288C393.598 113.116 395.62 112.611 397.549 114.982ZM414.763 106.588C411.169 106.251 408.843 107.969 406.705 110.556C407.076 108.67 407.751 106.986 408.991 106.036C410.67 104.749 412.774 104.264 414.763 106.588ZM410.98 113.433C412.383 112.537 413.313 111.479 414.048 111.6C414.817 111.728 415.956 113.028 415.909 113.749C415.862 114.47 414.574 115.615 413.792 115.642C413.044 115.669 412.255 114.497 410.98 113.433ZM396.632 118.99C397.63 120.358 398.709 121.193 398.668 121.968C398.628 122.736 397.448 123.436 396.773 124.164C396.045 123.477 394.811 122.843 394.73 122.082C394.643 121.314 395.695 120.418 396.638 118.99H396.632Z" fill="#1E1A2D"/>
<path d="M294.007 274.714C295.627 274.809 296.704 274.918 297.773 274.918C313.221 274.932 328.668 274.857 344.116 274.999C346.893 275.027 347.667 274.11 347.942 271.43C348.743 263.571 349.826 255.739 350.915 247.907C351.224 245.667 350.72 244.167 348.897 242.674C339.529 234.971 330.289 227.105 320.995 219.301C320.147 218.595 319.266 217.937 318.076 217C308.251 235.48 299.79 254.266 294 274.714H294.007Z" fill="#1E1A2D"/>
<path d="M491 284C475.687 288.349 460.651 293.544 445 298.908C447.91 300.232 488.758 286.91 491 284Z" fill="#4E4B66"/>
<path d="M329.015 322.072C327.228 323.587 326.085 325.867 326.005 328.646L326.007 329.033C326.029 332.395 327.594 335.769 330.066 338.377C332.538 340.984 335.842 342.744 339.235 342.974L339.235 342.974C342.424 343.19 345.063 342.062 346.781 340.145C348.501 338.227 349.366 335.444 348.853 332.225L348.853 332.225C347.893 326.198 342.574 320.96 336.563 320.114L336.563 320.114C333.53 319.686 330.887 320.486 329.015 322.072Z" stroke="#7357FF" stroke-width="2"/>
<path d="M386 375H289C291.119 376.166 381.788 376.49 386 375Z" fill="#4E4B66"/>
<path d="M400 112.072C400.584 113.499 400.772 115.293 401.823 116.282C404.78 119.064 407.208 121.703 406.526 126.162C406.366 127.209 408.864 129.14 410.513 129.756C412.252 130.398 414.367 129.815 415 127.523C414.694 127.327 414.471 127.078 414.346 127.117C408.912 128.689 408.516 128.302 408.495 122.718C408.495 121.323 407.73 119.752 406.839 118.586C405.051 116.269 402.936 114.18 400.953 112C400.633 112.026 400.313 112.052 400 112.079V112.072Z" fill="#4E4B66"/>
<path d="M398 114.756C396.085 112.272 394.077 112.802 392.33 114.03C390.804 115.102 389.231 116.507 390.415 120C392.129 116.21 394.378 114.326 398 114.756Z" fill="#4E4B66"/>
<path d="M415 106.456C413.025 104.38 410.936 104.814 409.269 105.963C408.038 106.811 407.368 108.315 407 110C409.122 107.69 411.432 106.155 415 106.456Z" fill="#4E4B66"/>
<path d="M411 112.818C412.299 113.876 413.099 115.026 413.851 115C414.638 114.973 415.951 113.842 415.999 113.131C416.046 112.419 414.898 111.136 414.111 111.009C413.366 110.89 412.422 111.934 411 112.818Z" fill="#4E4B66"/>
<path d="M396.94 119C395.983 120.38 394.916 121.246 395.005 121.988C395.087 122.724 396.339 123.336 397.077 124C397.768 123.297 398.958 122.62 398.999 121.878C399.04 121.129 397.946 120.328 396.934 119H396.94Z" fill="#4E4B66"/>
<path d="M170.01 319.464L170.007 319.103C169.958 314.102 174.075 309.976 179.076 310L170.01 319.464ZM170.01 319.464C170.239 324.213 174.154 327.988 178.941 328M170.01 319.464L179.076 310C183.948 310.025 187.951 314.017 187.999 318.925L187.999 318.926C188.054 323.963 184.015 328.012 178.941 328M178.941 328L178.939 329M178.941 328L178.939 329M178.939 329C173.82 328.987 169.599 325.105 169.058 320.112L188.999 318.915C189.06 324.515 184.564 329.014 178.939 329Z" stroke="#7CD85D" stroke-width="2"/>
<path d="M213 361H195C196.967 362.248 210.146 362.416 213 361Z" fill="#4E4B66"/>
</svg>
