<?xml version="1.0" encoding="UTF-8"?>
<svg id="_Слой_1" data-name="Слой 1" xmlns="http://www.w3.org/2000/svg" width="197.8375396729" height="186.9269135793" viewBox="0 0 197.8375396729 186.9269135793">
  <defs>
    <style>
      .cls-1, .cls-2, .cls-3, .cls-4 {
        fill: none;
        stroke-linecap: round;
        stroke-width: 3px;
      }

      .cls-1, .cls-2, .cls-4 {
        stroke-miterlimit: 10;
      }

      .cls-1, .cls-3 {
        stroke: #f90;
      }

      .cls-5 {
        fill: #4181ff;
      }

      .cls-2 {
        stroke: #7cd85d;
      }

      .cls-3 {
        stroke-linejoin: round;
      }

      .cls-4 {
        stroke: #ffcd1d;
      }
    </style>
  </defs>
  <path class="cls-4" d="m172.6155395508,25.5139096578h-8.8860015869c-.5520019531,0-1-.4477005005-1-1v-11.7084999084c0-.5522994995.4479980469-1,1-1h8.8860015869c.5530090332,0,1,.4477005005,1,1v11.7084999084c0,.5522994995-.4469909668,1-1,1Z"/>
  <path class="cls-4" d="m136.7835388184,12.7568095525h17.637008667"/>
  <path class="cls-4" d="m136.7835388184,25.5139096578h17.637008667"/>
  <path class="cls-4" d="m149.0525360107,36.9089082082h24.56300354"/>
  <path class="cls-2" d="m192.0915374756,137.4999116262h-73.783996582c-2.3450012207,0-4.2460021973,2.1340026855-4.2460021973,4.7649993896v38.3970031738c0,2.6319885254,1.9010009766,4.7649993896,4.2460021973,4.7649993896h73.783996582c2.3450012207,0,4.2460021973-2.1330108643,4.2460021973-4.7649993896v-38.3970031738c0-2.6309967041-1.9010009766-4.7649993896-4.2460021973-4.7649993896Z"/>
  <path class="cls-2" d="m188.7557131449,146.0879090627h-67.1123402913c-.2799142476,0-.5068295797.2269153321-.5068295797.5068295797v12.8713353475c0,.2799142476.2269153321.5068295797.5068295797.5068295797h67.1123402913c.2799142476,0,.5068295797-.2269153321.5068295797-.5068295797v-12.8713353475c0-.2799142476-.2269153321-.5068295797-.5068295797-.5068295797Z"/>
  <path class="cls-2" d="m139.0805358887,175.6029084524h50.1820068359"/>
  <path class="cls-2" d="m139.0805358887,167.5339082082h50.1820068359"/>
  <path class="cls-2" d="m129.7118695577,166.2969086965h-8.2626597087c-.1726809812,0-.3126665751.1399855939-.3126665751.3126665751v9.9176661174c0,.1726809812.1399855939.3126665751.3126665751.3126665751h8.2626597087c.1726809812,0,.3126665751-.1399855939.3126665751-.3126665751v-9.9176661174c0-.1726809812-.1399855939-.3126665751-.3126665751-.3126665751Z"/>
  <path class="cls-5" d="m86.2399291992,129.9371827443v19.1103515625c0,4.6747436523-3.7896118164,8.4643554688-8.4643554688,8.4643554688H14.5518188477c-4.6747436523,0-8.4643554688-3.7896118164-8.4643554688-8.4643554688V39.3713868459c0-4.6747436523,3.7896118164-8.4643554688,8.4643554688-8.4643554688h63.2237548828c4.6747436523,0,8.4643554688,3.7896118164,8.4643554688,8.4643554688v19.1098022461h6.0875244141v-31.3571166992c0-4.6748046875-3.7896728516-8.4644165039-8.4644165039-8.4644165039H8.4643554688c-4.6747436523,0-8.4643554688,3.7896118164-8.4643554688,8.4644165039v151.2945556641c0,4.6747436523,3.7896118164,8.4643554688,8.4643554688,8.4643554688h75.3986816406c4.6747436523,0,8.4644165039-3.7896118164,8.4644165039-8.4643554688v-48.4814453125h-6.0875244141Zm-40.0762329102,49.7479248047c-3.8056030273,0-6.8906860352-3.0850830078-6.8906860352-6.8906860352,0-3.8056640625,3.0850830078-6.8907470703,6.8906860352-6.8907470703s6.8906860352,3.0850830078,6.8906860352,6.8907470703c0,3.8056030273-3.0850830078,6.8906860352-6.8906860352,6.8906860352Z"/>
  <path class="cls-3" d="m55.3174438477,124.1839097341h100.3031005859c3.8849945068,0,6.9270019531-3.266998291,6.9270019531-7.1620025635v-45.6251983643c0-3.8947982788-3.0420074463-7.161895752-6.9270019531-7.161895752H55.3174438477c-3.8849029541,0-6.9268035889,3.2670974731-6.9268035889,7.161895752v45.6251983643c0,3.8950042725,3.0419006348,7.1620025635,6.9268035889,7.1620025635Z"/>
  <path class="cls-1" d="m115.4325408936,112.4699128469h35.6490020752c.5520019531,0,1-.4480056763,1-1v-35.6492004395c0-.5522994995-.4479980469-1-1-1h-35.6490020752c-.5520019531,0-1,.4477005005-1,1v35.6492004395c0,.5519943237.4479980469,1,1,1Z"/>
  <path class="cls-1" d="m100.4085388184,107.6719086965h-40.8536987305"/>
  <path class="cls-1" d="m100.4085388184,79.3734086355h-40.8536987305"/>
  <path class="cls-1" d="m100.4085388184,93.5226090749h-40.8536987305"/>
  <rect class="cls-4" x="128.4085394541" y="1.5" width="53.5820000966" height="48.0449117025" rx="4.1549987793" ry="4.1549987793"/>
</svg>