<svg xmlns="http://www.w3.org/2000/svg" viewBox="0 0 74.82 74.82"><defs><style>.cls-1{isolation:isolate;}.cls-2{fill:#fcf2d6;stroke:#f6da8b;stroke-miterlimit:10;stroke-width:0.68px;}.cls-3,.cls-7{fill:#3b67b1;}.cls-4{fill:#fff;}.cls-5,.cls-9{fill:#8bc8fd;}.cls-10,.cls-6{fill:#f1c954;}.cls-10,.cls-7,.cls-8,.cls-9{mix-blend-mode:multiply;opacity:0.4;}.cls-8{fill:#d0e9fe;}</style></defs><g class="cls-1"><g id="Шар_2" data-name="Шар 2"><g id="OBJECTS"><rect class="cls-2" x="0.34" y="0.34" width="74.14" height="74.14" rx="3.36"/><path d="M21,38.32l.05,0A7,7,0,0,1,23,34l-.52-.51a8.45,8.45,0,0,0-2.27,4.73,1.51,1.51,0,0,1,.3,0,1.09,1.09,0,0,1,.26,0,.7.7,0,0,1,.19.06h0ZM64.41,49.85c.18.18,0,.53-.26.44A69.66,69.66,0,0,1,56.49,47a27.12,27.12,0,0,1-2.43,3.29A34.28,34.28,0,0,1,42.3,58.84c.68,2.84,1.23,5.71,1.7,8.6a.33.33,0,0,1-.59.25c-.82-1.31-1.62-2.63-2.38-4-.38-.65-.73-1.31-1.08-2s-.6-1.07-.83-1.63a40.61,40.61,0,0,1-6.58,1.72,30.5,30.5,0,0,1-13.29-.64c-.25.64-.59,1.26-.84,1.91s-.52,1.41-.77,2.12A33.58,33.58,0,0,1,16,69.33c-.14.29-.5.06-.47-.19q.33-2.36.72-4.71c.12-.75.25-1.5.4-2.25a7.11,7.11,0,0,1,.4-1.73,20.84,20.84,0,0,1-6.62-4.13.26.26,0,0,1-.08-.19.25.25,0,0,1,0-.19q2.1-8.5,4.09-17c.66-2.84,1.32-5.68,2-8.52.32-1.42.63-2.85,1-4.27a38.59,38.59,0,0,1,1.05-4.24,37.11,37.11,0,0,1-1.58-4.59c-.53-1.67-1.08-3.33-1.59-5a2.52,2.52,0,0,1,.51-2.9A13.88,13.88,0,0,1,18.6,7.26a14.17,14.17,0,0,1,6.81-1.89,4.57,4.57,0,0,1,2.85.5c.84.65,1,1.92,1.3,2.86A48.86,48.86,0,0,0,33,17.08c2.27,1.54,4.34,3.42,6.47,5.14s4.47,3.57,6.7,5.37c4.51,3.6,9,7.19,13.5,10.86a.25.25,0,0,1,.06.34.38.38,0,0,1,0,.15,22,22,0,0,1-1.82,5.6h0c1.15.76,2.25,1.65,3.32,2.52S63.37,48.89,64.41,49.85ZM63,49.3c-.67-.61-1.36-1.2-2.06-1.77-1.07-.88-2.2-1.67-3.3-2.51-.29.56-.6,1.11-.93,1.66C58.81,47.56,60.88,48.48,63,49.3ZM59,38.74h0c-2.14-1.64-4.27-3.31-6.39-5A23.42,23.42,0,0,1,49.45,40a33.1,33.1,0,0,1-9,9,31.69,31.69,0,0,1-5.65,3,19.89,19.89,0,0,1-6,1.7c.07.29.13.58.2.86.54,2.26,1.19,4.49,1.91,6.7A38.64,38.64,0,0,0,45.7,56.17C52.21,52.33,57.52,46.32,59,38.74Zm-10.42,1.6a46.79,46.79,0,0,0,3.73-6.85c-2.15-1.71-4.29-3.44-6.43-5.16s-4.44-3.61-6.64-5.43-4.4-3.42-6.37-5.33l-.13,0A12.89,12.89,0,0,1,26.46,22a14.36,14.36,0,0,1-3.95.79h-.05c.26,1.39.29,2.85.51,4.25.11.74.25,1.47.4,2.2a15.88,15.88,0,0,1,.49,2.23,8.2,8.2,0,0,1,1.47-.68A8.63,8.63,0,0,1,35,34a9,9,0,0,1-.19,10.49A9.33,9.33,0,0,1,27.68,48c.28,1.09.4,2.23.62,3.33.14.74.3,1.47.47,2.21,1.2-.42,2.47-.67,3.67-1.09a35.1,35.1,0,0,0,3.84-1.63A33,33,0,0,0,48.55,40.34Zm-7,23.07c.5.86,1,1.71,1.55,2.56-.38-2.31-.84-4.6-1.34-6.89-.74.32-1.49.62-2.25.89.33.49.6,1,.89,1.51Zm-5.7-23.64a7.85,7.85,0,0,0-2-6.05l-.22.19a2.68,2.68,0,0,1-.26.23c-.13.12-.27.23-.4.33a7.74,7.74,0,0,1,1.78,5.23H35l.32,0Zm0,.44-.55-.07-.36,0-.13,0a7.4,7.4,0,0,1-.39,1.75,7.69,7.69,0,0,1-1.89,2.87c.11.13.21.28.31.42l.16.23,0,0A7.74,7.74,0,0,0,34.89,43,8.7,8.7,0,0,0,35.81,40.21Zm-1.8.52a6.89,6.89,0,0,0-2.74-7,6.56,6.56,0,0,0-7.21.06,6.7,6.7,0,0,0-2.32,7.28,7.49,7.49,0,0,0,2.06,3.61,5.61,5.61,0,0,0,3.49,1.59l.07-.06a.15.15,0,0,1,.17.08l.24,0A7.55,7.55,0,0,0,34,40.73Zm-.56-7.07.22-.19A8.16,8.16,0,0,0,28,31.1c0,.15,0,.3,0,.45a5.06,5.06,0,0,1,0,.55,6.78,6.78,0,0,1,4.39,1.73c.15.14.29.29.43.44l.12-.14a2.73,2.73,0,0,1,.25-.23Zm-.7,11.88,0-.06-.17-.22c-.09-.12-.19-.25-.28-.39a8,8,0,0,1-4.6,2,1.49,1.49,0,0,1,0,.21,1.06,1.06,0,0,1,0,.31A9.07,9.07,0,0,0,32.75,45.54Zm-1.66-27.2c.4-.39.78-.81,1.18-1.23A50.35,50.35,0,0,1,29,8.89a8.42,8.42,0,0,0-.74-2.15,4.05,4.05,0,0,1-1,1.28,23.7,23.7,0,0,1,1,2.41c.34.89.67,1.79,1,2.68s.66,1.79,1,2.69c.16.46.33.92.5,1.39A12.19,12.19,0,0,1,31.09,18.34Zm-.36.35a7.9,7.9,0,0,1-.46-1.17c-.16-.47-.33-.93-.49-1.39-.33-.9-.65-1.8-1-2.7l-1-2.69c-.28-.83-.63-1.67-.83-2.53-.34.29-.7.54-1,.77s-.44.25-.65.38a45.63,45.63,0,0,1,2.1,5.18c.37,1,.73,1.93,1.09,2.9.17.47.35.93.52,1.4a6,6,0,0,1,.32.93l.22-.14A12,12,0,0,0,30.73,18.69Zm-.35,42.72c-.74-2.22-1.38-4.47-1.9-6.75-.26-1.13-.48-2.27-.69-3.42a24.64,24.64,0,0,1-.45-3.2,7.15,7.15,0,0,1-1.84-.24c-3.55-.71-6-4.65-6.11-8.1a9.16,9.16,0,0,1,4.2-8.05.13.13,0,0,1-.07-.06A8,8,0,0,1,23,29.53a.35.35,0,0,1-.12,0,10.68,10.68,0,0,1-2.88,0c-.49-.07-1-.17-1.47-.28a6.05,6.05,0,0,1-1.1-.33c-.12.48-.23,1-.34,1.44-.65,2.84-1.3,5.69-2,8.53q-2,8.58-4.13,17.13a26.1,26.1,0,0,0,11.36,5.1A28.89,28.89,0,0,0,30.38,61.41ZM29,20a6.56,6.56,0,0,1-.4-1c-.17-.47-.33-.94-.51-1.41-.34-.94-.68-1.87-1-2.8-.65-1.73-1.45-3.47-1.95-5.27a16.31,16.31,0,0,1-1.51.75c.35.74.58,1.55.86,2.31s.67,1.8,1,2.69c.74,1.84,1.58,3.62,2.39,5.42A11.42,11.42,0,0,0,29,20Zm-1.36,12.1a5.33,5.33,0,0,1,0-.56v-.44a7.39,7.39,0,0,0-3.15.86,7.84,7.84,0,0,0-1.73,1.26l.15.13.39.38h0A5.64,5.64,0,0,1,24.41,33,6.94,6.94,0,0,1,27.64,32.11Zm-.3,15.18a2.83,2.83,0,0,0,0-.29c0-.1,0-.21-.05-.31a5.41,5.41,0,0,1-4-1.79,7.54,7.54,0,0,1-.85-1,3.86,3.86,0,0,1-.38.3l-.24.15-.11.06a8.44,8.44,0,0,0,3.7,2.86,11.42,11.42,0,0,0,1.93.11S27.34,47.31,27.34,47.29ZM26.8,7.44c.36-.35.64-.79,1-1.14A3.38,3.38,0,0,0,26.09,6a13.71,13.71,0,0,0-4.18.52,14.16,14.16,0,0,0-3.83,1.76,12.58,12.58,0,0,0-1.63,1.28,2.67,2.67,0,0,0-.84,1.13,1.07,1.07,0,0,0,0,.25c.49.06,1,.17,1.49.19A11.32,11.32,0,0,0,19,11a17.39,17.39,0,0,0,3.51-1,16,16,0,0,0,3-1.46A8.35,8.35,0,0,0,26.8,7.44Zm-.62,14c.45-.16.89-.35,1.32-.55-.88-1.68-1.62-3.44-2.33-5.2-.35-.89-.7-1.78-1-2.68a16.94,16.94,0,0,1-.82-2.62l-.45.19q-.45.18-.9.33.89,2.67,1.86,5.31c.35.91.7,1.83,1.07,2.73A26.8,26.8,0,0,1,26,21.45Zm-.6.18a17.59,17.59,0,0,1-1.06-2.45c-.37-.91-.73-1.82-1.07-2.74-.67-1.78-1.25-3.59-1.78-5.42a15.91,15.91,0,0,1-1.8.48c.32.76.54,1.58.81,2.35.33.94.66,1.89,1,2.83.65,1.8,1.33,3.59,2.06,5.37A16.86,16.86,0,0,0,25.58,21.57Zm-3.07.56.78-.08c-.69-1.73-1.36-3.46-2-5.22-.34-.9-.66-1.81-1-2.72a23.81,23.81,0,0,1-.83-2.6l-.52.08a10.37,10.37,0,0,1-1.14.08,12.54,12.54,0,0,1,.64,2.09l.81,2.83c.28.94.56,1.87.85,2.81s.6,1.82.82,2.75C21.46,22.16,22,22.16,22.51,22.13Zm.28,6.9h.1c-.13-.68-.26-1.36-.34-2a17.35,17.35,0,0,1-.27-4.19,8.65,8.65,0,0,1-3.51-.44,53,53,0,0,1-1.29,6.28c.38.06.76.2,1.14.27a8.9,8.9,0,0,0,1.36.19A13.88,13.88,0,0,0,22.79,29Zm-.68,14.75.18-.16A8.14,8.14,0,0,1,21,38.71h-.08l-.07,0a.14.14,0,0,0,.09,0h-.09c-.07,0-.13,0-.19,0l-.11,0-.05,0h0l-.35,0a8.83,8.83,0,0,0,.16,2.66,8.24,8.24,0,0,0,1.27,2.93l.12-.09.2-.15.08-.07,0,0h0ZM20.42,22.12c-.31-.84-.53-1.73-.78-2.58s-.53-1.82-.8-2.72l-.78-2.72-.42-1.47a5.42,5.42,0,0,1-.21-1,5.14,5.14,0,0,1-1.82-.38,7,7,0,0,0,.31,1q.8,2.42,1.57,4.83A31.51,31.51,0,0,1,18.93,22C19.43,22,19.92,22.07,20.42,22.12ZM18,62.81a10.8,10.8,0,0,1,.8-1.77c-.45-.14-.89-.29-1.33-.46a9.34,9.34,0,0,1-.27,1.73l-.39,2.26c-.15.89-.28,1.8-.42,2.7.31-.79.59-1.6.87-2.41S17.69,63.49,18,62.81Z"/><path class="cls-3" d="M60.94,47.53c.7.57,1.39,1.16,2.06,1.77-2.12-.82-4.19-1.74-6.29-2.62.33-.55.64-1.1.93-1.66C58.74,45.86,59.87,46.65,60.94,47.53Z"/><path class="cls-4" d="M59,38.73h0c-1.45,7.58-6.76,13.59-13.27,17.43a38.64,38.64,0,0,1-14.77,5.18c-.72-2.21-1.37-4.44-1.91-6.7-.07-.28-.13-.57-.2-.86a19.89,19.89,0,0,0,6-1.7,31.69,31.69,0,0,0,5.65-3,33.1,33.1,0,0,0,9-9,23.42,23.42,0,0,0,3.14-6.26C54.71,35.42,56.84,37.09,59,38.73Z"/><path d="M50.41,35.1a.49.49,0,0,0,0,.12.43.43,0,0,1-.06.22l-.07.09a.37.37,0,0,1-.19.11l-.12,0a.33.33,0,0,1-.17,0,.39.39,0,0,1-.23-.23.53.53,0,0,1,0-.17.47.47,0,0,1,0-.17.25.25,0,0,1,.08-.12l0,0a.26.26,0,0,1,.11-.1l.09,0H50a.27.27,0,0,1,.15,0l.09,0a.2.2,0,0,1,.09.11s0,0,0,0A.34.34,0,0,1,50.41,35.1Z"/><path class="cls-4" d="M52.28,33.49a46.79,46.79,0,0,1-3.73,6.85A33,33,0,0,1,36.28,50.86a35.1,35.1,0,0,1-3.84,1.63c-1.2.42-2.47.67-3.67,1.09-.17-.74-.33-1.47-.47-2.21-.22-1.1-.34-2.24-.62-3.33a9.33,9.33,0,0,0,7.13-3.58A9,9,0,0,0,35,34a8.63,8.63,0,0,0-9.67-3.16,8.2,8.2,0,0,0-1.47.68,15.88,15.88,0,0,0-.49-2.23c-.15-.73-.29-1.46-.4-2.2-.22-1.4-.25-2.86-.51-4.25h.05A14.36,14.36,0,0,0,26.46,22a12.89,12.89,0,0,0,6.25-4.41l.13,0c2,1.91,4.24,3.58,6.37,5.33s4.42,3.63,6.64,5.43S50.13,31.78,52.28,33.49Zm-1.86,1.73a.49.49,0,0,1,0-.12.34.34,0,0,0-.09-.15s0,0,0,0a.2.2,0,0,0-.09-.11l-.09,0a.27.27,0,0,0-.15,0h-.1l-.09,0a.26.26,0,0,0-.11.1l0,0a.25.25,0,0,0-.08.12.47.47,0,0,0,0,.17.53.53,0,0,0,0,.17.39.39,0,0,0,.23.23.33.33,0,0,0,.17,0l.12,0a.37.37,0,0,0,.19-.11l.07-.09A.43.43,0,0,0,50.42,35.22Zm-2.41,4a.48.48,0,0,0,0-1A.48.48,0,0,0,48,39.22Zm-2.48,3.11a.49.49,0,0,0,0-1A.49.49,0,0,0,45.53,42.33ZM43.16,44.9h0l0-.12,0-.06a.36.36,0,0,0-.1-.15l-.09-.07-.11-.05h-.14a.41.41,0,0,0-.19,0l-.06,0h0a.49.49,0,0,0-.18.17.55.55,0,0,0-.07.25l0,.13a.4.4,0,0,0,.12.21.42.42,0,0,0,.16.11.58.58,0,0,0,.18,0,.45.45,0,0,0,.25-.07.52.52,0,0,0,.18-.18h0a.32.32,0,0,0,.06-.18A.2.2,0,0,0,43.16,44.9Zm-3,2.17a.38.38,0,0,0,0-.15.42.42,0,0,0-.11-.17.32.32,0,0,0-.17-.11.29.29,0,0,0-.16,0h0l-.13,0-.13.05a.3.3,0,0,0-.13.12.14.14,0,0,0-.06.11.2.2,0,0,0,0,.13.24.24,0,0,0,0,.12.2.2,0,0,0,0,.13.34.34,0,0,0,.1.16l.09.08.13,0h.26l.12,0a.33.33,0,0,0,.13-.13.14.14,0,0,0,.06-.11.32.32,0,0,0,0-.19v-.06Zm-3,2.12a.25.25,0,0,0,0-.17l0-.11a.3.3,0,0,0-.12-.13.28.28,0,0,0-.15-.08.37.37,0,0,0-.18,0,.38.38,0,0,0-.16.05l-.1.07a.38.38,0,0,0-.09.15.35.35,0,0,0,0,.17s0,.08,0,.12a.43.43,0,0,0,.11.2h0a.18.18,0,0,0,.07.05l.07,0,0,0a.5.5,0,0,0,.17,0,.31.31,0,0,0,.16-.06l0,0,0,0s0-.05.06-.07l0,0h0A.34.34,0,0,0,37.15,49.19Zm-3.26,1.57s0-.09,0-.13a.45.45,0,0,0-.12-.21l-.1-.07a.4.4,0,0,0-.24-.07.37.37,0,0,0-.18,0,.4.4,0,0,0-.15.1.31.31,0,0,0-.1.15.41.41,0,0,0,0,.19l0,.12a.45.45,0,0,0,.12.21l.1.07a.48.48,0,0,0,.23.07.43.43,0,0,0,.19,0,.36.36,0,0,0,.15-.1.49.49,0,0,0,.1-.15A.39.39,0,0,0,33.89,50.76Zm-3.28,1.32a.43.43,0,0,0,0-.58.39.39,0,0,0-.38-.17h0a.66.66,0,0,0-.24.11h0l-.08.08a.25.25,0,0,1,0,.07s0,0,0,0v0a.09.09,0,0,1,0,0v.14a.11.11,0,0,1,0,0v0s0,0,0,0a.22.22,0,0,0,.05.08l.06.07s0,0,0,0a.51.51,0,0,0,.24.1h0A.39.39,0,0,0,30.61,52.08ZM25,29.42a.53.53,0,0,0,0-.25.31.31,0,0,1,0-.12.77.77,0,0,0-.12-.13.3.3,0,0,0-.11-.06.39.39,0,0,0-.18,0l-.13,0-.11,0a.33.33,0,0,0-.13.13.42.42,0,0,0-.09.16h0a.53.53,0,0,0,0,.25.55.55,0,0,0,.12.21.73.73,0,0,1,.09.08.54.54,0,0,0,.25.06.39.39,0,0,0,.18,0,.31.31,0,0,0,.15-.1A.57.57,0,0,0,25,29.42Zm-.5-2.55a.66.66,0,0,0,0-.14.45.45,0,0,0-.07-.25.49.49,0,0,0-.42-.25.55.55,0,0,0-.25.07.62.62,0,0,0-.18.18v0a0,0,0,0,0,0,0,.34.34,0,0,0-.06.2.36.36,0,0,0,.06.2s0,0,0,0,0,0,0,0h0s0,0,.08.1a.61.61,0,0,0,.22.13.57.57,0,0,0,.26,0,.61.61,0,0,0,.22-.13A.57.57,0,0,0,24.47,26.87Zm-1-2.23a.5.5,0,0,0,0-1A.5.5,0,0,0,23.47,24.64Z"/><path d="M48,38.26a.48.48,0,0,1,0,1A.48.48,0,0,1,48,38.26Z"/><path d="M45.53,41.36a.49.49,0,0,1,0,1A.49.49,0,0,1,45.53,41.36Z"/><path d="M43.16,44.89h0a.2.2,0,0,1,0,.07.32.32,0,0,1-.06.18h0a.52.52,0,0,1-.18.18.45.45,0,0,1-.25.07.58.58,0,0,1-.18,0,.42.42,0,0,1-.16-.11.4.4,0,0,1-.12-.21l0-.13a.55.55,0,0,1,.07-.25.49.49,0,0,1,.18-.17h0l.06,0a.41.41,0,0,1,.19,0h.14l.11.05.09.07a.36.36,0,0,1,.1.15l0,.06Z"/><path class="cls-3" d="M43.11,66c-.52-.85-1-1.7-1.55-2.56l-1.15-1.93c-.29-.49-.56-1-.89-1.51.76-.27,1.51-.57,2.25-.89C42.27,61.37,42.73,63.66,43.11,66Z"/><path d="M40.12,47.07v.06a.32.32,0,0,1,0,.19.14.14,0,0,1-.06.11.33.33,0,0,1-.13.13l-.12,0H39.5l-.13,0-.09-.08a.34.34,0,0,1-.1-.16.2.2,0,0,1,0-.13.24.24,0,0,1,0-.12.2.2,0,0,1,0-.13.14.14,0,0,1,.06-.11.3.3,0,0,1,.13-.12l.13-.05.13,0h0a.29.29,0,0,1,.16,0,.32.32,0,0,1,.17.11.42.42,0,0,1,.11.17.38.38,0,0,1,0,.15Z"/><path d="M37.15,49a.25.25,0,0,1,0,.17.34.34,0,0,1,0,.17h0l0,0s0,0-.06.07l0,0,0,0a.31.31,0,0,1-.16.06.5.5,0,0,1-.17,0l0,0-.07,0a.18.18,0,0,1-.07-.05h0a.43.43,0,0,1-.11-.2s0-.08,0-.12a.35.35,0,0,1,0-.17.38.38,0,0,1,.09-.15l.1-.07a.38.38,0,0,1,.16-.05.37.37,0,0,1,.18,0,.28.28,0,0,1,.15.08.3.3,0,0,1,.12.13Z"/><path class="cls-5" d="M33.89,33.72a7.85,7.85,0,0,1,2,6.05l-.58-.05-.32,0h-.17A7.74,7.74,0,0,0,33,34.47c.13-.1.27-.21.4-.33a2.68,2.68,0,0,0,.26-.23Z"/><path class="cls-5" d="M35.26,40.14l.55.07A8.7,8.7,0,0,1,34.89,43,7.74,7.74,0,0,1,33,45.35l0,0-.16-.23c-.1-.14-.2-.29-.31-.42a7.69,7.69,0,0,0,1.89-2.87,7.4,7.4,0,0,0,.39-1.75l.13,0Z"/><path class="cls-6" d="M31.27,33.76a6.89,6.89,0,0,1,2.74,7,7.55,7.55,0,0,1-6.24,5.61l-.24,0a.15.15,0,0,0-.17-.08l-.07.06a5.61,5.61,0,0,1-3.49-1.59,7.49,7.49,0,0,1-2.06-3.61,6.7,6.7,0,0,1,2.32-7.28A6.56,6.56,0,0,1,31.27,33.76Z"/><path d="M33.87,50.63s0,.09,0,.13a.39.39,0,0,1,0,.18.49.49,0,0,1-.1.15.36.36,0,0,1-.15.1.43.43,0,0,1-.19,0,.48.48,0,0,1-.23-.07l-.1-.07a.45.45,0,0,1-.12-.21l0-.12a.41.41,0,0,1,0-.19.31.31,0,0,1,.1-.15.4.4,0,0,1,.15-.1.37.37,0,0,1,.18,0,.4.4,0,0,1,.24.07l.1.07A.45.45,0,0,1,33.87,50.63Z"/><path class="cls-5" d="M33.67,33.47l-.22.19-.26.24a2.73,2.73,0,0,0-.25.23l-.12.14c-.14-.15-.28-.3-.43-.44A6.78,6.78,0,0,0,28,32.1a5.06,5.06,0,0,0,0-.55c0-.15,0-.3,0-.45A8.16,8.16,0,0,1,33.67,33.47Z"/><path class="cls-5" d="M32.71,45.48l0,.06a9.07,9.07,0,0,1-5.11,1.81,1.06,1.06,0,0,0,0-.31,1.49,1.49,0,0,0,0-.21,8,8,0,0,0,4.6-2c.09.14.19.27.28.39Z"/><path class="cls-5" d="M32.27,17.11c-.4.42-.78.84-1.18,1.23a12.19,12.19,0,0,0-.42-1.15c-.17-.47-.34-.93-.5-1.39-.32-.9-.65-1.79-1-2.69s-.65-1.79-1-2.68a23.7,23.7,0,0,0-1-2.41,4.05,4.05,0,0,0,1-1.28A8.42,8.42,0,0,1,29,8.89,50.35,50.35,0,0,0,32.27,17.11Z"/><path d="M30.61,51.5a.43.43,0,0,1,0,.58.39.39,0,0,1-.38.17h0a.51.51,0,0,1-.24-.1s0,0,0,0l-.06-.07a.22.22,0,0,1-.05-.08s0,0,0,0v0a.11.11,0,0,0,0,0v-.14a.09.09,0,0,0,0,0v0s0,0,0,0a.25.25,0,0,0,0-.07l.08-.08h0a.66.66,0,0,1,.24-.11h0A.39.39,0,0,1,30.61,51.5Z"/><path class="cls-5" d="M30.27,17.52a7.9,7.9,0,0,0,.46,1.17,12,12,0,0,1-1.13.94l-.22.14a6,6,0,0,0-.32-.93c-.17-.47-.35-.93-.52-1.4-.36-1-.72-1.93-1.09-2.9a45.63,45.63,0,0,0-2.1-5.18c.21-.13.44-.24.65-.38s.68-.48,1-.77c.2.86.55,1.7.83,2.53l1,2.69c.32.9.64,1.8,1,2.7C29.94,16.59,30.11,17.05,30.27,17.52Z"/><path class="cls-4" d="M28.48,54.66c.52,2.28,1.16,4.53,1.9,6.75a28.89,28.89,0,0,1-8-.24A26.1,26.1,0,0,1,11,56.07q2.13-8.55,4.13-17.13c.66-2.84,1.31-5.69,2-8.53.11-.48.22-1,.34-1.44a6.05,6.05,0,0,0,1.1.33c.49.11,1,.21,1.47.28a10.68,10.68,0,0,0,2.88,0,.35.35,0,0,0,.12,0,8,8,0,0,0,.54,2.06.13.13,0,0,0,.07.06,9.16,9.16,0,0,0-4.2,8.05c.13,3.45,2.56,7.39,6.11,8.1a7.15,7.15,0,0,0,1.84.24,24.64,24.64,0,0,0,.45,3.2C28,52.39,28.22,53.53,28.48,54.66Zm-1.18,5.6a.5.5,0,0,0,0-1A.5.5,0,0,0,27.3,60.26Zm-.83-3.42a.5.5,0,0,0,0-1A.5.5,0,0,0,26.47,56.84Zm-.18-7.33a.34.34,0,0,1,0-.1.22.22,0,0,0-.05-.11.28.28,0,0,0-.11-.13.31.31,0,0,0-.15-.08.45.45,0,0,0-.23,0l-.11,0a.49.49,0,0,0-.16.16.37.37,0,0,0,0,.15.28.28,0,0,0,0,.18.52.52,0,0,0,.11.19l.09.07a.44.44,0,0,0,.23.06l.11,0a.4.4,0,0,0,.19-.11.44.44,0,0,0,.12-.19A.49.49,0,0,1,26.29,49.51Zm-.23,3.79a.48.48,0,0,0,0-.95A.48.48,0,0,0,26.06,53.3ZM21.38,31.18a.59.59,0,0,1,0-.13.56.56,0,0,0-.13-.22l-.1-.07a.48.48,0,0,0-.44,0,.42.42,0,0,0-.26.26.31.31,0,0,0,0,.19.66.66,0,0,1,0,.14.57.57,0,0,0,.13.21l.11.08a.4.4,0,0,0,.24.07.53.53,0,0,0,.19,0,.53.53,0,0,0,.27-.27A.53.53,0,0,0,21.38,31.18Zm-3.08.08a.5.5,0,0,0,0-1A.5.5,0,0,0,18.3,31.26Z"/><path class="cls-5" d="M28.6,19a6.56,6.56,0,0,0,.4,1,11.42,11.42,0,0,1-1.13.65c-.81-1.8-1.65-3.58-2.39-5.42-.35-.89-.68-1.79-1-2.69S24,11,23.6,10.24a16.31,16.31,0,0,0,1.51-.75c.5,1.8,1.3,3.54,1.95,5.27.35.93.69,1.86,1,2.8C28.27,18,28.43,18.5,28.6,19Z"/><path class="cls-5" d="M27.62,31.55a5.33,5.33,0,0,0,0,.56,6.94,6.94,0,0,0-3.23.84,5.64,5.64,0,0,0-1.12.79h0l-.39-.38-.15-.13A7.84,7.84,0,0,1,24.47,32a7.39,7.39,0,0,1,3.15-.86Z"/><path d="M27.3,59.27a.5.5,0,0,1,0,1A.5.5,0,0,1,27.3,59.27Z"/><path class="cls-5" d="M27.36,47a2.83,2.83,0,0,1,0,.29s0,.05,0,.07a11.42,11.42,0,0,1-1.93-.11,8.44,8.44,0,0,1-3.7-2.86l.11-.06.24-.15a3.86,3.86,0,0,0,.38-.3,7.54,7.54,0,0,0,.85,1,5.41,5.41,0,0,0,4,1.79C27.33,46.79,27.35,46.9,27.36,47Z"/><path class="cls-5" d="M27.8,6.3c-.36.35-.64.79-1,1.14a8.35,8.35,0,0,1-1.33,1,16,16,0,0,1-3,1.46A17.39,17.39,0,0,1,19,11a11.32,11.32,0,0,1-1.93.14c-.51,0-1-.13-1.49-.19a1.07,1.07,0,0,1,0-.25,2.67,2.67,0,0,1,.84-1.13,12.58,12.58,0,0,1,1.63-1.28,14.16,14.16,0,0,1,3.83-1.76A13.71,13.71,0,0,1,26.09,6,3.38,3.38,0,0,1,27.8,6.3Z"/><path class="cls-5" d="M27.5,20.84c-.43.2-.87.39-1.32.55l-.22.06a26.8,26.8,0,0,0-1.05-2.55c-.37-.9-.72-1.82-1.07-2.73q-1-2.64-1.86-5.31.45-.15.9-.33l.45-.19A16.94,16.94,0,0,0,24.15,13c.32.9.67,1.79,1,2.68C25.88,17.4,26.62,19.16,27.5,20.84Z"/><path d="M26.47,55.85a.5.5,0,0,1,0,1A.5.5,0,0,1,26.47,55.85Z"/><path d="M26.28,49.41a.34.34,0,0,0,0,.1.49.49,0,0,0,0,.12.44.44,0,0,1-.12.19.4.4,0,0,1-.19.11l-.11,0a.44.44,0,0,1-.23-.06l-.09-.07a.52.52,0,0,1-.11-.19.28.28,0,0,1,0-.18.37.37,0,0,1,0-.15.49.49,0,0,1,.16-.16l.11,0a.45.45,0,0,1,.23,0,.31.31,0,0,1,.15.08.28.28,0,0,1,.11.13A.22.22,0,0,1,26.28,49.41Z"/><path d="M26.06,52.35a.48.48,0,0,1,0,.95A.48.48,0,0,1,26.06,52.35Z"/><path d="M25,29.17a.53.53,0,0,1,0,.25.57.57,0,0,1-.13.21.31.31,0,0,1-.15.1.39.39,0,0,1-.18,0,.54.54,0,0,1-.25-.06.73.73,0,0,0-.09-.08.55.55,0,0,1-.12-.21.53.53,0,0,1,0-.25h0a.42.42,0,0,1,.09-.16.33.33,0,0,1,.13-.13l.11,0,.13,0a.39.39,0,0,1,.18,0,.3.3,0,0,1,.11.06.77.77,0,0,1,.12.13A.31.31,0,0,0,25,29.17Z"/><path class="cls-5" d="M24.52,19.12a17.59,17.59,0,0,0,1.06,2.45,16.86,16.86,0,0,1-1.84.42c-.73-1.78-1.41-3.57-2.06-5.37-.34-.94-.67-1.89-1-2.83-.27-.77-.49-1.59-.81-2.35a15.91,15.91,0,0,0,1.8-.48c.53,1.83,1.11,3.64,1.78,5.42C23.79,17.3,24.15,18.21,24.52,19.12Z"/><path d="M24.48,26.73a.66.66,0,0,1,0,.14.57.57,0,0,1-.13.21.61.61,0,0,1-.22.13.57.57,0,0,1-.26,0,.61.61,0,0,1-.22-.13c-.07-.07-.06-.06-.08-.1h0s0,0,0,0,0,0,0,0a.36.36,0,0,1-.06-.2.34.34,0,0,1,.06-.2,0,0,0,0,1,0,0v0a.62.62,0,0,1,.18-.18.55.55,0,0,1,.25-.07.49.49,0,0,1,.42.25A.45.45,0,0,1,24.48,26.73Z"/><path d="M23.47,23.65a.5.5,0,0,1,0,1A.5.5,0,0,1,23.47,23.65Z"/><path class="cls-5" d="M23.29,22.05l-.78.08c-.52,0-1.05,0-1.56,0-.22-.93-.55-1.84-.82-2.75s-.57-1.87-.85-2.81l-.81-2.83a12.54,12.54,0,0,0-.64-2.09A10.37,10.37,0,0,0,19,11.59l.52-.08a23.81,23.81,0,0,0,.83,2.6c.31.91.63,1.82,1,2.72C21.93,18.59,22.6,20.32,23.29,22.05Z"/><path class="cls-5" d="M22.46,33.51,23,34a7,7,0,0,0-2,4.33l-.05,0h0a.7.7,0,0,0-.19-.06,1.09,1.09,0,0,0-.26,0,1.51,1.51,0,0,0-.3,0A8.45,8.45,0,0,1,22.46,33.51Z"/><path class="cls-4" d="M22.89,29h-.1a13.88,13.88,0,0,1-2.81.08,8.9,8.9,0,0,1-1.36-.19c-.38-.07-.76-.21-1.14-.27a53,53,0,0,0,1.29-6.28,8.65,8.65,0,0,0,3.51.44A17.35,17.35,0,0,0,22.55,27C22.63,27.68,22.76,28.36,22.89,29Z"/><path class="cls-5" d="M22.29,43.62l-.18.16-.1.08h0l0,0-.08.07-.2.15-.12.09a8.24,8.24,0,0,1-1.27-2.93,8.83,8.83,0,0,1-.16-2.66l.35,0h0l.05,0,.11,0c.06,0,.12,0,.19,0l.07,0H21a8.14,8.14,0,0,0,1.29,4.91Z"/><path d="M21.36,31.05a.59.59,0,0,0,0,.13.53.53,0,0,1,0,.19.53.53,0,0,1-.27.27.53.53,0,0,1-.19,0,.4.4,0,0,1-.24-.07l-.11-.08a.57.57,0,0,1-.13-.21.66.66,0,0,0,0-.14.31.31,0,0,1,0-.19.42.42,0,0,1,.26-.26.48.48,0,0,1,.44,0l.1.07A.56.56,0,0,1,21.36,31.05Z"/><path d="M20.94,38.69a.14.14,0,0,1-.09,0Z"/><path class="cls-5" d="M19.64,19.54c.25.85.47,1.74.78,2.58-.5-.05-1-.14-1.49-.17a31.51,31.51,0,0,0-1.44-4.83q-.78-2.42-1.57-4.83a7,7,0,0,1-.31-1,5.14,5.14,0,0,0,1.82.38,5.42,5.42,0,0,0,.21,1l.42,1.47.78,2.72C19.11,17.72,19.37,18.63,19.64,19.54Z"/><path d="M18.3,30.27a.5.5,0,0,1,0,1A.5.5,0,0,1,18.3,30.27Z"/><path class="cls-3" d="M18.76,61a10.8,10.8,0,0,0-.8,1.77c-.27.68-.51,1.36-.74,2s-.56,1.62-.87,2.41c.14-.9.27-1.81.42-2.7l.39-2.26a9.34,9.34,0,0,0,.27-1.73C17.87,60.75,18.31,60.9,18.76,61Z"/><path class="cls-7" d="M60.94,47.53c.7.57,1.39,1.16,2.06,1.77-2.12-.82-4.19-1.74-6.29-2.62.33-.55.64-1.1.93-1.66C58.74,45.86,59.87,46.65,60.94,47.53Z"/><path class="cls-8" d="M52.59,33.74a16.91,16.91,0,0,1-1.05,2.68,11.29,11.29,0,0,1,2.53,4c1.19,3.49-1.23,7-3.3,9.61a20.74,20.74,0,0,1-7.42,5.81,34,34,0,0,1-13.23,2.92c.26.87.53,1.74.81,2.6A38.64,38.64,0,0,0,45.7,56.17C52.21,52.33,57.52,46.32,59,38.74h0C56.84,37.09,54.71,35.42,52.59,33.74Z"/><path class="cls-8" d="M24.69,31.07a5,5,0,0,1,.64-.26,7.92,7.92,0,0,1,3.3-.42A6.54,6.54,0,0,0,24.69,31.07Z"/><path class="cls-8" d="M36.26,41.72a1.22,1.22,0,0,1,.07-.38,5.31,5.31,0,0,0,.23-.87v0l0-.18,0-.56c0-.4,0-.8,0-1.2,0-.21,0-.41-.05-.62l0-.33A17.06,17.06,0,0,0,36,35.18a2.49,2.49,0,0,0-.11-.29c0,.09,0,.13,0-.12l-.11-.22-.17-.28,0,0a1.24,1.24,0,0,1-.42-.15,9,9,0,0,1,.85,8.32C36.06,42.18,36.16,42,36.26,41.72Z"/><path class="cls-8" d="M45.85,28.33q-3.33-2.7-6.64-5.43c-2.13-1.75-4.4-3.42-6.37-5.33l-.13,0a10.52,10.52,0,0,1-3.12,2.88,1.45,1.45,0,0,1,1.08.2,43.47,43.47,0,0,1,5.38,3.79l2,1.32a103.51,103.51,0,0,1,9.65,7.13c1.12,1,2.34,1.93,3.42,3,.41-.81.8-1.63,1.2-2.46C50.13,31.78,48,30.05,45.85,28.33Z"/><path class="cls-7" d="M43.11,66c-.52-.85-1-1.7-1.55-2.56l-1.15-1.93c-.29-.49-.56-1-.89-1.51.76-.27,1.51-.57,2.25-.89C42.27,61.37,42.73,63.66,43.11,66Z"/><path class="cls-9" d="M33.89,33.72a7.85,7.85,0,0,1,2,6.05l-.58-.05-.32,0h-.17A7.74,7.74,0,0,0,33,34.47c.13-.1.27-.21.4-.33a2.68,2.68,0,0,0,.26-.23Z"/><path class="cls-9" d="M35.26,40.14l.55.07A8.7,8.7,0,0,1,34.89,43,7.74,7.74,0,0,1,33,45.35l0,0-.16-.23c-.1-.14-.2-.29-.31-.42a7.69,7.69,0,0,0,1.89-2.87,7.4,7.4,0,0,0,.39-1.75l.13,0Z"/><path class="cls-10" d="M31.27,33.76a6.56,6.56,0,0,0-7.21.06c-.15.1-.29.21-.43.32a8.27,8.27,0,0,1,1.24-.59,5.86,5.86,0,0,1,3.94-.14,4.65,4.65,0,0,1,3,3.55,5.82,5.82,0,0,1-1.62,5.59,6.35,6.35,0,0,1-5.34,1.51,4.21,4.21,0,0,1-2.33-1.25,3.47,3.47,0,0,1-.25-.29,7.43,7.43,0,0,0,1.54,2.19,5.61,5.61,0,0,0,3.49,1.59l.07-.06a.15.15,0,0,1,.17.08l.24,0A7.55,7.55,0,0,0,34,40.73,6.89,6.89,0,0,0,31.27,33.76Z"/><path class="cls-9" d="M33.67,33.47l-.22.19-.26.24a2.73,2.73,0,0,0-.25.23l-.12.14c-.14-.15-.28-.3-.43-.44A6.78,6.78,0,0,0,28,32.1a5.06,5.06,0,0,0,0-.55c0-.15,0-.3,0-.45A8.16,8.16,0,0,1,33.67,33.47Z"/><path class="cls-9" d="M32.71,45.48l0,.06a9.07,9.07,0,0,1-5.11,1.81,1.06,1.06,0,0,0,0-.31,1.49,1.49,0,0,0,0-.21,8,8,0,0,0,4.6-2c.09.14.19.27.28.39Z"/><path class="cls-9" d="M32.27,17.11c-.4.42-.78.84-1.18,1.23a12.19,12.19,0,0,0-.42-1.15c-.17-.47-.34-.93-.5-1.39-.32-.9-.65-1.79-1-2.69s-.65-1.79-1-2.68a23.7,23.7,0,0,0-1-2.41,4.05,4.05,0,0,0,1-1.28A8.42,8.42,0,0,1,29,8.89,50.35,50.35,0,0,0,32.27,17.11Z"/><path class="cls-9" d="M30.27,17.52c-.16-.47-.33-.93-.49-1.39s-.43-1.21-.65-1.81a6.23,6.23,0,0,1-.64,3l.05.13c.17.47.35.93.52,1.4a6,6,0,0,1,.32.93l.22-.14a12,12,0,0,0,1.13-.94A7.9,7.9,0,0,1,30.27,17.52Z"/><path class="cls-8" d="M24.6,58.67c-4.53-.28-9.57-1.16-13.31-3.88-.1.43-.21.85-.31,1.28a26.1,26.1,0,0,0,11.36,5.1,28.89,28.89,0,0,0,8,.24c-.29-.88-.56-1.76-.82-2.64C27.9,58.81,26.25,58.77,24.6,58.67Zm2.7,1.59a.5.5,0,0,1,0-1A.5.5,0,0,1,27.3,60.26Z"/><path class="cls-9" d="M28.19,17.83a4.67,4.67,0,0,1-.36.51,6.52,6.52,0,0,1-.69.7l.73,1.62A11.42,11.42,0,0,0,29,20a6.56,6.56,0,0,1-.4-1Z"/><path class="cls-9" d="M27.62,31.55a5.33,5.33,0,0,0,0,.56,6.94,6.94,0,0,0-3.23.84,5.64,5.64,0,0,0-1.12.79h0l-.39-.38-.15-.13A7.84,7.84,0,0,1,24.47,32a7.39,7.39,0,0,1,3.15-.86Z"/><path class="cls-9" d="M27.36,47a2.83,2.83,0,0,1,0,.29s0,.05,0,.07a11.42,11.42,0,0,1-1.93-.11,8.44,8.44,0,0,1-3.7-2.86l.11-.06.24-.15a3.86,3.86,0,0,0,.38-.3,7.54,7.54,0,0,0,.85,1,5.41,5.41,0,0,0,4,1.79C27.33,46.79,27.35,46.9,27.36,47Z"/><path class="cls-9" d="M26.06,8.07a7.45,7.45,0,0,0,.74-.63c.36-.35.64-.79,1-1.14A3.38,3.38,0,0,0,26.09,6,13.7,13.7,0,0,0,23,6.23,9,9,0,0,1,26.06,8.07Z"/><path class="cls-9" d="M25.44,20.1A10.69,10.69,0,0,1,26,21.45l.22-.06c.45-.16.89-.35,1.32-.55-.26-.5-.5-1-.74-1.5A7.19,7.19,0,0,1,25.44,20.1Z"/><path class="cls-9" d="M23.59,20.73l-.32.06c.16.4.31.8.47,1.19a14.77,14.77,0,0,0,1.84-.41,7.51,7.51,0,0,1-.6-1.28A14,14,0,0,1,23.59,20.73Z"/><path class="cls-9" d="M20.66,21.1c.1.35.21.7.29,1,.51,0,1,0,1.56,0l.78-.08c-.15-.39-.3-.78-.46-1.16A13.29,13.29,0,0,1,20.66,21.1Z"/><path class="cls-9" d="M21,38.13a3.86,3.86,0,0,1,.55-2h0A6.45,6.45,0,0,1,23,34l-.52-.51a8.45,8.45,0,0,0-2.27,4.73,1.51,1.51,0,0,1,.3,0,1.09,1.09,0,0,1,.26,0,.7.7,0,0,1,.19.06h0l.05,0,0-.19Z"/><path class="cls-9" d="M22.29,43.62l-.18.16-.1.08h0l0,0-.08.07-.2.15-.12.09a8.24,8.24,0,0,1-1.27-2.93,8.83,8.83,0,0,1-.16-2.66l.35,0h0l.05,0,.11,0c.06,0,.12,0,.19,0l.07,0H21a8.14,8.14,0,0,0,1.29,4.91Z"/><path class="cls-7" d="M18.76,61a10.8,10.8,0,0,0-.8,1.77c-.27.68-.51,1.36-.74,2s-.56,1.62-.87,2.41c.14-.9.27-1.81.42-2.7l.39-2.26a9.34,9.34,0,0,0,.27-1.73C17.87,60.75,18.31,60.9,18.76,61Z"/></g></g></g></svg>