<svg xmlns="http://www.w3.org/2000/svg" viewBox="0 0 74.82 74.82"><defs><style>.cls-1{isolation:isolate;}.cls-2{fill:#fcf2d6;stroke:#f6da8b;stroke-miterlimit:10;stroke-width:0.68px;}.cls-3,.cls-7{fill:#3b67b1;}.cls-4{fill:#fff;}.cls-5,.cls-8{fill:#8bc8fd;}.cls-6{fill:#d0e9fe;}.cls-6,.cls-7,.cls-8{mix-blend-mode:multiply;opacity:0.4;}</style></defs><g class="cls-1"><g id="Шар_2" data-name="Шар 2"><g id="OBJECTS"><rect class="cls-2" x="0.34" y="0.34" width="74.14" height="74.14" rx="3.36"/><path d="M69,54.7a.43.43,0,0,1,.06.44,6.21,6.21,0,0,1-1,1.3L67,57.67c-.71.81-1.42,1.62-2.12,2.44s-1.46,1.67-2.19,2.52a14,14,0,0,1-2.14,2.28.34.34,0,0,1-.53-.24.39.39,0,0,1-.11-.06c-2.52-2.17-5-4.41-7.4-6.71-1.23-1.17-2.42-2.35-3.61-3.56a21.81,21.81,0,0,1-3.12-3.47.38.38,0,0,1-.09-.41,5.49,5.49,0,0,1,.93-1.18l1-1.15c.3-.36.61-.71.92-1.06-.14-.1-.27-.23-.39-.33l-.7-.6L46.07,45c-.9-.76-1.76-1.55-2.61-2.35-.2.06-.4.12-.6.16v.06A80.45,80.45,0,0,1,40.49,51c-.83,2.59-1.76,5.14-2.78,7.67-.29.75-.55,2-1.25,2.46a3.34,3.34,0,0,1-2.21.17,17.33,17.33,0,0,1-5.75-1.65,17,17,0,0,1-8.17-8.48,17.36,17.36,0,0,1-1.43-5.53,5.05,5.05,0,0,1,.18-2.78c.47-.79,1.64-1.14,2.42-1.54a77.49,77.49,0,0,1,12-5.13Q31,34.3,28.72,32.3c-.87-.75-1.74-1.52-2.59-2.3a19.62,19.62,0,0,1-2.22-2.15c-.48.51-.95,1-1.42,1.53a20.65,20.65,0,0,1-2.26,2.41.27.27,0,0,1-.11.05s0,0,0,.06a.22.22,0,0,1-.17.07.24.24,0,0,1-.18-.07l-.21-.18h0l-.13-.07c-2.35-1.88-4.63-3.86-6.9-5.83-1.14-1-2.25-2-3.37-3A37.91,37.91,0,0,1,6,19.85l-.12-.09a.64.64,0,0,1-.12-.25.48.48,0,0,1,0-.29.31.31,0,0,1,.06-.13h0A.75.75,0,0,1,5.86,19a28.5,28.5,0,0,1,2.26-2.4l2.2-2.2c1.52-1.48,3-3,4.66-4.37a.33.33,0,0,1,.25-.09.25.25,0,0,1,.25,0,9.24,9.24,0,0,1,1.67,1.32c.6.51,1.17,1,1.75,1.53l3.28,2.93c2.24,2,4.5,4,6.68,6.09a.26.26,0,0,1,.08.13.32.32,0,0,1,.2.38,3.4,3.4,0,0,1-1,1.17c-.4.4-.8.8-1.19,1.21-.64.64-1.26,1.29-1.88,1.95.79.62,1.52,1.34,2.28,2s1.66,1.5,2.49,2.26,1.71,1.55,2.56,2.33a14.8,14.8,0,0,0,2.18,1.77,11.36,11.36,0,0,1,1.91-5.5,17,17,0,0,1,2.57-3A14.13,14.13,0,0,1,42.15,24a.08.08,0,0,1,0,0,1.09,1.09,0,0,1,.75-.24,6.65,6.65,0,0,1,.89,0,9.32,9.32,0,0,1,1.76.23,8.14,8.14,0,0,1,3.21,1.45l1.17-1.07c1.48-1.34,3-2.64,4.46-4a1.39,1.39,0,0,1-.54-.68,1.55,1.55,0,0,1,.1-1.21,1.77,1.77,0,0,1,1.81-.94,1.71,1.71,0,0,1,1.32,1.38,1.56,1.56,0,0,1-.83,1.72,1.74,1.74,0,0,1-.95.2,1.79,1.79,0,0,1-.46-.09q-2.09,3.43-4.36,6.73a.32.32,0,0,1,.15.08,6.36,6.36,0,0,1,1.86,3.22,7.61,7.61,0,0,1,.24,1.9,4.14,4.14,0,0,1-.24,1.63.28.28,0,0,1,0,.23c-1.82,2.6-4,5.38-6.71,7.09-.18.11-.38.2-.56.3.31.23.59.49.87.72l1.25,1.08,1.29,1.13.66.57a2.12,2.12,0,0,1,.4.39l3.86-4.38a.37.37,0,0,1,.46-.1.31.31,0,0,1,.25,0,9.94,9.94,0,0,1,1.86,1.5L58,44.53l3.64,3.27,3.75,3.37,1.92,1.74A10.1,10.1,0,0,1,69,54.49.42.42,0,0,1,69,54.7Zm-1.54,1c.23-.26.46-.54.71-.78a13.9,13.9,0,0,1-1.63-1.43L64.87,52c-.56.75-1.25,1.44-1.85,2.15l-.32.37,3.23,3,.48-.55Zm-3.25,3.74c.43-.49.86-1,1.28-1.48-1.08-1-2.15-2-3.21-3-.43.49-.85,1-1.27,1.49l-1.43,1.68Q61.21,59.6,62.86,61Zm-1.69-5.68a28.3,28.3,0,0,1,1.88-2.2L61,48.46l-.43-.39a4.1,4.1,0,0,1-.76,1.12c-.33.41-.67.8-1,1.2l-.26.31.22.2,3.49,3.18Zm-.43,8.13c.14-.17.29-.33.43-.49l-3.25-2.86-.32.37c-.58.69-1.16,1.41-1.81,2.06,1.09,1,2.18,1.94,3.28,2.89.2-.26.41-.51.62-.74ZM60.48,56.2l1.36-1.62c-1.13-1-2.27-2.09-3.39-3.15l-.3-.26-1.36,1.62-1.36,1.58.32.31c1.13,1,2.29,2.09,3.44,3.12Zm-.1-8.32-3-2.75c-.61.74-1.33,1.4-2,2.1l-.25.26c1,.94,2,1.9,3,2.83.08-.08.15-.17.22-.25l1-1.2A4.56,4.56,0,0,1,60.38,47.88ZM58.53,58.61l.36-.43Q57.14,56.61,55.43,55l-.3-.28-.44.52c-.56.64-1.12,1.29-1.73,1.89,0,.06.12.11.18.17Q55,59,56.92,60.76C57.41,60,58,59.31,58.53,58.61Zm-2.27-6.1,1.48-1.73c-1-.92-2.06-1.85-3.08-2.79l-1.34,1.44L51.89,51a2.18,2.18,0,0,1,.22.21c1,.91,1.92,1.82,2.88,2.72C55.42,53.48,55.85,53,56.26,52.51ZM57,44.8l-1.63-1.48a14.87,14.87,0,0,1-1.27-1.24l-2.31,2.6c1,.76,2,1.6,2.94,2.46l.33-.35A26,26,0,0,1,57,44.8Zm-.54-25.27a1,1,0,0,0,0-.65,1.16,1.16,0,0,0-.35-.55.93.93,0,0,0-.59-.25,1.21,1.21,0,0,0-1.08.72.88.88,0,0,0,0,.71,1.6,1.6,0,0,0,.49.58l0,0,0,0a1,1,0,0,0,.37.06,1.26,1.26,0,0,0,.7-.2A.9.9,0,0,0,56.46,19.53ZM53,49.07c.44-.49.89-1,1.33-1.44-.93-.87-1.85-1.77-2.69-2.72l-1.43,1.63-1.38,1.54a25.86,25.86,0,0,1,2.76,2.58C52,50.13,52.47,49.59,53,49.07Zm1.75,5.22c-1-.94-2-1.89-3-2.86l-.1-.1-.37.42a20.26,20.26,0,0,1-1.83,2s.09.1.14.15l3.1,3A30.78,30.78,0,0,1,54.7,54.29ZM52,33.39a5.49,5.49,0,0,0,0-.81,7.06,7.06,0,0,0-.22-1.66,8.2,8.2,0,0,0-1.61-3s0,0,0-.06l-1.43,2c-.4.54-.79,1.24-1.44,1.5a1.77,1.77,0,0,1-1.64-.2,1.87,1.87,0,0,1,0-3,.19.19,0,0,1,.14-.05c.58-.63,1.24-1.19,1.87-1.77l.55-.52a10.64,10.64,0,0,0-2.87-1.3,9,9,0,0,0-1.64-.23H42.6a9.27,9.27,0,0,0,.06,3.52,7.56,7.56,0,0,0,1.89,3.42A9.72,9.72,0,0,0,51.91,34C51.94,33.78,52,33.58,52,33.39ZM53.35,22c-1,.94-2,1.89-3,2.82L48,27a25.05,25.05,0,0,1-2.28,2s0,0,0,0a1.4,1.4,0,0,0-.05,1.29,1.17,1.17,0,0,0,1.45.51c.59-.28,1-1.11,1.38-1.62l1.24-1.73C51,25.65,52.17,23.85,53.35,22ZM51,51.33c.09-.11.2-.23.29-.35a23.39,23.39,0,0,1-2.61-2.75c-.16.19-.32.38-.49.56-.34.37-.68.73-1,1.11a6.66,6.66,0,0,1-.87.89,23.58,23.58,0,0,1,2.93,2.73,10.39,10.39,0,0,1,.76-1C50.29,52.12,50.62,51.73,51,51.33ZM48.85,46.7c.18-.19.35-.39.52-.59a2.19,2.19,0,0,1-.5-.41c-.22-.19-.44-.38-.65-.58L47,44l-1.27-1.14c-.27-.26-.58-.53-.84-.82a8.89,8.89,0,0,1-1.2.49c.92.65,1.81,1.32,2.68,2.05l1.45,1.21.74.62C48.64,46.52,48.76,46.61,48.85,46.7ZM45,41.1c2.66-1.53,4.65-4.15,6.52-6.56a10,10,0,0,1-7.39-3.07,8.27,8.27,0,0,1-1.92-3.67,6.38,6.38,0,0,1,0-3.13c-.94.93-2.08,1.7-3,2.64a14.92,14.92,0,0,0-2.81,3.88c-1.32,2.73-1.53,6.09.36,8.62C38.74,42.52,42.17,42.71,45,41.1Zm-2.69,1.78a6.36,6.36,0,0,1-3.71-.54A7.46,7.46,0,0,1,34.7,37c0-.21,0-.42-.06-.62C31.12,38,27.51,39.48,24,41.13a13.74,13.74,0,0,0,.67,5.24,13.35,13.35,0,0,0,3,4.82,15.34,15.34,0,0,0,10.24,4.4l.08,0c.11-.29.23-.57.34-.87C39.74,50.83,40.92,46.83,42.28,42.88ZM37.16,57.64c.19-.49.37-1,.56-1.48-.35,0-.7,0-1-.06-.15.45-.35.89-.52,1.33s-.32.78-.5,1.17c.37,0,.74,0,1.11,0C36.89,58.29,37,58,37.16,57.64Zm-.63,1.56A15.34,15.34,0,0,1,21.66,48.44a12.53,12.53,0,0,1-.59-5.89c-.22.11-.44.22-.65.35-.59.36-.64.71-.65,1.34A15.87,15.87,0,0,0,20,47a16.51,16.51,0,0,0,1.83,5.18,16.21,16.21,0,0,0,8.28,7.18,12.82,12.82,0,0,0,5.23,1.1C36.15,60.37,36.29,59.84,36.53,59.2Zm-.83-2c.15-.4.29-.8.46-1.2a15.34,15.34,0,0,1-2.1-.43c-.14.46-.34.91-.51,1.35s-.34.84-.53,1.25a13.86,13.86,0,0,0,2.22.35C35.37,58.11,35.53,57.68,35.7,57.24ZM34.59,35.82v-.29a11.37,11.37,0,0,1-2.32-1.78c-.86-.77-1.71-1.55-2.56-2.33S28,29.83,27.09,29s-1.56-1.39-2.28-2.14l-.07.08-.59.63a14.55,14.55,0,0,1,1.12,1c.43.37.86.77,1.3,1.16.81.72,1.64,1.44,2.47,2.14,1.65,1.41,3.33,2.78,5,4.14Zm-1.45,21c.16-.44.31-.88.49-1.31A17.72,17.72,0,0,1,32,54.86a2.27,2.27,0,0,1-.34.63l-.41.65a10,10,0,0,1-.87,1.18,15.09,15.09,0,0,0,2.37.82C32.83,57.69,33,57.24,33.14,56.79ZM31.2,55.25a2.43,2.43,0,0,1,.37-.57,16.88,16.88,0,0,1-1.67-.92,2,2,0,0,1-.19.22l-.28.31-.55.6c-.33.36-.68.72-1.05,1.06a17.14,17.14,0,0,0,2.29,1.28,9.92,9.92,0,0,1,.68-1.34Zm-1.8-1.56a2.09,2.09,0,0,1,.14-.17A13.57,13.57,0,0,1,28,52.28s0,0,0,0c-.38.35-.75.71-1.12,1.08s-.62.64-.95.93a14.86,14.86,0,0,0,1.74,1.43c.3-.4.63-.78,1-1.15.19-.2.37-.41.56-.62ZM27.56,22.81c.22-.22.44-.48.69-.69-.82-.73-1.62-1.47-2.43-2.22-.91,1-1.81,2-2.71,3,.79.71,1.58,1.42,2.35,2.14.33-.34.65-.69,1-1ZM27.62,52s0,0,0,0c-.18-.17-.36-.33-.53-.51s-.48-.54-.7-.82a.87.87,0,0,1-.13.15,3.92,3.92,0,0,1-.25.32c-.18.19-.36.39-.55.58a5,5,0,0,1-1.14.9,13.91,13.91,0,0,0,1,1.26l.24.24c.11-.15.23-.29.35-.43l.52-.57C26.87,52.76,27.24,52.39,27.62,52ZM26,50.56a.85.85,0,0,1,.19-.19,14.83,14.83,0,0,1-.81-1.25l-.23.15c-.38.24-.76.45-1.13.7l-.56.38-.36.25a15.65,15.65,0,0,0,1.11,1.83c.32-.35.68-.66,1-1,.18-.18.36-.37.53-.57ZM24.09,26.43l1.05-1.1c-.82-.68-1.61-1.36-2.41-2.06-.34.38-.68.75-1,1.13-.5.58-1,1.17-1.47,1.76.78.63,1.57,1.27,2.33,1.93C23.09,27.53,23.58,27,24.09,26.43ZM25,48.86l.17-.08a15,15,0,0,1-.71-1.45,5.12,5.12,0,0,1-.57.3l-.58.32-.59.3a3,3,0,0,1-.52.22A16.91,16.91,0,0,0,23,50.29a4.09,4.09,0,0,1,.33-.28c.2-.17.4-.31.6-.45A7,7,0,0,1,25,48.86Zm-.71-2a13,13,0,0,1-.46-1.5,4,4,0,0,1-.48.19l-.58.25-.58.26a3.11,3.11,0,0,1-.5.21,13.11,13.11,0,0,0,.43,1.91,4.23,4.23,0,0,1,.42-.32l.56-.35.6-.33A4.19,4.19,0,0,1,24.3,46.89ZM23.76,45a11.51,11.51,0,0,1-.24-1.75l-.39.17-.61.24-.62.25-.42.14c0,.66.09,1.32.18,2a5.86,5.86,0,0,1,.94-.54l.61-.26A3.71,3.71,0,0,1,23.76,45Zm1.65-25.47c-1.24-1.13-2.47-2.27-3.72-3.39L21.54,16c-.93,1-1.84,1.92-2.75,2.89l.15.15c1.23,1.14,2.48,2.28,3.73,3.41C23.56,21.44,24.46,20.46,25.41,19.52ZM23.52,42.86a9,9,0,0,1,.1-1.56c-.56.26-1.1.53-1.65.8l-.58.29c0,.43.05.85.07,1.28l.34-.14.59-.25.6-.23A4.14,4.14,0,0,1,23.52,42.86Zm-1.66-14c.12-.13.24-.25.35-.38q-1.2-.9-2.37-1.86l-.18.21c-.63.77-1.23,1.6-1.92,2.32L20,31.05l0,0A23.33,23.33,0,0,1,21.86,28.88Zm-.61-4.82c.34-.4.68-.79,1-1.19-1.28-1.13-2.53-2.27-3.78-3.42l-.13-.13-1.23,1.31c-.53.56-1,1.13-1.57,1.69l.07.07c1.37,1.14,2.77,2.27,4.16,3.4C20.29,25.21,20.76,24.63,21.25,24.06Zm-2.81-5.5q1.39-1.43,2.82-2.82l-2.94-2.61-.23-.21A29.44,29.44,0,0,1,16,15l-.64.65Zm.77,8c.06-.08.13-.15.19-.24-1.34-1.08-2.65-2.19-4-3.29l-.27-.23c-.08.1-.17.19-.25.28A25.65,25.65,0,0,1,13,25.13a0,0,0,0,0,0,0c1.47,1.26,3,2.51,4.45,3.76A21.76,21.76,0,0,1,19.21,26.52ZM17.7,12.57l-1.12-1a14,14,0,0,1-1.13-1.05c-.91.91-1.86,1.78-2.8,2.65.78.7,1.55,1.41,2.32,2.12l.66-.67C16.3,14,17,13.19,17.7,12.57Zm-.92,7.69c.41-.43.82-.85,1.24-1.27-1-1-2.06-1.92-3-2.91l-1.21,1.21c-.64.63-1.28,1.27-1.91,1.91L15.19,22C15.72,21.42,16.24,20.83,16.78,20.26Zm-2.15,2.36.15-.17c-1.12-.94-2.24-1.88-3.34-2.85-.76.76-1.49,1.55-2.29,2.27l.38.33c1,.9,2.1,1.79,3.14,2.68.26-.36.58-.7.86-1ZM13.33,17c.41-.43.83-.85,1.25-1.27-.74-.75-1.48-1.5-2.19-2.28-.52.48-1,1-1.54,1.46-.66.63-1.3,1.28-1.94,1.93.86.66,1.71,1.36,2.55,2.05C12.08,18.24,12.72,17.62,13.33,17Zm-2.27,2.29c-.82-.72-1.62-1.45-2.4-2.21l-.08.09c-.74.75-1.45,1.58-2.25,2.27l-.06,0a33.44,33.44,0,0,1,2.6,2.16C9.56,20.81,10.3,20,11.06,19.27Z"/><path class="cls-3" d="M56.47,18.88a1,1,0,0,1,0,.65.9.9,0,0,1-.36.46,1.26,1.26,0,0,1-.7.2,1,1,0,0,1-.37-.06l0,0,0,0a1.6,1.6,0,0,1-.49-.58.88.88,0,0,1,0-.71,1.21,1.21,0,0,1,1.08-.72.93.93,0,0,1,.59.25A1.16,1.16,0,0,1,56.47,18.88Z"/><path class="cls-4" d="M52,32.58a5.49,5.49,0,0,1,0,.81c0,.19-.06.39-.09.59a9.72,9.72,0,0,1-7.36-2.73,7.56,7.56,0,0,1-1.89-3.42,9.27,9.27,0,0,1-.06-3.52h1.15a9,9,0,0,1,1.64.23,10.64,10.64,0,0,1,2.87,1.3l-.55.52c-.63.58-1.29,1.14-1.87,1.77a.19.19,0,0,0-.14.05,1.87,1.87,0,0,0,0,3,1.77,1.77,0,0,0,1.64.2c.65-.26,1-1,1.44-1.5l1.43-2s0,0,0,.06a8.2,8.2,0,0,1,1.61,3A7.06,7.06,0,0,1,52,32.58Z"/><path class="cls-3" d="M50.36,24.86c1-.93,2-1.88,3-2.82-1.18,1.81-2.38,3.61-3.63,5.37l-1.24,1.73c-.37.51-.79,1.34-1.38,1.62a1.17,1.17,0,0,1-1.45-.51A1.4,1.4,0,0,1,45.7,29s0,0,0,0A25.05,25.05,0,0,0,48,27Z"/><path class="cls-3" d="M49.37,46.11c-.17.2-.34.4-.52.59-.09-.09-.21-.18-.31-.27l-.74-.62L46.35,44.6c-.87-.73-1.76-1.4-2.68-2.05a8.89,8.89,0,0,0,1.2-.49c.26.29.57.56.84.82L47,44l1.24,1.1c.21.2.43.39.65.58A2.19,2.19,0,0,0,49.37,46.11Z"/><path class="cls-4" d="M51.49,34.54c-1.87,2.41-3.86,5-6.52,6.56s-6.23,1.42-8.25-1.29c-1.89-2.53-1.68-5.89-.36-8.62a14.92,14.92,0,0,1,2.81-3.88c.92-.94,2.06-1.71,3-2.64a6.38,6.38,0,0,0,0,3.13,8.27,8.27,0,0,0,1.92,3.67A10,10,0,0,0,51.49,34.54Z"/><path class="cls-3" d="M38.57,42.34a6.36,6.36,0,0,0,3.71.54c-1.36,3.95-2.54,7.95-4,11.86-.11.3-.23.58-.34.87l-.08,0a15.34,15.34,0,0,1-10.24-4.4,13.35,13.35,0,0,1-3-4.82A13.74,13.74,0,0,1,24,41.13c3.53-1.65,7.14-3.09,10.66-4.77,0,.2,0,.41.06.62A7.46,7.46,0,0,0,38.57,42.34Z"/><path class="cls-5" d="M37.72,56.16c-.19.5-.37,1-.56,1.48-.13.32-.27.65-.4,1-.37,0-.74,0-1.11,0,.18-.39.35-.78.5-1.17s.37-.88.52-1.33C37,56.13,37.37,56.16,37.72,56.16Z"/><path class="cls-3" d="M24.94,54.17a15.56,15.56,0,0,0,11.59,5c-.24.64-.38,1.17-1.19,1.25a12.82,12.82,0,0,1-5.23-1.1,16.21,16.21,0,0,1-8.28-7.18A16.51,16.51,0,0,1,20,47a15.87,15.87,0,0,1-.23-2.75c0-.63.06-1,.65-1.34.21-.13.43-.24.65-.35a12.53,12.53,0,0,0,.59,5.89A15.55,15.55,0,0,0,24.94,54.17Z"/><path class="cls-5" d="M36.16,56c-.17.4-.31.8-.46,1.2s-.33.87-.46,1.32A13.86,13.86,0,0,1,33,58.21c.19-.41.37-.82.53-1.25s.37-.89.51-1.35A15.34,15.34,0,0,0,36.16,56Z"/><path class="cls-3" d="M34.59,35.53v.29l-.53.16c-1.69-1.36-3.37-2.73-5-4.14-.83-.7-1.66-1.42-2.47-2.14-.44-.39-.87-.79-1.3-1.16a14.55,14.55,0,0,0-1.12-1l.59-.63.07-.08c.72.75,1.53,1.43,2.28,2.14s1.75,1.61,2.62,2.41,1.7,1.56,2.56,2.33A11.37,11.37,0,0,0,34.59,35.53Z"/><path class="cls-5" d="M33.63,55.48c-.18.43-.33.87-.49,1.31s-.31.9-.43,1.35a15.09,15.09,0,0,1-2.37-.82,10,10,0,0,0,.87-1.18l.41-.65a2.27,2.27,0,0,0,.34-.63A17.72,17.72,0,0,0,33.63,55.48Z"/><path class="cls-5" d="M31.57,54.68a2.43,2.43,0,0,0-.37.57l-.4.64a9.92,9.92,0,0,0-.68,1.34A17.14,17.14,0,0,1,27.83,56c.37-.34.72-.7,1.05-1.06l.55-.6.28-.31a2,2,0,0,0,.19-.22A16.88,16.88,0,0,0,31.57,54.68Z"/><path class="cls-5" d="M29.54,53.52a2.09,2.09,0,0,0-.14.17l-.29.31c-.19.21-.37.42-.56.62-.34.37-.67.75-1,1.15a14.86,14.86,0,0,1-1.74-1.43c.33-.29.64-.62.95-.93s.74-.73,1.12-1.08c0,0,0,0,0,0A13.57,13.57,0,0,0,29.54,53.52Z"/><path class="cls-5" d="M27.66,52s0,0,0,0c-.38.35-.75.72-1.11,1.09L26,53.7c-.12.14-.24.28-.35.43l-.24-.24a13.91,13.91,0,0,1-1-1.26,5,5,0,0,0,1.14-.9c.19-.19.37-.39.55-.58a3.92,3.92,0,0,0,.25-.32.87.87,0,0,0,.13-.15c.22.28.45.56.7.82S27.48,51.84,27.66,52Z"/><path class="cls-5" d="M26.19,50.37a.85.85,0,0,0-.19.19l-.25.31c-.17.2-.35.39-.53.57-.33.33-.69.64-1,1A15.65,15.65,0,0,1,23.1,50.6l.36-.25L24,50c.37-.25.75-.46,1.13-.7l.23-.15A14.83,14.83,0,0,0,26.19,50.37Z"/><path class="cls-5" d="M25.18,48.78l-.17.08a7,7,0,0,0-1.13.7c-.2.14-.4.28-.6.45a4.09,4.09,0,0,0-.33.28,16.91,16.91,0,0,1-.74-1.82,3,3,0,0,0,.52-.22l.59-.3.58-.32a5.12,5.12,0,0,0,.57-.3A15,15,0,0,0,25.18,48.78Z"/><path class="cls-5" d="M23.84,45.39a13,13,0,0,0,.46,1.5,4.19,4.19,0,0,0-.59.32l-.6.33-.56.35a4.23,4.23,0,0,0-.42.32,13.11,13.11,0,0,1-.43-1.91,3.11,3.11,0,0,0,.5-.21l.58-.26.58-.25A4,4,0,0,0,23.84,45.39Z"/><path class="cls-5" d="M23.52,43.24A11.51,11.51,0,0,0,23.76,45a3.71,3.71,0,0,0-.55.22l-.61.26a5.86,5.86,0,0,0-.94.54c-.09-.65-.14-1.31-.18-2l.42-.14.62-.25.61-.24Z"/><path class="cls-5" d="M23.62,41.3a9,9,0,0,0-.1,1.56,4.14,4.14,0,0,0-.53.19l-.6.23-.59.25-.34.14c0-.43,0-.85-.07-1.28L22,42.1C22.52,41.83,23.06,41.56,23.62,41.3Z"/><path class="cls-6" d="M50.21,27.93s0,0,0-.06l-.85,1.19.27.59a6.11,6.11,0,0,1,.56,2.14,8.11,8.11,0,0,1-.2,2.08,11.6,11.6,0,0,0,1.95.11c0-.2.07-.4.09-.59a5.49,5.49,0,0,0,0-.81,7.06,7.06,0,0,0-.22-1.66A8.2,8.2,0,0,0,50.21,27.93Z"/><path class="cls-7" d="M49.37,46.11c-.17.2-.34.4-.52.59-.09-.09-.21-.18-.31-.27l-.74-.62L46.35,44.6c-.87-.73-1.76-1.4-2.68-2.05a8.89,8.89,0,0,0,1.2-.49c.26.29.57.56.84.82L47,44l1.24,1.1c.21.2.43.39.65.58A2.19,2.19,0,0,0,49.37,46.11Z"/><path class="cls-6" d="M49.45,35.44a9.26,9.26,0,0,1-4.7,4.36c-1,.5-2.11.91-3.19,1.32-.47.19-1,.34-1.41.57a2.46,2.46,0,0,0-.37.23A6.89,6.89,0,0,0,45,41.1c2.66-1.53,4.65-4.15,6.52-6.56a11.51,11.51,0,0,1-1.66-.15A9.37,9.37,0,0,1,49.45,35.44Z"/><path class="cls-7" d="M39.33,42.64c-.08.23-.16.51-.24.8-.18.63-.38,1.24-.61,1.86-.6,1.6-1.23,3.19-1.84,4.79s-1,3.58-2.19,4.95a18.41,18.41,0,0,0,3.4.55l.08,0c.11-.29.23-.57.34-.87,1.47-3.91,2.65-7.91,4-11.86A6.41,6.41,0,0,1,39.33,42.64Z"/><path class="cls-8" d="M37.72,56.16c-.19.5-.37,1-.56,1.48-.13.32-.27.65-.4,1-.37,0-.74,0-1.11,0,.18-.39.35-.78.5-1.17s.37-.88.52-1.33C37,56.13,37.37,56.16,37.72,56.16Z"/><path class="cls-7" d="M24.94,54.17a15.56,15.56,0,0,0,11.59,5c-.24.64-.38,1.17-1.19,1.25a12.82,12.82,0,0,1-5.23-1.1,16.21,16.21,0,0,1-8.28-7.18A16.51,16.51,0,0,1,20,47a15.87,15.87,0,0,1-.23-2.75c0-.63.06-1,.65-1.34.21-.13.43-.24.65-.35a12.53,12.53,0,0,0,.59,5.89A15.55,15.55,0,0,0,24.94,54.17Z"/><path class="cls-8" d="M36.16,56c-.17.4-.31.8-.46,1.2s-.33.87-.46,1.32A13.86,13.86,0,0,1,33,58.21c.19-.41.37-.82.53-1.25s.37-.89.51-1.35A15.34,15.34,0,0,0,36.16,56Z"/><path class="cls-8" d="M33.37,56a3.86,3.86,0,0,1-2.45.56,8.34,8.34,0,0,1-.58.75,15.09,15.09,0,0,0,2.37.82c.12-.45.27-.9.43-1.35.1-.28.2-.56.31-.84Z"/><path class="cls-8" d="M28.25,55.54c-.14.14-.27.28-.42.41a17.14,17.14,0,0,0,2.29,1.28c.11-.25.22-.5.35-.73A6.6,6.6,0,0,1,28.25,55.54Z"/><path class="cls-8" d="M26.37,54l-.06-.08-.47.44a14.86,14.86,0,0,0,1.74,1.43c.11-.15.24-.3.36-.45A10.85,10.85,0,0,1,26.37,54Z"/><path class="cls-8" d="M23.6,50.26l-.14.09-.36.25a15.65,15.65,0,0,0,1.11,1.83c.15-.17.31-.32.47-.48A18.61,18.61,0,0,1,23.6,50.26Z"/><path class="cls-8" d="M22.27,47c-.08-.28-.14-.57-.2-.86a2.39,2.39,0,0,1-.37.15,13.11,13.11,0,0,0,.43,1.91,2.94,2.94,0,0,1,.41-.31C22.44,47.61,22.35,47.31,22.27,47Z"/><path class="cls-8" d="M21.78,43.93l-.3.11c0,.66.09,1.32.18,2l.34-.22A16.28,16.28,0,0,1,21.78,43.93Z"/></g></g></g></svg>