<svg xmlns="http://www.w3.org/2000/svg" viewBox="0 0 74.82 74.82"><defs><style>.cls-1{isolation:isolate;}.cls-2{fill:#fcf2d6;stroke:#f6da8b;stroke-miterlimit:10;stroke-width:0.68px;}.cls-3,.cls-7{fill:#dc2a2c;}.cls-4,.cls-8{fill:#8bc8fd;}.cls-5,.cls-9{fill:#f1c954;}.cls-6{fill:#fff;}.cls-10,.cls-7,.cls-8,.cls-9{mix-blend-mode:multiply;opacity:0.4;}.cls-10{fill:#d0e9fe;}</style></defs><g class="cls-1"><g id="Шар_2" data-name="Шар 2"><g id="OBJECTS"><rect class="cls-2" x="0.34" y="0.34" width="74.14" height="74.14" rx="3.36"/><path d="M71.26,43.75a.48.48,0,0,1-.15.55,63.85,63.85,0,0,1-14,8,51.3,51.3,0,0,1-27.86,3.33,43.7,43.7,0,0,1-13.43-4.54A57.34,57.34,0,0,1,3.72,42.14a.28.28,0,0,1-.09-.2.32.32,0,0,1,0-.45A33.22,33.22,0,0,1,16.17,33a48.46,48.46,0,0,1,6.26-2,17.08,17.08,0,0,1,1.83-4.36,19.81,19.81,0,0,1,2.63-3.76,13.9,13.9,0,0,1,15.46-3.3c5.11,2,8.85,6.79,10.41,12a.44.44,0,0,1,0,.28,40.24,40.24,0,0,1,18.39,11.6A.49.49,0,0,1,71.26,43.75Zm-1.54.46.49-.35a39.33,39.33,0,0,0-12.25-9c-9.16-4.33-19.76-5.3-29.72-4-8.89,1.14-17.64,4.44-24,11l1.12.88c2.83-4,7.67-6.33,12.12-8A52.27,52.27,0,0,1,46.2,32,46.91,46.91,0,0,1,69.72,44.21Zm-.57.41c-1-1-2.05-1.87-3.12-2.74a4.17,4.17,0,0,1-.66.9,5.69,5.69,0,0,1-.75.72A1.86,1.86,0,0,1,63,44a1.49,1.49,0,0,1-1-1.28,2.62,2.62,0,0,1,.53-1.77,2.68,2.68,0,0,1,1-.93,44.63,44.63,0,0,0-6.17-3.61l-1-.44A7.24,7.24,0,0,1,55.39,38a2.19,2.19,0,0,1-1.45,1,1.32,1.32,0,0,1-1.42-.76,3.24,3.24,0,0,1-.09-1.8,5.92,5.92,0,0,1,.27-1c.09-.24.24-.71.52-.78a.2.2,0,0,1,.11,0,.23.23,0,0,1,.13.14c.06.15,0,.3-.09.44s-.11.3-.16.45a4.78,4.78,0,0,0-.23.94A2.55,2.55,0,0,0,53.05,38a.79.79,0,0,0,1.1.34,2.23,2.23,0,0,0,1-1.05,7.61,7.61,0,0,0,.66-1.56.79.79,0,0,1,0-.09c-.81-.35-1.64-.68-2.48-1a47.53,47.53,0,0,0-8.91-2.34.15.15,0,0,1,0,.07A12.25,12.25,0,0,1,44,34.84a1.94,1.94,0,0,1-1,1.23,1.28,1.28,0,0,1-1.49-.51,3,3,0,0,1-.39-2A5.34,5.34,0,0,1,41.43,32a50,50,0,0,0-9.24-.08s0,0,0,0a6.61,6.61,0,0,1-.1,2.26,2.15,2.15,0,0,1-.75,1.24,1.19,1.19,0,0,1-1.46-.12,3.78,3.78,0,0,1-1-1.49,4.12,4.12,0,0,1-.36-1.47,54.73,54.73,0,0,0-8,1.88,8.16,8.16,0,0,1,.22.92,10.16,10.16,0,0,1,.15,1.22A2.77,2.77,0,0,1,20.65,38a1.28,1.28,0,0,1-1.51.52,2.71,2.71,0,0,1-1.36-1.35,4.27,4.27,0,0,1-.57-1.8c-.19.07-.38.13-.56.21a35.61,35.61,0,0,0-6.07,3.07,5.83,5.83,0,0,1,1,1.83,2.25,2.25,0,0,1-.07,1.73,1.43,1.43,0,0,1-1.37.79,3.23,3.23,0,0,1-1.64-.79,5.65,5.65,0,0,1-.73-.65,2.27,2.27,0,0,1-.39-.47,24.2,24.2,0,0,0-1.76,1.75c2,1.56,3.94,3.11,6,4.54,2.58-2.79,6.54-4.36,10.06-5.58a49.91,49.91,0,0,1,11-2.79A39.14,39.14,0,0,1,44,39.89a50,50,0,0,1,19.78,8l.08.08C65.64,47,67.43,45.84,69.15,44.62ZM65,42.37c.23-.26.42-.56.65-.81-.61-.49-1.23-1-1.86-1.4-.14.18-.29.34-.43.51a4.55,4.55,0,0,0-.51.78,1.58,1.58,0,0,0,0,1.7c.4.49,1,.22,1.47-.09A5.79,5.79,0,0,0,65,42.37ZM45.37,54.73a56.17,56.17,0,0,0,17.69-6.29A44.56,44.56,0,0,0,52.82,43.1a55.75,55.75,0,0,0-9.93-2.66,35,35,0,0,0-11.54-.53,60.38,60.38,0,0,0-10.48,2.85A34.16,34.16,0,0,0,16,44.84a39.66,39.66,0,0,0-4.21,2.71A42.94,42.94,0,0,0,17.54,51,46.21,46.21,0,0,0,45.37,54.73Zm6.5-23.12a19.93,19.93,0,0,0-4.36-7.34C43.81,20.42,38.26,18.44,33,20a12.62,12.62,0,0,0-6.52,4.62,21.47,21.47,0,0,0-2,3.26c-.52,1-.93,2-1.46,3a59.35,59.35,0,0,1,22.37-.71A48.39,48.39,0,0,1,51.87,31.61Zm-8,.82a.31.31,0,0,1,.07-.14c-.69-.11-1.38-.21-2.08-.28,0,.24-.09.49-.14.74a7,7,0,0,0-.09,1.12c0,.6,0,1.49.74,1.71s.91-.46,1.06-.91A11.24,11.24,0,0,0,43.88,32.43ZM31.65,33.67a8.26,8.26,0,0,0,0-1.72l-1,.08c-.6.07-1.2.17-1.8.26a8.5,8.5,0,0,0,.46,1.4c.27.58,1.1,2,1.83,1.13A2.17,2.17,0,0,0,31.65,33.67ZM20,38c.47-.35.42-1.12.38-1.64a9.84,9.84,0,0,0-.15-1.2c-.06-.26-.15-.52-.21-.77-.85.28-1.69.58-2.53.9.13.31.22.63.35,1a6.48,6.48,0,0,0,.53,1C18.69,37.74,19.38,38.46,20,38Zm-9.26,4.36a1.47,1.47,0,0,0,.35-1.63A6.22,6.22,0,0,0,10.16,39a24,24,0,0,0-2.48,1.9,5.37,5.37,0,0,1,.56.51A9.08,9.08,0,0,0,9,42C9.48,42.33,10.2,42.76,10.75,42.36Z"/><path class="cls-3" d="M70.21,43.86l-.49.35A46.91,46.91,0,0,0,46.2,32a52.27,52.27,0,0,0-28.7,2.64c-4.45,1.7-9.29,4-12.12,8l-1.12-.88c6.34-6.51,15.09-9.81,24-11,10-1.28,20.56-.31,29.72,4A39.33,39.33,0,0,1,70.21,43.86Z"/><path class="cls-4" d="M66,41.88c1.07.87,2.12,1.78,3.12,2.74C67.43,45.84,65.64,47,63.81,48l-.08-.08a50,50,0,0,0-19.78-8,39.14,39.14,0,0,0-11.26-.84,49.91,49.91,0,0,0-11,2.79c-3.52,1.22-7.48,2.79-10.06,5.58-2-1.43-4-3-6-4.54a24.2,24.2,0,0,1,1.76-1.75,2.27,2.27,0,0,0,.39.47,5.65,5.65,0,0,0,.73.65,3.23,3.23,0,0,0,1.64.79,1.43,1.43,0,0,0,1.37-.79,2.25,2.25,0,0,0,.07-1.73,5.83,5.83,0,0,0-1-1.83,35.61,35.61,0,0,1,6.07-3.07c.18-.08.37-.14.56-.21a4.27,4.27,0,0,0,.57,1.8,2.71,2.71,0,0,0,1.36,1.35A1.28,1.28,0,0,0,20.65,38a2.77,2.77,0,0,0,.27-1.68,10.16,10.16,0,0,0-.15-1.22,8.16,8.16,0,0,0-.22-.92,54.73,54.73,0,0,1,8-1.88,4.12,4.12,0,0,0,.36,1.47,3.78,3.78,0,0,0,1,1.49,1.19,1.19,0,0,0,1.46.12,2.15,2.15,0,0,0,.75-1.24,6.61,6.61,0,0,0,.1-2.26s0,0,0,0a50,50,0,0,1,9.24.08,5.34,5.34,0,0,0-.31,1.62,3,3,0,0,0,.39,2,1.28,1.28,0,0,0,1.49.51,1.94,1.94,0,0,0,1-1.23,12.25,12.25,0,0,0,.48-2.41.15.15,0,0,0,0-.07,47.53,47.53,0,0,1,8.91,2.34.2.2,0,0,0-.11,0c-.28.07-.43.54-.52.78a5.92,5.92,0,0,0-.27,1,3.24,3.24,0,0,0,.09,1.8,1.32,1.32,0,0,0,1.42.76,2.19,2.19,0,0,0,1.45-1,7.24,7.24,0,0,0,.92-2.07l1,.44A44.63,44.63,0,0,1,63.47,40a2.68,2.68,0,0,0-1,.93A2.62,2.62,0,0,0,62,42.67,1.49,1.49,0,0,0,63,44a1.86,1.86,0,0,0,1.64-.45,5.69,5.69,0,0,0,.75-.72A4.17,4.17,0,0,0,66,41.88Z"/><path class="cls-5" d="M65.61,41.56c-.23.25-.42.55-.65.81a5.79,5.79,0,0,1-.71.69c-.42.31-1.07.58-1.47.09a1.58,1.58,0,0,1,0-1.7,4.55,4.55,0,0,1,.51-.78c.14-.17.29-.33.43-.51C64.38,40.61,65,41.07,65.61,41.56Z"/><path class="cls-5" d="M55.81,35.68a.79.79,0,0,0,0,.09,7.61,7.61,0,0,1-.66,1.56,2.23,2.23,0,0,1-1,1.05.79.79,0,0,1-1.1-.34A2.55,2.55,0,0,1,53,36.67a4.78,4.78,0,0,1,.23-.94c0-.15.1-.3.16-.45s.15-.29.09-.44a.23.23,0,0,0-.13-.14C54.17,35,55,35.33,55.81,35.68Z"/><path class="cls-3" d="M63.06,48.44a56.17,56.17,0,0,1-17.69,6.29A46.21,46.21,0,0,1,17.54,51a42.94,42.94,0,0,1-5.74-3.44A39.66,39.66,0,0,1,16,44.84a34.16,34.16,0,0,1,4.86-2.08,60.38,60.38,0,0,1,10.48-2.85,35,35,0,0,1,11.54.53,55.75,55.75,0,0,1,9.93,2.66A44.56,44.56,0,0,1,63.06,48.44Z"/><path class="cls-6" d="M47.51,24.27a19.93,19.93,0,0,1,4.36,7.34,48.39,48.39,0,0,0-6.5-1.45A59.35,59.35,0,0,0,23,30.87c.53-1,.94-2,1.46-3a21.47,21.47,0,0,1,2-3.26A12.62,12.62,0,0,1,33,20C38.26,18.44,43.81,20.42,47.51,24.27Z"/><path class="cls-5" d="M44,32.29a.31.31,0,0,0-.07.14,11.24,11.24,0,0,1-.44,2.24c-.15.45-.49,1.1-1.06.91s-.74-1.11-.74-1.71a7,7,0,0,1,.09-1.12c.05-.25.09-.5.14-.74C42.57,32.08,43.26,32.18,44,32.29Z"/><path class="cls-5" d="M31.68,32a8.26,8.26,0,0,1,0,1.72,2.17,2.17,0,0,1-.44,1.15c-.73.85-1.56-.55-1.83-1.13a8.5,8.5,0,0,1-.46-1.4c.6-.09,1.2-.19,1.8-.26Z"/><path class="cls-5" d="M20.39,36.36c0,.52.09,1.29-.38,1.64-.63.46-1.32-.26-1.63-.75a6.48,6.48,0,0,1-.53-1c-.13-.32-.22-.64-.35-1,.84-.32,1.68-.62,2.53-.9.06.25.15.51.21.77A9.84,9.84,0,0,1,20.39,36.36Z"/><path class="cls-5" d="M11.1,40.73a1.47,1.47,0,0,1-.35,1.63c-.55.4-1.27,0-1.74-.36a9.08,9.08,0,0,1-.77-.62,5.37,5.37,0,0,0-.56-.51A24,24,0,0,1,10.16,39,6.22,6.22,0,0,1,11.1,40.73Z"/><path class="cls-7" d="M44.28,30.89a59.4,59.4,0,0,0-10-.52A94.84,94.84,0,0,1,44.28,30.89Z"/><path class="cls-7" d="M64.54,38.79c-.18.24-.37.48-.56.71a44,44,0,0,1,5.74,4.71l.49-.35A38.42,38.42,0,0,0,64.54,38.79Z"/><path class="cls-7" d="M6,40.2c-.58.52-1.16,1-1.7,1.61l1.12.88a14.49,14.49,0,0,1,1.47-1.75Z"/><path class="cls-8" d="M66,41.88a4.17,4.17,0,0,1-.66.9,5.69,5.69,0,0,1-.75.72A1.86,1.86,0,0,1,63,44a1.49,1.49,0,0,1-1-1.28,2.53,2.53,0,0,1,.27-1.34,22.32,22.32,0,0,1-4.13,3l-.21.11a44.39,44.39,0,0,1,5.82,3.46l.08.08c1.83-1.05,3.62-2.18,5.34-3.4C68.15,43.66,67.1,42.75,66,41.88Z"/><path class="cls-8" d="M10.62,43.83a33.43,33.43,0,0,1-3.38-2.57Q6.4,42,5.62,42.88c2,1.56,3.94,3.11,6,4.54a13.41,13.41,0,0,1,2.28-2A20,20,0,0,1,10.62,43.83Z"/><path class="cls-9" d="M65.61,41.56c-.23.25-.42.55-.65.81a5.79,5.79,0,0,1-.71.69c-.42.31-1.07.58-1.47.09a1.58,1.58,0,0,1,0-1.7,4.55,4.55,0,0,1,.51-.78c.14-.17.29-.33.43-.51C64.38,40.61,65,41.07,65.61,41.56Z"/><path class="cls-7" d="M31.26,49.74a72,72,0,0,1-14-3.1c-.89-.29-1.8-.59-2.69-.93-.93.59-1.83,1.21-2.72,1.84A42.94,42.94,0,0,0,17.54,51a46.21,46.21,0,0,0,27.83,3.74,56.17,56.17,0,0,0,17.69-6.29,43,43,0,0,0-6-3.51A45.49,45.49,0,0,1,31.26,49.74Z"/><path class="cls-10" d="M47.51,24.27a15.57,15.57,0,0,0-8.7-4.64c.26.25.51.51.75.79a48.89,48.89,0,0,1,3.83,5.41,1.48,1.48,0,0,1,.12,1.35c0,1.38-1.62,2.12-3,2.18A34,34,0,0,1,35,28.78a40.05,40.05,0,0,0-6.29-.21A30.43,30.43,0,0,0,24,28.9c-.31.66-.61,1.33-.95,2a59.35,59.35,0,0,1,22.37-.71,48.39,48.39,0,0,1,6.5,1.45A19.93,19.93,0,0,0,47.51,24.27Z"/></g></g></g></svg>