<svg xmlns="http://www.w3.org/2000/svg" viewBox="0 0 74.82 74.82"><defs><style>.cls-1{isolation:isolate;}.cls-2{fill:#fcf2d6;stroke:#f6da8b;stroke-miterlimit:10;stroke-width:0.68px;}.cls-3,.cls-9{fill:#f1c954;}.cls-10,.cls-4{fill:#e16c36;}.cls-11,.cls-5{fill:#8bc8fd;}.cls-12,.cls-6{fill:#3b67b1;}.cls-7{fill:#fff;}.cls-14,.cls-8{fill:#dc2a2c;}.cls-10,.cls-11,.cls-12,.cls-13,.cls-14,.cls-9{mix-blend-mode:multiply;opacity:0.4;}.cls-13{fill:#d0e9fe;}</style></defs><g class="cls-1"><g id="Шар_2" data-name="Шар 2"><g id="OBJECTS"><rect class="cls-2" x="0.34" y="0.34" width="74.14" height="74.14" rx="3.36"/><path d="M67.72,3.87A25.12,25.12,0,0,1,65.78,15,13.73,13.73,0,0,1,61.48,21c.44-.08.89-.17,1.33-.29a.41.41,0,0,1,.45.59,22.61,22.61,0,0,1-11.47,9.35c.49.69,1,1.41,1.39,2.13v0a.44.44,0,0,1,.08.65,9.72,9.72,0,0,1-4.53,2.62c-1,.34-2,.66-3,1-.74.24-1.5.54-2.28.71A149.31,149.31,0,0,1,54.22,50.9s0,0,0,.06a.27.27,0,0,1,.17.4,16.06,16.06,0,0,1-2.8,3.3,37.47,37.47,0,0,1-3.3,2.87,38.55,38.55,0,0,1-7.45,4.54.49.49,0,0,1-.71-.29,32,32,0,0,1-1.53-11l-.11.12C30.23,60.23,20.08,68.76,7.58,71.33a.41.41,0,0,1-.5-.5A90,90,0,0,1,9.83,60.12a91.63,91.63,0,0,1,7.91-17.83q1.8-3.1,3.83-6a36.08,36.08,0,0,1-10.42-3,.46.46,0,0,1-.16-.61A53.88,53.88,0,0,1,15.66,27c.84-.88,1.73-1.73,2.64-2.55a14.74,14.74,0,0,1,2.83-2.28.26.26,0,0,1,.27,0,26.31,26.31,0,0,1,4.54,2.1c1.48.78,3,1.59,4.39,2.45.93.56,1.82,1.16,2.71,1.79a23.73,23.73,0,0,1,3.78-10.1.37.37,0,0,1,.48-.13c.83.41,1.66.85,2.47,1.32a15.15,15.15,0,0,1,.66-7.72c.08-.23.46-.35.58-.07a29.72,29.72,0,0,0,1.43,2.67C43.77,10.15,46.6,6,51.19,4.8c5.19-1.36,11.13,1.83,15.94-1.27A.41.41,0,0,1,67.72,3.87ZM65.26,14.14A24.33,24.33,0,0,0,67,4.53c-4.26,2.29-9.24.32-13.8.69-5.55.46-8.89,5.23-10.28,10.2a.35.35,0,0,1-.62.08,28.89,28.89,0,0,1-1.46-2.67,16.79,16.79,0,0,0-.5,7.09c.41.24.81.5,1.21.76A22.5,22.5,0,0,1,41,17.39c0-.27.34-.32.47-.13a11.06,11.06,0,0,0,1.62,1.91c.52-4,2.54-8,6.71-9,4.41-1.14,9.53.92,13.57-1.67.29-.19.58.12.54.4a21.11,21.11,0,0,1-8.19,13.71l2.38.47a.39.39,0,0,1,.18.66,18.28,18.28,0,0,1-8.06,4.85c.38.47.75,1,1.12,1.45a.33.33,0,0,1,.1-.06A22.5,22.5,0,0,0,62,21.68a16,16,0,0,1-2.68.34c-.48,0-.53-.67-.1-.81C62.33,20.14,64.11,17,65.26,14.14ZM54.51,22.46a20.82,20.82,0,0,0,8.57-13c-3.53,1.77-7.69.65-11.48,1a7.84,7.84,0,0,0-5.79,3.12,13.53,13.53,0,0,0-2.16,6.15.31.31,0,0,1-.52.22,10.15,10.15,0,0,1-1.59-1.75,21.13,21.13,0,0,0,.31,2.64,38.24,38.24,0,0,1,7.84,7,17.56,17.56,0,0,0,7.5-4.23l-2.58-.47C54.23,23.15,54.24,22.65,54.51,22.46ZM51,54c.85-.81,1.63-1.72,2.48-2.52-2-2.49-3.9-5-5.93-7.52l-1.68-2a.34.34,0,0,1-.08.33c-2,2.56-4.13,5.09-6.28,7.56a.35.35,0,0,1,0,.21A31.53,31.53,0,0,0,40.91,61a39.85,39.85,0,0,0,6.73-4.11A36.13,36.13,0,0,0,51,54Zm-.78-19.46a8.79,8.79,0,0,0,2.24-1.5A37.34,37.34,0,0,0,37.25,19c-.31.51-.61,1-.89,1.55a19.48,19.48,0,0,1,4,2.51,34.33,34.33,0,0,1,3.76,3.26A32.45,32.45,0,0,1,50.18,34.56Zm-2,.8c.43-.15.85-.31,1.27-.48a42.93,42.93,0,0,0-5.89-8A38.78,38.78,0,0,0,40,23.6c-1.22-1-2.54-1.82-3.75-2.79a24.92,24.92,0,0,0-1.34,2.93c-.13.35-.24.7-.35,1.05,1.23.66,2.41,1.51,3.56,2.28s2.24,1.63,3.3,2.52a31.24,31.24,0,0,1,5.74,6.14Zm-2.78,1c.32-.13.64-.23,1-.35a39,39,0,0,0-5.55-6c-1.05-.91-2.14-1.78-3.23-2.64s-2.12-1.51-3.15-2.32c-.37,1.25-.65,2.51-1,3.78A66.44,66.44,0,0,1,43,37.29,18.14,18.14,0,0,1,45.43,36.36Zm-.2,5.41a.27.27,0,0,1,.34-.1,81.31,81.31,0,0,0-9.73-9.82,57.54,57.54,0,0,0-6.31-4.53c-2.26,2.79-4.57,5.52-6.64,8.45A91.64,91.64,0,0,0,13,54a10.62,10.62,0,0,1,3.31,1.16,16.58,16.58,0,0,1,3.22,2.18,15.11,15.11,0,0,1,4.32,5.94C32.15,57.54,38.85,49.64,45.23,41.77ZM29,27l-.33-.2c-1.25-.77-2.52-1.5-3.81-2.21a30.65,30.65,0,0,1-3.4-2h0a29.56,29.56,0,0,1-2.6,2.4c-.87.82-1.7,1.67-2.51,2.54a55.65,55.65,0,0,0-4.27,5.18,36.81,36.81,0,0,0,10,2.75l.07,0,1-1.37A64.49,64.49,0,0,1,29,27ZM22,64.47c.37-.25.74-.5,1.12-.74a17.89,17.89,0,0,0-1.6-3A16.53,16.53,0,0,0,19,57.9a15.65,15.65,0,0,0-3.1-2.19c-1-.54-2.09-.89-3.14-1.33-.11.25-.21.51-.32.77a10.91,10.91,0,0,1,3,1.41,16.1,16.1,0,0,1,2.93,2.34,16.52,16.52,0,0,1,2.31,3,15.24,15.24,0,0,1,.91,1.75C21.75,63.85,21.92,64.16,22,64.47Zm-.76.47c-.17-.36-.28-.83-.41-1.14a15,15,0,0,0-3-4.47A15.62,15.62,0,0,0,15.07,57a25.66,25.66,0,0,0-2.75-1.43A89.65,89.65,0,0,0,8,70.41a41.7,41.7,0,0,0,9.25-3.26Q19.32,66.13,21.27,64.94Z"/><path class="cls-3" d="M67,4.53a24.33,24.33,0,0,1-1.7,9.61c-1.15,2.87-2.93,6-6,7.07-.43.14-.38.83.1.81A16,16,0,0,0,62,21.68,22.5,22.5,0,0,1,51.46,30a.33.33,0,0,0-.1.06c-.37-.49-.74-1-1.12-1.45a18.28,18.28,0,0,0,8.06-4.85.39.39,0,0,0-.18-.66l-2.38-.47A21.11,21.11,0,0,0,63.93,8.88c0-.28-.25-.59-.54-.4-4,2.59-9.16.53-13.57,1.67-4.17,1.07-6.19,5-6.71,9a11.06,11.06,0,0,1-1.62-1.91c-.13-.19-.49-.14-.47.13a22.5,22.5,0,0,0,.49,3.29c-.4-.26-.8-.52-1.21-.76a16.79,16.79,0,0,1,.5-7.09,28.89,28.89,0,0,0,1.46,2.67.35.35,0,0,0,.62-.08c1.39-5,4.73-9.74,10.28-10.2C57.72,4.85,62.7,6.82,67,4.53Z"/><path class="cls-4" d="M63.08,9.48a20.82,20.82,0,0,1-8.57,13c-.27.19-.28.69.1.76l2.58.47a17.56,17.56,0,0,1-7.5,4.23,38.24,38.24,0,0,0-7.84-7,21.13,21.13,0,0,1-.31-2.64A10.15,10.15,0,0,0,43.13,20a.31.31,0,0,0,.52-.22,13.53,13.53,0,0,1,2.16-6.15,7.84,7.84,0,0,1,5.79-3.12C55.39,10.13,59.55,11.25,63.08,9.48Z"/><path class="cls-5" d="M53.44,51.5c-.85.8-1.63,1.71-2.48,2.52a36.13,36.13,0,0,1-3.32,2.85A39.85,39.85,0,0,1,40.91,61a31.53,31.53,0,0,1-1.4-10.92.35.35,0,0,0,0-.21c2.15-2.47,4.23-5,6.28-7.56a.34.34,0,0,0,.08-.33l1.68,2C49.54,46.46,51.44,49,53.44,51.5Z"/><path class="cls-6" d="M52.42,33.06a8.79,8.79,0,0,1-2.24,1.5,32.45,32.45,0,0,0-6-8.2,34.33,34.33,0,0,0-3.76-3.26,19.48,19.48,0,0,0-4-2.51c.28-.53.58-1,.89-1.55A37.34,37.34,0,0,1,52.42,33.06Z"/><path class="cls-6" d="M49.48,34.88c-.42.17-.84.33-1.27.48l-1.05.37a31.24,31.24,0,0,0-5.74-6.14c-1.06-.89-2.16-1.74-3.3-2.52s-2.33-1.62-3.56-2.28c.11-.35.22-.7.35-1.05a24.92,24.92,0,0,1,1.34-2.93c1.21,1,2.53,1.81,3.75,2.79a38.78,38.78,0,0,1,3.59,3.32A42.93,42.93,0,0,1,49.48,34.88Z"/><path class="cls-6" d="M46.4,36c-.33.12-.65.22-1,.35a18.14,18.14,0,0,0-2.41.93,66.44,66.44,0,0,0-9.51-8.46c.31-1.27.59-2.53,1-3.78,1,.81,2.13,1.51,3.15,2.32S39.8,29.1,40.85,30A39,39,0,0,1,46.4,36Z"/><path class="cls-7" d="M45.57,41.67a.27.27,0,0,0-.34.1C38.85,49.64,32.15,57.54,23.8,63.29a15.11,15.11,0,0,0-4.32-5.94,16.58,16.58,0,0,0-3.22-2.18A10.62,10.62,0,0,0,13,54a91.64,91.64,0,0,1,9.94-18.24c2.07-2.93,4.38-5.66,6.64-8.45a57.54,57.54,0,0,1,6.31,4.53A81.31,81.31,0,0,1,45.57,41.67ZM30.2,52.91a6.48,6.48,0,0,0,3.61-7,6.68,6.68,0,0,0-5.6-5.24,7.2,7.2,0,0,0-6.45,2.63.25.25,0,0,0-.16.21,6.56,6.56,0,0,0-.54.83,6.89,6.89,0,0,0-.67,4.87,6.09,6.09,0,0,0,1.95,3.15l0,0a5.18,5.18,0,0,0,.66.52.18.18,0,0,0,.09.1s.05,0,.08,0C25.28,54.33,28.06,54,30.2,52.91Z"/><path d="M33.81,45.93a6.48,6.48,0,0,1-3.61,7c-2.14,1.06-4.92,1.42-7,.15,0,0-.05,0-.08,0a.18.18,0,0,1-.09-.1,5.18,5.18,0,0,1-.66-.52l0,0a6.09,6.09,0,0,1-1.95-3.15,6.89,6.89,0,0,1,.67-4.87,6.56,6.56,0,0,1,.54-.83.25.25,0,0,1,.16-.21,7.2,7.2,0,0,1,6.45-2.63A6.68,6.68,0,0,1,33.81,45.93Zm-.71,2.36A5.27,5.27,0,0,0,32.27,44l-.12.09-.29.17-.3.17a1.88,1.88,0,0,1-.3.12,5.09,5.09,0,0,1,.49,1.25,5.22,5.22,0,0,1,0,2.36,8.08,8.08,0,0,1,.85.05Zm-.14.55h0l-.49-.1a6,6,0,0,1-.83-.24A4.86,4.86,0,0,1,29.92,51a4.27,4.27,0,0,1-.73.46,1.07,1.07,0,0,1,.07.19c0,.09.1.22.15.33a3.9,3.9,0,0,1,.19.35l.06.11a8.26,8.26,0,0,0,1.13-.64A5.57,5.57,0,0,0,33,48.84Zm-1.11-5.27.07,0a6.33,6.33,0,0,0-4.12-2.2h0c0,.13,0,.26,0,.39v.42c0,.06,0,.14,0,.22A4.5,4.5,0,0,1,31,44.21a.52.52,0,0,1,.1-.11l.13-.11c.1-.07.2-.16.31-.23Zm-2,6.55A4.45,4.45,0,0,0,31,45.59a3.92,3.92,0,0,0-4.66-2.49,4.56,4.56,0,0,0-3.6,3.56,4.36,4.36,0,0,0,.8,3.46l0,0,.46.43a7.12,7.12,0,0,0,1,.69A5.38,5.38,0,0,0,29.82,50.12Zm-.56,2.46,0-.06c-.07-.12-.14-.24-.2-.37l-.18-.38-.06-.15a5.52,5.52,0,0,1-4.4,0,.19.19,0,0,1-.08-.07,2.39,2.39,0,0,1-.13.28c-.07.13-.15.26-.23.39l-.29.46A6.82,6.82,0,0,0,29.26,52.58Zm-2.2-10.23a2,2,0,0,1,.35,0c0-.08,0-.15,0-.21l0-.4c0-.13,0-.27,0-.4a.09.09,0,0,1,0-.05l-.14,0a6.65,6.65,0,0,0-4.89,2.3l0,.05a.27.27,0,0,1,.08.07h0l0,0,.17.12.39.24.19.12h0A5.25,5.25,0,0,1,27.06,42.35Zm-3.24,9.22a3.27,3.27,0,0,1,.24-.27,4.44,4.44,0,0,1-1.75-2.4l-.19.07-.43.15a2.7,2.7,0,0,1-.43.13l-.3.1c0,.1.05.19.09.29A6,6,0,0,0,22.64,52a.18.18,0,0,1,.11,0,3.43,3.43,0,0,0,.49.36c.1-.15.21-.3.31-.46Zm-.89-7-.17-.07a3.07,3.07,0,0,1-.39-.23c-.15-.1-.28-.2-.42-.31h0a6.33,6.33,0,0,0-.82,1.54,6.17,6.17,0,0,0-.2,3.68l.25-.19a2.16,2.16,0,0,1,.39-.22,3,3,0,0,1,.44-.16,1,1,0,0,1,.23-.06,4.83,4.83,0,0,1,.1-2.82A5.23,5.23,0,0,1,22.93,44.62Z"/><path class="cls-6" d="M32.92,45.23a5.52,5.52,0,0,1,.18,3.06l-.52-.08a8.08,8.08,0,0,0-.85-.05,5.22,5.22,0,0,0,0-2.36,5.09,5.09,0,0,0-.49-1.25,1.88,1.88,0,0,0,.3-.12l.3-.17.29-.17.12-.09A5.56,5.56,0,0,1,32.92,45.23Z"/><path class="cls-6" d="M33,48.84h0a5.57,5.57,0,0,1-2.17,2.93,8.26,8.26,0,0,1-1.13.64l-.06-.11a3.9,3.9,0,0,0-.19-.35c-.05-.11-.1-.24-.15-.33a1.07,1.07,0,0,0-.07-.19,4.27,4.27,0,0,0,.73-.46,4.86,4.86,0,0,0,1.72-2.47,6,6,0,0,0,.83.24Z"/><path class="cls-6" d="M31.92,43.53l-.07,0-.28.19c-.11.07-.21.16-.31.23l-.13.11a.52.52,0,0,0-.1.11,4.5,4.5,0,0,0-3.24-1.84c0-.08,0-.16,0-.22v-.42c0-.13,0-.26,0-.39h0A6.33,6.33,0,0,1,31.92,43.53Z"/><path class="cls-3" d="M31,45.59a4.45,4.45,0,0,1-1.13,4.53A5.38,5.38,0,0,1,25,51.27a7.12,7.12,0,0,1-1-.69l-.46-.43,0,0a4.36,4.36,0,0,1-.8-3.46,4.56,4.56,0,0,1,3.6-3.56A3.92,3.92,0,0,1,31,45.59Z"/><path class="cls-6" d="M29.22,52.52l0,.06a6.82,6.82,0,0,1-5.61.08l.29-.46c.08-.13.16-.26.23-.39a2.39,2.39,0,0,0,.13-.28.19.19,0,0,0,.08.07,5.52,5.52,0,0,0,4.4,0l.06.15.18.38C29.08,52.28,29.15,52.4,29.22,52.52Z"/><path class="cls-5" d="M28.66,26.78,29,27a64.49,64.49,0,0,0-5.9,7.11l-1,1.37-.07,0a36.81,36.81,0,0,1-10-2.75,55.65,55.65,0,0,1,4.27-5.18c.81-.87,1.64-1.72,2.51-2.54a29.56,29.56,0,0,0,2.6-2.4h0a30.65,30.65,0,0,0,3.4,2C26.14,25.28,27.41,26,28.66,26.78Z"/><path class="cls-6" d="M27.41,42.36a2,2,0,0,0-.35,0,5.25,5.25,0,0,0-3.83,1.88h0L23,44.1l-.39-.24-.17-.12,0,0h0a.27.27,0,0,0-.08-.07l0-.05a6.65,6.65,0,0,1,4.89-2.3l.14,0a.09.09,0,0,0,0,.05c0,.13,0,.27,0,.4l0,.4C27.4,42.21,27.4,42.28,27.41,42.36Z"/><path class="cls-6" d="M24.06,51.3a3.27,3.27,0,0,0-.24.27l-.27.38c-.1.16-.21.31-.31.46a3.43,3.43,0,0,1-.49-.36.18.18,0,0,0-.11,0,6,6,0,0,1-1.59-2.36c0-.1-.06-.19-.09-.29l.3-.1a2.7,2.7,0,0,0,.43-.13l.43-.15.19-.07A4.44,4.44,0,0,0,24.06,51.3Z"/><path class="cls-6" d="M23.15,63.73c-.38.24-.75.49-1.12.74-.11-.31-.28-.62-.39-.87a15.24,15.24,0,0,0-.91-1.75,16.52,16.52,0,0,0-2.31-3,16.1,16.1,0,0,0-2.93-2.34,10.91,10.91,0,0,0-3-1.41c.11-.26.21-.52.32-.77,1,.44,2.12.79,3.14,1.33A15.65,15.65,0,0,1,19,57.9a16.53,16.53,0,0,1,2.51,2.84A17.89,17.89,0,0,1,23.15,63.73Z"/><path class="cls-6" d="M22.76,44.55l.17.07a5.23,5.23,0,0,0-.6,1.15,4.83,4.83,0,0,0-.1,2.82,1,1,0,0,0-.23.06,3,3,0,0,0-.44.16,2.16,2.16,0,0,0-.39.22l-.25.19a6.17,6.17,0,0,1,.2-3.68A6.33,6.33,0,0,1,21.94,44h0c.14.11.27.21.42.31A3.07,3.07,0,0,0,22.76,44.55Z"/><path class="cls-8" d="M20.86,63.8c.13.31.24.78.41,1.14q-1.95,1.19-4,2.21A41.7,41.7,0,0,1,8,70.41a89.65,89.65,0,0,1,4.32-14.83A25.66,25.66,0,0,1,15.07,57a15.62,15.62,0,0,1,2.81,2.32,15,15,0,0,1,3,4.47Z"/><path class="cls-9" d="M41.49,17.26a11.06,11.06,0,0,0,1.62,1.91c.52-4,2.54-8,6.71-9,4.41-1.14,9.53.92,13.57-1.67.29-.19.58.12.54.4s-.06.32-.08.48c1-.31,1.95-.65,2.91-1A25.74,25.74,0,0,0,67,4.53c-4.26,2.29-9.24.32-13.8.69-5.55.46-8.89,5.23-10.28,10.2a.35.35,0,0,1-.62.08,28.89,28.89,0,0,1-1.46-2.67,16.79,16.79,0,0,0-.5,7.09c.41.24.81.5,1.21.76A22.5,22.5,0,0,1,41,17.39C41,17.12,41.36,17.07,41.49,17.26Z"/><path class="cls-10" d="M45,22.11a7,7,0,0,1,1.38-7,12.82,12.82,0,0,1,5.94-3.33,55.88,55.88,0,0,1,6.78-1.29l.51-.1c-2.62.26-5.39-.18-8,.09a7.84,7.84,0,0,0-5.79,3.12,13.53,13.53,0,0,0-2.16,6.15.31.31,0,0,1-.52.22,10.15,10.15,0,0,1-1.59-1.75,21.13,21.13,0,0,0,.31,2.64,38.25,38.25,0,0,1,5,4.05A8.06,8.06,0,0,1,45,22.11Z"/><path class="cls-11" d="M39.48,51.65c.18-.29.35-.58.54-.87,1.77-2.75,4.75-6.29,8.36-4.34,2.09,1.13,3.46,3.41,4.55,5.57l.51-.51c-2-2.49-3.9-5-5.93-7.52l-1.68-2a.34.34,0,0,1-.08.33c-2,2.56-4.13,5.09-6.28,7.56a.35.35,0,0,1,0,.21Q39.48,50.86,39.48,51.65Z"/><path class="cls-12" d="M44,26.21c3,1.84,5.18,5,6.75,8.06a7.68,7.68,0,0,0,1.69-1.21A37.27,37.27,0,0,0,37.25,19c-.31.51-.61,1-.89,1.55a19.48,19.48,0,0,1,4,2.51A34.31,34.31,0,0,1,44,26.21Z"/><path class="cls-12" d="M41.81,25.17c-.59-.54-1.19-1.07-1.81-1.57-1.22-1-2.54-1.82-3.75-2.79a24.92,24.92,0,0,0-1.34,2.93c-.13.35-.24.7-.35,1.05a29.22,29.22,0,0,1,2.58,1.62A4.07,4.07,0,0,1,41.81,25.17Z"/><path class="cls-12" d="M38.71,32.81a8.45,8.45,0,0,1-2.05-2.87,3.92,3.92,0,0,1,.22-3.11c-.8-.59-1.62-1.16-2.41-1.78-.37,1.25-.65,2.51-1,3.78a62.64,62.64,0,0,1,7.69,6.59C40.37,34.55,39.55,33.67,38.71,32.81Z"/><path class="cls-13" d="M35.84,31.85a57.54,57.54,0,0,0-6.31-4.53c-2.26,2.79-4.57,5.52-6.64,8.45A91.64,91.64,0,0,0,13,54a10,10,0,0,1,3,1c1-2.1,2.13-4.17,3.29-6.17.33-.57.67-1.13,1-1.68a7.21,7.21,0,0,1,.83-2.8,6.56,6.56,0,0,1,.54-.83.25.25,0,0,1,.16-.21A7.45,7.45,0,0,1,24,41.51l.83-1.18c1.05-1.45,2.15-2.86,3.34-4.2,1-1.1,2-2.36,3.54-2.62a5.67,5.67,0,0,1,3.92,1.12A37.32,37.32,0,0,1,39,37.05c2,1.61,4.64,4.19,3.87,7.07a5.33,5.33,0,0,1-.32.87c.89-1.07,1.77-2.15,2.64-3.22a.27.27,0,0,1,.34-.1A81.31,81.31,0,0,0,35.84,31.85Z"/><path class="cls-11" d="M28.66,26.78,29,27a64.49,64.49,0,0,0-5.9,7.11l-1,1.37-.07,0a36.81,36.81,0,0,1-10-2.75,55.65,55.65,0,0,1,4.27-5.18c.81-.87,1.64-1.72,2.51-2.54a29.56,29.56,0,0,0,2.6-2.4h0a30.65,30.65,0,0,0,3.4,2C26.14,25.28,27.41,26,28.66,26.78Z"/><path class="cls-12" d="M15.66,55.58c-.93-.47-1.91-.8-2.86-1.2-.11.25-.21.51-.32.77a10.45,10.45,0,0,1,2.78,1.27C15.39,56.14,15.52,55.86,15.66,55.58Z"/><path class="cls-14" d="M15,57a27.36,27.36,0,0,0-2.69-1.39A89.65,89.65,0,0,0,8,70.41c.91-.2,1.82-.45,2.71-.71A64.26,64.26,0,0,1,15,57Z"/></g></g></g></svg>