<svg xmlns="http://www.w3.org/2000/svg" viewBox="0 0 74.82 74.82"><defs><style>.cls-1{isolation:isolate;}.cls-2{fill:#fcf2d6;stroke:#f6da8b;stroke-miterlimit:10;stroke-width:0.68px;}.cls-3,.cls-6{fill:#8bc8fd;}.cls-4,.cls-7{fill:#3b67b1;}.cls-5,.cls-8{fill:#f1c954;}.cls-6,.cls-7,.cls-8{mix-blend-mode:multiply;opacity:0.4;}</style></defs><g class="cls-1"><g id="Шар_2" data-name="Шар 2"><g id="OBJECTS"><rect class="cls-2" x="0.34" y="0.34" width="74.14" height="74.14" rx="3.36"/><path d="M58.1,18.3a30.3,30.3,0,0,1,.7,8,35,35,0,0,1-1.31,8.07c-.82,2.79-1.87,5.53-2.83,8.27,0,0,0,0,0,0a.35.35,0,0,1,0,.23,50.44,50.44,0,0,1-.54,5.5c-.25,1.87-.55,3.73-.88,5.59q-1.06,6-2.68,11.87a.31.31,0,0,1-.6-.08A205.65,205.65,0,0,1,50.83,43h-.21a29.89,29.89,0,0,1-3.77-.37,43.69,43.69,0,0,1-6.39-1.43s0,.05,0,.08c-2.36,5.41-4.79,10.79-7.19,16.18-.17.37-.74.1-.64-.26.77-2.94,1.63-5.87,2.57-8.76a71.82,71.82,0,0,1,2.89-8,38,38,0,0,1-9.66-5c-2,2.9-4,5.77-6.07,8.65-1,1.42-2,2.85-3,4.27a10.21,10.21,0,0,1-2.8,3.12A.38.38,0,0,1,16,51q2.26-4.55,4.69-9a86.78,86.78,0,0,1,5.12-8.74.25.25,0,0,1-.05-.15,37.17,37.17,0,0,1,6-15.58,24.93,24.93,0,0,1,4.79-5.83,13.69,13.69,0,0,1,6.52-2.63c4.35-.71,9.4-.55,12.37,3.22A14.77,14.77,0,0,1,58.1,18.3Zm-.16,9.83c.08-.92.13-1.85.12-2.78,0-4.4-.48-10-3.75-13.32S45.5,9.09,41.38,10.17A11.69,11.69,0,0,0,35.32,14a39,39,0,0,0-4.15,6v0c2,1.06,3.84,2.35,5.81,3.42a47.53,47.53,0,0,0,6.6,3A28.67,28.67,0,0,0,57.94,28.13Zm-.2,1.78c.06-.39.11-.79.15-1.19A28.82,28.82,0,0,1,43.57,27a50.19,50.19,0,0,1-6.7-3.1A45.34,45.34,0,0,1,31,20.28c-.22.4-.45.81-.65,1.21,2,1.27,3.91,2.64,6,3.73A46,46,0,0,0,43.19,28a45.83,45.83,0,0,0,14.53,1.93ZM56.86,34a33,33,0,0,0,.78-3.52,40.11,40.11,0,0,1-14.75-2,42.05,42.05,0,0,1-6.75-2.86,30,30,0,0,1-5.92-3.87,54,54,0,0,0-3.9,11.38.18.18,0,0,1,0,.1c2.06,1.32,4.06,2.72,6.23,3.89a43.92,43.92,0,0,0,6.94,3,44.79,44.79,0,0,0,7.32,1.74c1.28.19,2.57.29,3.85.4s2.27,0,3.39,0C55,39.58,56.05,36.85,56.86,34Zm-3.3,14c.22-1.64.36-3.31.62-4.95a15.9,15.9,0,0,1-2.76,0q-1,10.19-.91,20.43c.81-3.13,1.52-6.29,2.1-9.48C53,52,53.27,50,53.56,48Zm-13.7-7-.6-.18-.74-.26c-.81,2.76-1.91,5.45-2.77,8.2-.43,1.4-.86,2.81-1.26,4.22C36.26,49,38,45,39.86,41Zm-12-5.95s0,0,0,0c-.64-.51-1.27-1-1.86-1.61-1.38,3-3.15,5.95-4.71,8.9-1.27,2.41-2.51,4.82-3.74,7.25.63-.77,1.15-1.64,1.7-2.42l2.82-4C24,40.49,25.92,37.78,27.87,35.09Z"/><path class="cls-3" d="M58.06,25.35c0,.93,0,1.86-.12,2.78a28.67,28.67,0,0,1-14.37-1.67,47.53,47.53,0,0,1-6.6-3c-2-1.07-3.84-2.36-5.81-3.42v0a39,39,0,0,1,4.15-6,11.69,11.69,0,0,1,6.06-3.85C45.5,9.09,51.06,8.73,54.31,12S58.06,21,58.06,25.35Z"/><path class="cls-4" d="M57.89,28.72c0,.4-.09.8-.15,1.19h0A45.83,45.83,0,0,1,43.19,28a46,46,0,0,1-6.79-2.76c-2.13-1.09-4-2.46-6-3.73.2-.4.43-.81.65-1.21a45.34,45.34,0,0,0,5.86,3.63,50.19,50.19,0,0,0,6.7,3.1A28.82,28.82,0,0,0,57.89,28.72Z"/><path class="cls-3" d="M57.64,30.51A33,33,0,0,1,56.86,34C56.05,36.85,55,39.58,54,42.34c-1.12-.07-2.26,0-3.39,0s-2.57-.21-3.85-.4a44.79,44.79,0,0,1-7.32-1.74,43.92,43.92,0,0,1-6.94-3c-2.17-1.17-4.17-2.57-6.23-3.89a.18.18,0,0,0,0-.1,54,54,0,0,1,3.9-11.38,30,30,0,0,0,5.92,3.87,42.05,42.05,0,0,0,6.75,2.86A40.11,40.11,0,0,0,57.64,30.51ZM54,37.17a1.41,1.41,0,0,0,.17-1.59,1.33,1.33,0,0,0-.79-.56,1.06,1.06,0,0,0-.75.13,1.3,1.3,0,0,0-.81.76A1.29,1.29,0,0,0,54,37.17ZM41.38,35a1.37,1.37,0,0,0,.85-1.49,1.33,1.33,0,0,0-.55-.8,1,1,0,0,0-.43-.19.5.5,0,0,0-.5.07,1.17,1.17,0,0,0-.9,1.82A1.27,1.27,0,0,0,41.38,35ZM30.73,29.47A1.21,1.21,0,0,0,31.19,28a1.23,1.23,0,0,0-.58-.57.94.94,0,0,0-.22-.07.64.64,0,0,0-.63-.09,1.26,1.26,0,0,0-.66.47,1.19,1.19,0,0,0,.13,1.51,1.27,1.27,0,0,0,.67.39A1.07,1.07,0,0,0,30.73,29.47Z"/><path d="M54.2,35.58A1.41,1.41,0,0,1,54,37.17a1.29,1.29,0,0,1-2.18-1.26,1.3,1.3,0,0,1,.81-.76,1.06,1.06,0,0,1,.75-.13A1.33,1.33,0,0,1,54.2,35.58Zm-.42.61v-.06a.43.43,0,0,1,0-.05s0,0,0-.07a0,0,0,0,1,0,0h0a.08.08,0,0,1,0,0l0-.06v0l0-.06-.06-.06h0l-.13-.07h0l-.07,0-.15,0H53a.75.75,0,0,0-.15.09l0,0h0l0,0h0l-.14.12s0,0,0,0a.18.18,0,0,0-.05.07.41.41,0,0,0,0,.09s0,0,0,0a.84.84,0,0,1,0,.17h0s0,0,0,0v.08h0s0,0,0,.07a.25.25,0,0,0,0,.09s0,0,0,0l.08.13c0-.05,0,0,0,0l0,.05.06,0h0l.13.09.06,0h0L53,37h.21l.13,0,0,0,.06,0h0l0,0a.44.44,0,0,0,.09-.11l0,0,0-.07,0-.08h0s0,0,0,0a.65.65,0,0,0,0-.13s0-.05,0-.08v-.15Z"/><path class="cls-5" d="M53.78,36.13v.21s0,.06,0,.08a.65.65,0,0,1,0,.13s0,0,0,0h0l0,.08,0,.07,0,0a.44.44,0,0,1-.09.11l0,0h0l-.06,0,0,0-.13,0H53l-.13,0h0l-.06,0-.13-.09h0l-.06,0,0-.05s-.06-.07,0,0l-.08-.13s0-.06,0,0a.25.25,0,0,1,0-.09s0,0,0-.07h0v-.08s0,0,0,0h0a.84.84,0,0,0,0-.17s0,0,0,0a.41.41,0,0,1,0-.09.18.18,0,0,1,.05-.07s0,0,0,0l.14-.12h0l0,0a0,0,0,0,1,0,0h0l0,0a.75.75,0,0,1,.15-.09h.19l.15,0,.07,0h0l.13.07h0l.06.06,0,.06v0l0,.06a.08.08,0,0,0,0,0h0a0,0,0,0,0,0,0s0,.05,0,.07A.43.43,0,0,0,53.78,36.13Z"/><path d="M53.74,36h0Z"/><path class="cls-4" d="M54.18,43.06c-.26,1.64-.4,3.31-.62,4.95-.29,2-.59,4-1,6-.58,3.19-1.29,6.35-2.1,9.48q0-10.23.91-20.43A15.9,15.9,0,0,0,54.18,43.06Z"/><path d="M52.74,35.68h0Z"/><path d="M52.74,35.69a0,0,0,0,0,0,0Z"/><path d="M42.23,33.49A1.37,1.37,0,0,1,41.38,35a1.27,1.27,0,0,1-1.53-.59,1.17,1.17,0,0,1,.9-1.82.5.5,0,0,1,.5-.07,1,1,0,0,1,.43.19A1.33,1.33,0,0,1,42.23,33.49Zm-.54.21s0-.05,0-.07v0a.83.83,0,0,0,0-.15l0,0,0-.08,0-.07v0h0a1.28,1.28,0,0,0-.22-.2l0,0h-.15a.71.71,0,0,0-.28.06l-.06,0,0,0-.12.07-.08.06-.12.11a0,0,0,0,1,0,0,.43.43,0,0,0,0,.07s0,0,0,0v0s0,0,0,.07v.2s0,0,0,.05a.26.26,0,0,0,0,.08v0a.47.47,0,0,1,0,.1l.05.07.13.14h0l.06,0,.09,0h0l.09,0h.19l.15,0h0l.07,0,.13-.09s0,0,0,0l.06,0,0,0h0a.35.35,0,0,1,0-.08.12.12,0,0,0,0-.05l0-.06,0-.08h0A.28.28,0,0,0,41.69,33.7Z"/><path class="cls-5" d="M41.68,33.63s0,0,0,.07a.28.28,0,0,1,0,.09h0l0,.08,0,.06a.12.12,0,0,1,0,.05.35.35,0,0,0,0,.08h0l0,0-.06,0s0,0,0,0l-.13.09-.07,0h0l-.15,0h-.19l-.09,0h0l-.09,0-.06,0h0l-.13-.14-.05-.07a.47.47,0,0,0,0-.1v0a.26.26,0,0,1,0-.08s0,0,0-.05v-.2s0-.05,0-.07v0s0,0,0,0a.43.43,0,0,1,0-.07,0,0,0,0,0,0,0l.12-.11.08-.06.12-.07,0,0,.06,0a.71.71,0,0,1,.28-.06h.15l0,0a1.28,1.28,0,0,1,.22.2h0v0l0,.07,0,.08,0,0a.83.83,0,0,1,0,.15Z"/><path class="cls-4" d="M39.26,40.86l.6.18c-1.82,4-3.6,8-5.37,12,.4-1.41.83-2.82,1.26-4.22.86-2.75,2-5.44,2.77-8.2Z"/><path d="M29.74,28.93h0l.07,0,.08,0,0,0,.08,0h.19l.12,0s0,0,0,0h0l.11-.07s0,0,0-.05l0,0,0,0,0-.06a.17.17,0,0,1,0-.05.07.07,0,0,0,0,0s0-.09,0-.13,0,0,0,0h0v-.16a.19.19,0,0,1,0-.07.07.07,0,0,1,0,0,.73.73,0,0,1-.05-.09s0,0,0,0l0,0h0l0-.06L30.53,28v0l0,0,0,0s0,0-.06,0l0,0-.16-.07,0,0H30s0,0,0,0l-.06,0,0,0-.13.07,0,0h0l0,0-.05.05s0,0,0,0a.41.41,0,0,0-.07.11l0,0s0,0,0,.07a.07.07,0,0,0,0,0h0a.57.57,0,0,0,0,.13v0a.13.13,0,0,0,0,.06l0,.09h0l.07.13s.05.06.07.1l0,.05h0ZM31.19,28a1.21,1.21,0,0,1-.46,1.46,1.07,1.07,0,0,1-.83.18,1.27,1.27,0,0,1-.67-.39,1.19,1.19,0,0,1-.13-1.51,1.26,1.26,0,0,1,.66-.47.64.64,0,0,1,.63.09.94.94,0,0,1,.22.07A1.23,1.23,0,0,1,31.19,28Z"/><path class="cls-5" d="M30.78,28.5h0s0,0,0,0,0,.09,0,.13a.07.07,0,0,1,0,0,.17.17,0,0,0,0,.05l0,.06,0,0,0,0s0,0,0,.05l-.11.07h0s0,0,0,0l-.12,0H30L30,29l0,0-.08,0-.07,0h-.05l0-.05s-.05-.06-.07-.1l-.07-.13h0l0-.09a.13.13,0,0,1,0-.06v0a.57.57,0,0,1,0-.13h0a.07.07,0,0,1,0,0s0-.05,0-.07l0,0a.41.41,0,0,1,.07-.11s0,0,0,0l.05-.05,0,0h0l0,0,.13-.07,0,0,.06,0s0,0,0,0h.13l0,0,.16.07,0,0s0,0,.06,0l0,0,0,0h0l.08.06,0,.06h0a0,0,0,0,1,0,0h0s0,0,0,0a.73.73,0,0,0,.05.09.07.07,0,0,0,0,0,.19.19,0,0,0,0,.07v.16Z"/><path class="cls-4" d="M27.89,35.06s0,0,0,0c-1.95,2.69-3.86,5.4-5.77,8.1l-2.82,4c-.55.78-1.07,1.65-1.7,2.42,1.23-2.43,2.47-4.84,3.74-7.25,1.56-3,3.33-5.86,4.71-8.9C26.62,34,27.25,34.55,27.89,35.06Z"/><path class="cls-6" d="M54.31,12a8.09,8.09,0,0,0-2.37-1.63,32.11,32.11,0,0,1,1.5,3,23.11,23.11,0,0,1,1.94,7.19,25.72,25.72,0,0,1-.49,6.89c0,.31-.12.63-.19,1a23.64,23.64,0,0,0,3.24-.29c.08-.92.13-1.85.12-2.78C58.06,21,57.58,15.35,54.31,12Z"/><path class="cls-7" d="M54.57,29c-.07.29-.15.58-.23.87,1.12.05,2.25.07,3.39.05h0c.06-.39.11-.79.15-1.19A24.9,24.9,0,0,1,54.57,29Z"/><path class="cls-6" d="M54.14,30.56c-1,3.15-2.62,6.38-5.46,7.77a8.74,8.74,0,0,1-5.41.53,27.75,27.75,0,0,1-6.49-2A45.83,45.83,0,0,1,27,30.66c-.22.83-.44,1.67-.65,2.51a.18.18,0,0,1,0,.1c2.06,1.32,4.06,2.72,6.23,3.89a43.92,43.92,0,0,0,6.94,3,44.79,44.79,0,0,0,7.32,1.74c1.28.19,2.57.29,3.85.4s2.27,0,3.39,0c1-2.76,2-5.49,2.85-8.31a33,33,0,0,0,.78-3.52A34,34,0,0,1,54.14,30.56ZM54,37.17a1.29,1.29,0,0,1-2.18-1.26,1.3,1.3,0,0,1,.81-.76,1.06,1.06,0,0,1,.75-.13,1.33,1.33,0,0,1,.79.56A1.41,1.41,0,0,1,54,37.17Z"/><path class="cls-8" d="M53.78,36.13v.21s0,.06,0,.08a.65.65,0,0,1,0,.13s0,0,0,0h0l0,.08,0,.07,0,0a.44.44,0,0,1-.09.11l0,0h0l-.06,0,0,0-.13,0H53l-.13,0h0l-.06,0-.13-.09h0l-.06,0,0-.05s-.06-.07,0,0l-.08-.13s0-.06,0,0a.25.25,0,0,1,0-.09s0,0,0-.07h0v-.08s0,0,0,0h0a.84.84,0,0,0,0-.17s0,0,0,0a.41.41,0,0,1,0-.09.18.18,0,0,1,.05-.07s0,0,0,0l.14-.12h0l0,0a0,0,0,0,1,0,0h0l0,0a.75.75,0,0,1,.15-.09h.19l.15,0,.07,0h0l.13.07h0l.06.06,0,.06v0l0,.06a.08.08,0,0,0,0,0h0a0,0,0,0,0,0,0s0,.05,0,.07A.43.43,0,0,0,53.78,36.13Z"/><path class="cls-7" d="M54.18,43.06c-.26,1.64-.4,3.31-.62,4.95-.29,2-.59,4-1,6-.58,3.19-1.29,6.35-2.1,9.48q0-10.23.91-20.43A15.9,15.9,0,0,0,54.18,43.06Z"/><path class="cls-7" d="M39.26,40.86l.6.18c-1.82,4-3.6,8-5.37,12,.4-1.41.83-2.82,1.26-4.22.86-2.75,2-5.44,2.77-8.2Z"/><path class="cls-7" d="M27.89,35.06s0,0,0,0c-1.95,2.69-3.86,5.4-5.77,8.1l-2.82,4c-.55.78-1.07,1.65-1.7,2.42,1.23-2.43,2.47-4.84,3.74-7.25,1.56-3,3.33-5.86,4.71-8.9C26.62,34,27.25,34.55,27.89,35.06Z"/></g></g></g></svg>