<svg xmlns="http://www.w3.org/2000/svg" viewBox="0 0 74.82 74.82"><defs><style>.cls-1{isolation:isolate;}.cls-2{fill:#fcf2d6;stroke:#f6da8b;stroke-miterlimit:10;stroke-width:0.68px;}.cls-3,.cls-7{fill:#8bc8fd;}.cls-4,.cls-8{fill:#3b67b1;}.cls-5{fill:#fff;}.cls-10,.cls-6{fill:#f1c954;}.cls-10,.cls-7,.cls-8,.cls-9{mix-blend-mode:multiply;opacity:0.4;}.cls-9{fill:#d0e9fe;}</style></defs><g class="cls-1"><g id="Шар_2" data-name="Шар 2"><g id="OBJECTS"><rect class="cls-2" x="0.34" y="0.34" width="74.14" height="74.14" rx="3.36"/><path class="cls-3" d="M64.09,32.58c0,1.37-1,2.54-2,3.38-4,3.49-10.09,4.19-15.18,4.42a118.67,118.67,0,0,1-16.54-.46A69.28,69.28,0,0,1,22,38.64a33.45,33.45,0,0,1-7.7-2.48,6.54,6.54,0,0,1-3.13-2.9,3.55,3.55,0,0,1,.68-4.13c2.08-2.06,5.6-2.63,8.41-2.72-.08.91-.12,1.83-.11,2.74a.19.19,0,0,0-.22-.09,1.46,1.46,0,0,0-.89,2.05A6.16,6.16,0,0,0,22,33.87a29,29,0,0,0,9.07,2.79,39.48,39.48,0,0,0,18.87-1.47c.89-.3,1.78-.62,2.65-1a3.82,3.82,0,0,0,1.74-1.06,1.17,1.17,0,0,0-.56-1.89,29.37,29.37,0,0,0,0-3.51A29.94,29.94,0,0,1,61.56,30C62.68,30.45,64.05,31.19,64.09,32.58Z"/><path d="M63.24,30.06c2.64,1.78,1.4,4.71-.58,6.46A17.05,17.05,0,0,1,55.35,40a33,33,0,0,1-3.67.71.4.4,0,0,1,0,.22A11.09,11.09,0,0,1,50.24,44s0,0,0,0A150.3,150.3,0,0,0,60.66,57.39a.29.29,0,0,1-.41.41C58.07,56,56,54.19,53.89,52.31A52.8,52.8,0,0,1,48,46.49a12.27,12.27,0,0,1-1.22.93A16.51,16.51,0,0,1,39.72,50a.24.24,0,0,1,0,.12c-.58,5.35-1.31,10.7-2,16,0,.3-.52.44-.59.08-.51-2.75-1-5.52-1.33-8.29a55.64,55.64,0,0,1-.8-7.92,20.85,20.85,0,0,1-4-.88,16.36,16.36,0,0,1-4.49-2.32c-1.85,2.31-3.78,4.57-5.75,6.77-1,1.13-2,2.24-3,3.34A11.26,11.26,0,0,1,15,59.24a.36.36,0,0,1-.49-.49,85.66,85.66,0,0,1,4.2-7.92c.78-1.3,1.59-2.59,2.48-3.83.38-.54.8-1.07,1.21-1.59A13.78,13.78,0,0,1,23.57,44a9.83,9.83,0,0,1-2.24-4.8c-1.37-.32-2.72-.69-4-1.13-2.4-.79-5.16-1.75-6.49-4.09-3.25-5.77,5.41-8.14,9.52-8a23.17,23.17,0,0,1,3.22-9.83,16.55,16.55,0,0,1,8.46-7,17.06,17.06,0,0,1,6.23-.72,17.66,17.66,0,0,1,6.22,1.27c3.72,1.61,6,5,7.35,8.73a33.2,33.2,0,0,1,1.9,8.69,26.59,26.59,0,0,1,5.07,1.07A17,17,0,0,1,63.24,30.06ZM62.09,36c1-.84,2-2,2-3.38S62.68,30.45,61.56,30a29.94,29.94,0,0,0-7.82-2.19,29.37,29.37,0,0,1,0,3.51,1.17,1.17,0,0,1,.56,1.89,3.82,3.82,0,0,1-1.74,1.06c-.87.34-1.76.66-2.65,1a39.48,39.48,0,0,1-18.87,1.47A29,29,0,0,1,22,33.87a6.16,6.16,0,0,1-2.92-2.76A1.46,1.46,0,0,1,20,29.06a.19.19,0,0,1,.22.09c0-.91,0-1.83.11-2.74-2.81.09-6.33.66-8.41,2.72a3.55,3.55,0,0,0-.68,4.13,6.54,6.54,0,0,0,3.13,2.9A33.45,33.45,0,0,0,22,38.64a69.28,69.28,0,0,0,8.35,1.28,118.67,118.67,0,0,0,16.54.46C52,40.15,58.08,39.45,62.09,36Zm-7.75,15.9C55.55,53,56.78,54,58,55.12c-2.83-3.45-5.56-7-8.13-10.61a12.34,12.34,0,0,1-1.66,1.81C50.38,48,52.31,50,54.34,51.86Zm-.94-18.7c.4-.27.91-1.1.31-1.38,0,.28,0,.55-.07.82a.32.32,0,0,1-.37.28c-.63.3-1.27.6-1.91.85-.16.07-.31.11-.47.17a37,37,0,0,1-15.54,2.28c-5.33-.24-11.09-1.24-15-5.15a.26.26,0,0,1-.06-.29.18.18,0,0,1,0-.11c0-.42,0-.84-.05-1.26a.19.19,0,0,1-.12.09c-1.42.45-.33,2.09.29,2.7a8.5,8.5,0,0,0,2,1.4,22.66,22.66,0,0,0,4.51,1.68,38,38,0,0,0,9.29,1.43,39.81,39.81,0,0,0,9.37-.82,34.38,34.38,0,0,0,4.57-1.27c.82-.28,1.62-.61,2.41-1A6.63,6.63,0,0,0,53.4,33.16Zm-.37-1A37.24,37.24,0,0,0,51,18.09c-1.48-3.82-4.06-7-8.09-8.25a17.47,17.47,0,0,0-12,.49,16.7,16.7,0,0,0-7.68,7.76c-2,3.92-2.38,8.2-2.48,12.51,0,0,0,0,0,0,3.93,3.82,9.66,4.65,14.92,4.82a45.33,45.33,0,0,0,8.87-.52,30.11,30.11,0,0,0,8.39-2.73Zm-2,8.64c-1.68.2-3.37.31-5.06.35a114.12,114.12,0,0,1-19.29-1c-1.66-.23-3.31-.54-4.95-.92a23.43,23.43,0,0,0,1.5,3.11,14.38,14.38,0,0,0,2.44,2.89C32.58,51.6,47.88,51,51,40.81ZM39.23,50a19.89,19.89,0,0,1-3.78,0c.48,2.59.61,5.28,1,7.89.29,2.08.63,4.14,1,6.21C38,59.43,38.56,54.72,39.23,50Zm-13.08-3.5a14.74,14.74,0,0,1-1.61-1.45c-.26-.27-.53-.58-.79-.89-.26.49-.61.94-.91,1.4-.4.62-.79,1.25-1.18,1.87-.8,1.23-1.6,2.46-2.37,3.73-1.31,2.17-2.5,4.42-3.61,6.7a16.63,16.63,0,0,0,1.92-1.84q1.45-1.59,2.88-3.18C22.37,50.75,24.25,48.64,26.15,46.53Z"/><path class="cls-4" d="M58,55.12C56.78,54,55.55,53,54.34,51.86c-2-1.83-4-3.86-6.11-5.54a12.34,12.34,0,0,0,1.66-1.81C52.46,48.16,55.19,51.67,58,55.12Z"/><path class="cls-4" d="M53.71,31.78c.6.28.09,1.11-.31,1.38a6.63,6.63,0,0,1-.93.45c-.79.36-1.59.69-2.41,1a34.38,34.38,0,0,1-4.57,1.27,39.81,39.81,0,0,1-9.37.82,38,38,0,0,1-9.29-1.43,22.66,22.66,0,0,1-4.51-1.68,8.5,8.5,0,0,1-2-1.4c-.62-.61-1.71-2.25-.29-2.7a.19.19,0,0,0,.12-.09c0,.42,0,.84.05,1.26a.18.18,0,0,0,0,.11.26.26,0,0,0,.06.29c3.93,3.91,9.69,4.91,15,5.15A37,37,0,0,0,50.89,33.9c.16-.06.31-.1.47-.17.64-.25,1.28-.55,1.91-.85a.32.32,0,0,0,.37-.28C53.67,32.33,53.68,32.06,53.71,31.78Z"/><path class="cls-5" d="M51,18.09A37.24,37.24,0,0,1,53,32.17l-.12,0a30.11,30.11,0,0,1-8.39,2.73,45.33,45.33,0,0,1-8.87.52c-5.26-.17-11-1-14.92-4.82,0,0,0,0,0,0,.1-4.31.53-8.59,2.48-12.51a16.7,16.7,0,0,1,7.68-7.76,17.47,17.47,0,0,1,12-.49C46.89,11.09,49.47,14.27,51,18.09Zm-15.32,16a97.56,97.56,0,0,0,.24-9.82c-.09-2.65-.12-5.62-1.91-7.75a5,5,0,0,0-5.85-1.31,8.75,8.75,0,0,0-4.56,5.39,22,22,0,0,0-1.38,10,.2.2,0,0,0,.16.17,17.15,17.15,0,0,0,5.94,2.95,19.64,19.64,0,0,0,6.94.8.26.26,0,0,0,.14-.06A.33.33,0,0,0,35.63,34.07Z"/><path class="cls-5" d="M46,41.16c1.69,0,3.38-.15,5.06-.35C47.88,51,32.58,51.6,25.65,45.26a14.38,14.38,0,0,1-2.44-2.89,23.43,23.43,0,0,1-1.5-3.11c1.64.38,3.29.69,4.95.92A114.12,114.12,0,0,0,46,41.16Z"/><path class="cls-4" d="M35.45,50a19.89,19.89,0,0,0,3.78,0c-.67,4.69-1.24,9.4-1.81,14.1-.37-2.07-.71-4.13-1-6.21C36.06,55.31,35.93,52.62,35.45,50Z"/><path d="M35.87,24.25a97.56,97.56,0,0,1-.24,9.82.33.33,0,0,1-.28.32.26.26,0,0,1-.14.06,19.64,19.64,0,0,1-6.94-.8,17.15,17.15,0,0,1-5.94-2.95.2.2,0,0,1-.16-.17,22,22,0,0,1,1.38-10,8.75,8.75,0,0,1,4.56-5.39A5,5,0,0,1,34,16.5C35.75,18.63,35.78,21.6,35.87,24.25ZM34.94,34a100.79,100.79,0,0,0,.22-10.57c-.1-3-.53-7.41-4.24-8-3.33-.51-5.72,2.4-6.79,5.18-1.23,3.22-1.38,6.53-1.57,9.93a.17.17,0,0,1,0,.13c.89.48,1.76,1,2.68,1.43a20.48,20.48,0,0,0,3.3,1.15A23,23,0,0,0,34.94,34Z"/><path class="cls-4" d="M35.16,23.41A100.79,100.79,0,0,1,34.94,34a23,23,0,0,1-6.45-.74,20.48,20.48,0,0,1-3.3-1.15c-.92-.43-1.79-1-2.68-1.43a.17.17,0,0,0,0-.13c.19-3.4.34-6.71,1.57-9.93,1.07-2.78,3.46-5.69,6.79-5.18C34.63,16,35.06,20.43,35.16,23.41Zm-.7,9.41a63,63,0,0,0-.12-8.47c-.21-2.2-.19-4.82-1.65-6.64a3.72,3.72,0,0,0-5-.86c-1.8,1.1-2.8,3.28-3.41,5.21a30.78,30.78,0,0,0-1.11,8.05c0,.1,0,.14.12.17a8.5,8.5,0,0,0,2.34,1.3,21,21,0,0,0,2.7.94,19.71,19.71,0,0,0,5.73.6l.08,0A.29.29,0,0,0,34.46,32.82Z"/><path d="M34.34,24.35a63,63,0,0,1,.12,8.47.29.29,0,0,1-.3.28l-.08,0a19.71,19.71,0,0,1-5.73-.6,21,21,0,0,1-2.7-.94,8.5,8.5,0,0,1-2.34-1.3c-.07,0-.13-.07-.12-.17a30.78,30.78,0,0,1,1.11-8c.61-1.93,1.61-4.11,3.41-5.21a3.72,3.72,0,0,1,5,.86C34.15,19.53,34.13,22.15,34.34,24.35Zm-.45,8.28a82.33,82.33,0,0,0-.15-8.75c-.15-2.41-.36-6.57-3.44-7.08s-4.8,3-5.55,5.38a33.69,33.69,0,0,0-1.16,7.93.19.19,0,0,1-.07.13c.82.29,1.61.71,2.42,1a21.84,21.84,0,0,0,8,1.36Z"/><path class="cls-6" d="M33.74,23.88a82.33,82.33,0,0,1,.15,8.75,21.84,21.84,0,0,1-7.95-1.36c-.81-.32-1.6-.74-2.42-1a.19.19,0,0,0,.07-.13,33.69,33.69,0,0,1,1.16-7.93c.75-2.35,2.53-5.87,5.55-5.38S33.59,21.47,33.74,23.88Z"/><path class="cls-4" d="M24.54,45.08a14.74,14.74,0,0,0,1.61,1.45c-1.9,2.11-3.78,4.22-5.67,6.34q-1.43,1.59-2.88,3.18a16.63,16.63,0,0,1-1.92,1.84c1.11-2.28,2.3-4.53,3.61-6.7.77-1.27,1.57-2.5,2.37-3.73.39-.62.78-1.25,1.18-1.87.3-.46.65-.91.91-1.4C24,44.5,24.28,44.81,24.54,45.08Z"/><path class="cls-7" d="M61.56,30c-.8-.36-1.63-.67-2.46-.95a4.46,4.46,0,0,1,.16,2.34,8.17,8.17,0,0,1-3.71,4.89A19.26,19.26,0,0,1,48,38.91c-1.3.23-2.61.42-3.92.57a17.86,17.86,0,0,1-4.44.16,58.22,58.22,0,0,1-8.89-.4c-7-.84-14.11-2.67-19.81-7a3.88,3.88,0,0,0,.3,1,6.54,6.54,0,0,0,3.13,2.9A33.45,33.45,0,0,0,22,38.64a69.28,69.28,0,0,0,8.35,1.28,118.67,118.67,0,0,0,16.54.46C52,40.15,58.08,39.45,62.09,36c1-.84,2-2,2-3.38S62.68,30.45,61.56,30Z"/><path class="cls-8" d="M50.65,46.63c.23.43.47.85.73,1.26l.4.59.21.29.15.19.13.17.19.23c.15.19.31.37.47.56.33.37.66.74,1,1.1,1.14,1.21,2.34,2.36,3.49,3.57l.6.53c-2.83-3.45-5.56-7-8.13-10.61A11.83,11.83,0,0,1,48.59,46,1.64,1.64,0,0,1,50.65,46.63Z"/><path class="cls-9" d="M51,18.09c-1.48-3.82-4.06-7-8.09-8.25a19.18,19.18,0,0,0-2.35-.55A19.15,19.15,0,0,1,48,16.1a19.09,19.09,0,0,1,2.73,8.32c.24,2.68,0,5.66-1.74,7.84a8.19,8.19,0,0,1-3.27,2.42,30.47,30.47,0,0,0,7.19-2.48l.12,0A37.24,37.24,0,0,0,51,18.09Z"/><path class="cls-9" d="M46,41.16c1.69,0,3.38-.15,5.06-.35C47.88,51,32.58,51.6,25.65,45.26a14.38,14.38,0,0,1-2.44-2.89,23.43,23.43,0,0,1-1.5-3.11c1.64.38,3.29.69,4.95.92A114.12,114.12,0,0,0,46,41.16Z"/><path class="cls-8" d="M36.91,50.11a1.24,1.24,0,0,1,.51.82,36.93,36.93,0,0,1-.33,11.3c.11.64.21,1.27.33,1.9.57-4.7,1.14-9.41,1.81-14.1A22.48,22.48,0,0,1,36.91,50.11Z"/><path class="cls-8" d="M34.57,32.87a21.08,21.08,0,0,0,0-4.35c0,1.44,0,2.87-.08,4.3a.3.3,0,0,1,0,.1h.13Z"/><path class="cls-10" d="M32.73,18.69l-.06-.12A3.26,3.26,0,0,0,30.3,16.8c-2.08-.34-3.57,1.23-4.54,3,.12-.19.25-.39.39-.58a4.07,4.07,0,0,1,3.3-1.8,3.73,3.73,0,0,1,3.05,2.24c1.27,2.68.93,5.7.52,8.53-.05.31-.1.62-.14.94l-.06.38c.07-.47,0,.28-.06.46a4.56,4.56,0,0,1-.56,1.6,2.89,2.89,0,0,1-.92,1,25.08,25.08,0,0,0,2.61.11,82.33,82.33,0,0,0-.15-8.75A13.71,13.71,0,0,0,32.73,18.69Z"/><path class="cls-8" d="M24.54,45.08c-.11-.12-.23-.24-.34-.37a2,2,0,0,1,0,.25,13.49,13.49,0,0,1-3.4,7.4c-1.45,1.7-3.15,3.17-4.74,4.74l-.39.79a16.63,16.63,0,0,0,1.92-1.84q1.45-1.59,2.88-3.18c1.89-2.12,3.77-4.23,5.67-6.34A14.74,14.74,0,0,1,24.54,45.08Z"/></g></g></g></svg>