<svg xmlns="http://www.w3.org/2000/svg" viewBox="0 0 74.82 74.82"><defs><style>.cls-1{isolation:isolate;}.cls-2{fill:#fcf2d6;stroke:#f6da8b;stroke-miterlimit:10;stroke-width:0.68px;}.cls-3,.cls-8{fill:#dc2a2c;}.cls-4{fill:#fff;}.cls-10,.cls-5{fill:#3b67b1;}.cls-11,.cls-6{fill:#f1c954;}.cls-12,.cls-7{fill:#8bc8fd;}.cls-10,.cls-11,.cls-12,.cls-8,.cls-9{mix-blend-mode:multiply;opacity:0.4;}.cls-9{fill:#d0e9fe;}</style></defs><g class="cls-1"><g id="Шар_2" data-name="Шар 2"><g id="OBJECTS"><rect class="cls-2" x="0.34" y="0.34" width="74.14" height="74.14" rx="3.36"/><path d="M71.25,39.6a.4.4,0,0,1,.42.49c-1.29,5.64-5.08,10.54-9.59,14.12h0c1.61,2.32,3.06,4.72,4.5,7.15.18.29-.21.54-.44.34-1.16-1-2.27-2.05-3.36-3.12-.56-.53-1.1-1.09-1.63-1.65A9,9,0,0,1,60,55.7,45.5,45.5,0,0,1,39.92,63c0,2.57-.14,5.13-.35,7.68,0,.24-.36.39-.49.13A12.31,12.31,0,0,1,38.2,67c-.11-.71-.21-1.41-.31-2.12-.08-.54-.2-1.1-.24-1.65A49.23,49.23,0,0,1,24,62.33a25.43,25.43,0,0,1-11.6-5.7c-1.48,2-3,3.93-4.45,5.89a.28.28,0,0,1-.5-.22A16.18,16.18,0,0,1,9,58.55l1-1.83a17,17,0,0,1,.87-1.63c-.31-.32-.63-.64-.93-1a29.87,29.87,0,0,1-6.73-14,.29.29,0,0,1,.12-.31.11.11,0,0,1,.06-.07,1.31,1.31,0,0,1,.48-.12l.48-.09s0,0,0,0c.91-.28,1.87-.5,2.78-.76,1.24-.36,2.49-.69,3.73-1,2.47-.68,4.95-1.35,7.45-1.92a29.38,29.38,0,0,1,2.17-13.7,18.19,18.19,0,0,1,13-10.52,12.37,12.37,0,0,1,.07-1.72c.05-.64.12-1.28.2-1.92.14-1.26.31-2.51.5-3.76a.32.32,0,0,1,.62,0c.45,2.35.92,4.7,1.34,7.06a17.65,17.65,0,0,1,5.65.65A13.82,13.82,0,0,1,47.53,15a14.84,14.84,0,0,1,3.37,5.1,39.24,39.24,0,0,1,2,7.24c.56,2.63,1.07,5.27,1.49,7.93a20.9,20.9,0,0,1,3.93.88l4.25,1.06c1.41.36,2.83.72,4.23,1.1a26,26,0,0,1,4.31,1.22A.22.22,0,0,1,71.25,39.6ZM61.54,53.48a27.64,27.64,0,0,0,8.75-11.89A56.27,56.27,0,0,1,58,50.79,43,43,0,0,1,44.08,55.6a43.63,43.63,0,0,1-15.7-.49,48.61,48.61,0,0,1-14.52-5.55A30.37,30.37,0,0,1,4,40.94a31.65,31.65,0,0,0,7.72,14,25.49,25.49,0,0,0,14.81,7,49.13,49.13,0,0,0,18.79-.88A42,42,0,0,0,61.54,53.48Zm9.2-13.31a32.89,32.89,0,0,1-4.16-1.05l-1-.26a5.41,5.41,0,0,1-1.69,2.41,3.9,3.9,0,0,1-5,0A3.78,3.78,0,0,1,57.8,39a5.62,5.62,0,0,1,0-1.42,5,5,0,0,1,.11-.66,16.69,16.69,0,0,1-3.78-1.06.52.52,0,0,1-.21,0,.39.39,0,0,1-.12.14,28,28,0,0,1-7.22,3.81,31.9,31.9,0,0,1-14.49,1.76,28.26,28.26,0,0,1-13.45-4.86.28.28,0,0,1-.19-.07c-1.18.33-2.38.64-3.57.94a3.46,3.46,0,0,1-2.58,3.37,3.91,3.91,0,0,1-2.5-.25,4.25,4.25,0,0,1-1.86-1.47L7,39.43c-1,.23-2,.53-3.1.7A33.55,33.55,0,0,0,16,50c9.24,4.72,20.08,6.74,30.3,4.45C55.7,52.36,64,46.92,70.74,40.17ZM65,38.72l-.64-.17a3.56,3.56,0,0,1-1,1.58,2.82,2.82,0,0,1-3.45.32,2.36,2.36,0,0,1-1-1.59A3.88,3.88,0,0,1,59,37.17L58.26,37c0,.05,0,.09,0,.14a6.3,6.3,0,0,0,0,.75,5.14,5.14,0,0,0,.15,1.51,2.93,2.93,0,0,0,2,2.12C62.42,42.12,64.27,40.58,65,38.72ZM63.21,58.19c.65.62,1.32,1.23,2,1.84-1.1-1.87-2.31-3.7-3.55-5.48-.39.3-.78.59-1.18.87l-.14.09c.15.12.29.26.44.39l.8.74Zm.63-19.78L62.34,38l-3-.76a5,5,0,0,0,.17,1.85A1.94,1.94,0,0,0,61,40.29,2.58,2.58,0,0,0,63.84,38.41Zm-10.42-3a.24.24,0,0,1,.15-.06c-.49-2.59-1-5.18-1.59-7.76a35.44,35.44,0,0,0-2.16-7.64,13.12,13.12,0,0,0-3.55-4.84,14.26,14.26,0,0,0-6.17-2.72,16.92,16.92,0,0,0-12.47,2.41,18.06,18.06,0,0,0-7.18,9.65c-1.3,3.93-1.4,7.9-1.56,12a.23.23,0,0,1,0,.11c5.52,2.75,11.29,4.56,17.52,4.36A34.23,34.23,0,0,0,53.42,35.37Zm-14.3,34c.14-2.12.24-4.26.28-6.38-.44,0-.88.1-1.32.13.13.54.18,1.1.26,1.63s.21,1.31.32,2C38.8,67.63,38.89,68.54,39.12,69.41ZM35.46,11.25c-.33-1.67-.63-3.35-.94-5-.09.64-.19,1.27-.27,1.91L34,10c0,.49-.1,1-.2,1.48Q34.65,11.33,35.46,11.25ZM14.36,37.68l-.48.12a1.58,1.58,0,0,1,0,.32,2.15,2.15,0,0,1-.32.78,2.44,2.44,0,0,1-1.36,1,2.91,2.91,0,0,1-1.84-.13A4.49,4.49,0,0,1,9,39l-.7.15A4.94,4.94,0,0,0,9.76,40.2a3.55,3.55,0,0,0,2.24.29A3,3,0,0,0,14.36,37.68Zm-.94.43a.68.68,0,0,0,0-.21l-2.55.62c-.47.1-.93.21-1.39.33a3.81,3.81,0,0,0,.81.47,2.61,2.61,0,0,0,1.58.19,2.16,2.16,0,0,0,1.21-.77A1.71,1.71,0,0,0,13.42,38.11ZM8.42,61,12,56.26c-.33-.3-.66-.6-1-.92a9.8,9.8,0,0,1-.68,1.47c-.3.6-.62,1.2-.92,1.8A21.22,21.22,0,0,0,8.42,61Z"/><path class="cls-3" d="M70.29,41.59a27.64,27.64,0,0,1-8.75,11.89,42,42,0,0,1-16.22,7.58,49.13,49.13,0,0,1-18.79.88,25.49,25.49,0,0,1-14.81-7A31.65,31.65,0,0,1,4,40.94a30.37,30.37,0,0,0,9.86,8.62,48.61,48.61,0,0,0,14.52,5.55,43.63,43.63,0,0,0,15.7.49A43,43,0,0,0,58,50.79,56.27,56.27,0,0,0,70.29,41.59Z"/><path class="cls-4" d="M66.58,39.12a32.89,32.89,0,0,0,4.16,1.05C64,46.92,55.7,52.36,46.29,54.46,36.07,56.75,25.23,54.73,16,50A33.55,33.55,0,0,1,3.87,40.13c1-.17,2.07-.47,3.1-.7l.94-.22a4.25,4.25,0,0,0,1.86,1.47,3.91,3.91,0,0,0,2.5.25,3.46,3.46,0,0,0,2.58-3.37c1.19-.3,2.39-.61,3.57-.94a.28.28,0,0,0,.19.07,28.26,28.26,0,0,0,13.45,4.86,31.9,31.9,0,0,0,14.49-1.76A28,28,0,0,0,53.77,36a.39.39,0,0,0,.12-.14.52.52,0,0,0,.21,0,16.69,16.69,0,0,0,3.78,1.06,5,5,0,0,0-.11.66,5.62,5.62,0,0,0,0,1.42,3.78,3.78,0,0,0,1.1,2.27,3.9,3.9,0,0,0,5,0,5.41,5.41,0,0,0,1.69-2.41ZM51.42,48c.67-1.23-.13-2.69-1.19-3.4a3,3,0,0,0-2-.49,2.37,2.37,0,0,0-1.8.92h0a2.51,2.51,0,0,0-.39.71,3,3,0,0,0-.1,1.59,2.77,2.77,0,0,0,2.41,2.1A3.07,3.07,0,0,0,51.42,48Zm-22.5,2.51a3.26,3.26,0,0,0,1.8-3.18,2.68,2.68,0,0,0-1.13-2,1.68,1.68,0,0,0-.55-.24.15.15,0,0,0-.1-.13,3.81,3.81,0,0,0-2.45,0,2.91,2.91,0,0,0-1.44,1.24,3,3,0,0,0,.28,3.55A3.17,3.17,0,0,0,28.92,50.55Z"/><path class="cls-5" d="M65.2,60c-.67-.61-1.34-1.22-2-1.84l-1.64-1.55-.8-.74c-.15-.13-.29-.27-.44-.39l.14-.09c.4-.28.79-.57,1.18-.87C62.89,56.33,64.1,58.16,65.2,60Z"/><path class="cls-6" d="M62.34,38l1.5.39A2.58,2.58,0,0,1,61,40.29a1.94,1.94,0,0,1-1.47-1.18,5,5,0,0,1-.17-1.85Z"/><path class="cls-7" d="M53.57,35.31a.24.24,0,0,0-.15.06,34.23,34.23,0,0,1-17,5.51c-6.23.2-12-1.61-17.52-4.36a.23.23,0,0,0,0-.11c.16-4.1.26-8.07,1.56-12a18.06,18.06,0,0,1,7.18-9.65A16.92,16.92,0,0,1,40.1,12.35a14.26,14.26,0,0,1,6.17,2.72,13.12,13.12,0,0,1,3.55,4.84A35.44,35.44,0,0,1,52,27.55C52.52,30.13,53.08,32.72,53.57,35.31Z"/><path d="M50.23,44.64c1.06.71,1.86,2.17,1.19,3.4a3.07,3.07,0,0,1-3.07,1.43,2.77,2.77,0,0,1-2.41-2.1,3,3,0,0,1,.1-1.59,2.51,2.51,0,0,1,.39-.71h0a2.37,2.37,0,0,1,1.8-.92A3,3,0,0,1,50.23,44.64ZM51,47.46a2.38,2.38,0,0,0-1.48-2.55A2.87,2.87,0,0,0,48,44.66a3.09,3.09,0,0,1-.43.14,1.85,1.85,0,0,0-.44.23,2.7,2.7,0,0,0-.31.28l-.07.12a2.06,2.06,0,0,0-.25.68,2.43,2.43,0,0,0,.13,1.41,2.22,2.22,0,0,0,2.06,1.29A2.28,2.28,0,0,0,51,47.46Z"/><path d="M50.29,46.37a1.4,1.4,0,0,1,0,1.17,1.43,1.43,0,0,1-.93.55,2,2,0,0,1-2-.68,1.51,1.51,0,0,1-.25-1,1.13,1.13,0,0,1,.24-.6.56.56,0,0,1,.07-.21,1.26,1.26,0,0,1,.39-.37A1.63,1.63,0,0,1,48.78,45,1.93,1.93,0,0,1,50.29,46.37Zm-.43.75a1.18,1.18,0,0,0-.11-.78,1.35,1.35,0,0,0-1.14-.89,1.24,1.24,0,0,0-.68.15l0,0a.21.21,0,0,0,0,.06l0,0a.31.31,0,0,1-.08.15h0s0,0,0,0l-.06.11s0,0,0,0v0h0a.7.7,0,0,0,0,.12l0,.05h0v.13h0a.31.31,0,0,1,0,.09h0v0h0a1.28,1.28,0,0,0,.33.63,1.6,1.6,0,0,0,1.46.29A.75.75,0,0,0,49.86,47.12Z"/><path class="cls-6" d="M49.75,46.34a1.18,1.18,0,0,1,.11.78.75.75,0,0,1-.54.37,1.6,1.6,0,0,1-1.46-.29,1.28,1.28,0,0,1-.33-.63h0v0h0a.31.31,0,0,0,0-.09h0v-.13h0l0-.05a.7.7,0,0,1,0-.12h0v0s0,0,0,0l.06-.11s0,0,0,0h0a.31.31,0,0,0,.08-.15l0,0a.21.21,0,0,1,0-.06l0,0a1.24,1.24,0,0,1,.68-.15A1.35,1.35,0,0,1,49.75,46.34Z"/><path class="cls-5" d="M39.4,63c0,2.12-.14,4.26-.28,6.38-.23-.87-.32-1.78-.46-2.65-.11-.66-.21-1.32-.32-2s-.13-1.09-.26-1.63C38.52,63.13,39,63.07,39.4,63Z"/><path class="cls-5" d="M34.52,6.22c.31,1.68.61,3.36.94,5q-.81.08-1.62.21c.1-.49.15-1,.2-1.48l.21-1.85C34.33,7.49,34.43,6.86,34.52,6.22Z"/><path d="M30.72,47.37a3.26,3.26,0,0,1-1.8,3.18,3.17,3.17,0,0,1-3.59-.77,3,3,0,0,1-.28-3.55A2.91,2.91,0,0,1,26.49,45a3.81,3.81,0,0,1,2.45,0,.15.15,0,0,1,.1.13,1.68,1.68,0,0,1,.55.24A2.68,2.68,0,0,1,30.72,47.37Zm-1.83,2.39a2.61,2.61,0,0,0,1.17-2.65,2,2,0,0,0-1.93-1.74,3.66,3.66,0,0,0-1.53.29,2.36,2.36,0,0,0-.49,3.87A2.49,2.49,0,0,0,28.89,49.76Z"/><path d="M29.55,47.23a1.94,1.94,0,0,1-.8,2.2,1.91,1.91,0,0,1-2.34-.29,1.89,1.89,0,0,1-.27-2.31A1.82,1.82,0,0,1,27,46a1.42,1.42,0,0,1,.73-.13,2.11,2.11,0,0,1,.75.17.07.07,0,0,1,0,.06A2,2,0,0,1,29.55,47.23Zm-.88,1.63a1.52,1.52,0,0,0,.42-1.74,1.78,1.78,0,0,0-.67-.69,2,2,0,0,0-.54-.17l-.17,0a2.32,2.32,0,0,0-.65.18,1.57,1.57,0,0,0-.66.8,1.34,1.34,0,0,0,.54,1.63A1.4,1.4,0,0,0,28.67,48.86Z"/><path class="cls-6" d="M29.09,47.12a1.52,1.52,0,0,1-.42,1.74,1.4,1.4,0,0,1-1.73,0,1.34,1.34,0,0,1-.54-1.63,1.57,1.57,0,0,1,.66-.8,2.32,2.32,0,0,1,.65-.18l.17,0a2,2,0,0,1,.54.17A1.78,1.78,0,0,1,29.09,47.12Z"/><path class="cls-6" d="M13.44,37.9a.68.68,0,0,1,0,.21,1.71,1.71,0,0,1-.32.63,2.16,2.16,0,0,1-1.21.77,2.61,2.61,0,0,1-1.58-.19,3.81,3.81,0,0,1-.81-.47c.46-.12.92-.23,1.39-.33Z"/><path class="cls-5" d="M12,56.26,8.42,61a21.22,21.22,0,0,1,1-2.41c.3-.6.62-1.2.92-1.8A9.8,9.8,0,0,0,11,55.34C11.35,55.66,11.68,56,12,56.26Z"/><path class="cls-8" d="M63.31,47.43a4.83,4.83,0,0,1-.47,1,13.82,13.82,0,0,1-7,5.21,76.73,76.73,0,0,1-8.42,2.49,59.34,59.34,0,0,1-11.68,2,44.58,44.58,0,0,1-20.07-3.5,33.62,33.62,0,0,1-7.7-4.52,27.81,27.81,0,0,0,3.78,4.8,25.49,25.49,0,0,0,14.81,7,49.13,49.13,0,0,0,18.79-.88,42,42,0,0,0,16.22-7.58,27.64,27.64,0,0,0,8.75-11.89A59.82,59.82,0,0,1,63.31,47.43Z"/><path class="cls-9" d="M62.14,42.89a4.43,4.43,0,0,1,1.4,3.48,64.46,64.46,0,0,0,7.2-6.2,32.89,32.89,0,0,1-4.16-1.05l-1-.26a5.41,5.41,0,0,1-1.69,2.41,4.37,4.37,0,0,1-2.62.88A8.72,8.72,0,0,1,62.14,42.89Z"/><path class="cls-9" d="M51.1,38.16c1.52.37,3,.78,4.52,1.29.89.3,1.8.63,2.7,1A4.19,4.19,0,0,1,57.8,39a5.62,5.62,0,0,1,0-1.42,5,5,0,0,1,.11-.66,16.69,16.69,0,0,1-3.78-1.06.52.52,0,0,1-.21,0,.39.39,0,0,1-.12.14,24.66,24.66,0,0,1-2.61,1.68Z"/><path class="cls-10" d="M65.2,60c-.67-.61-1.34-1.22-2-1.84l-1.64-1.55-.8-.74c-.15-.13-.29-.27-.44-.39l.14-.09c.4-.28.79-.57,1.18-.87C62.89,56.33,64.1,58.16,65.2,60Z"/><path class="cls-11" d="M62.34,38l1.5.39A2.58,2.58,0,0,1,61,40.29a1.94,1.94,0,0,1-1.47-1.18,5,5,0,0,1-.17-1.85Z"/><path class="cls-12" d="M39.78,16.48a30.51,30.51,0,0,1,6.61,6.57c2.85,3.82,5.09,8.72,4.85,13.58.74-.4,1.46-.82,2.18-1.26a.24.24,0,0,1,.15-.06c-.49-2.59-1-5.18-1.59-7.76a35.44,35.44,0,0,0-2.16-7.64,13.12,13.12,0,0,0-3.55-4.84,14.26,14.26,0,0,0-6.17-2.72,16.89,16.89,0,0,0-8.61.56A21.52,21.52,0,0,1,39.78,16.48Z"/><path class="cls-10" d="M39.4,63c0,2.12-.14,4.26-.28,6.38-.23-.87-.32-1.78-.46-2.65-.11-.66-.21-1.32-.32-2s-.13-1.09-.26-1.63C38.52,63.13,39,63.07,39.4,63Z"/><path class="cls-10" d="M34.52,6.22c.31,1.68.61,3.36.94,5q-.81.08-1.62.21c.1-.49.15-1,.2-1.48l.21-1.85C34.33,7.49,34.43,6.86,34.52,6.22Z"/><path class="cls-10" d="M12,56.26,8.42,61a21.22,21.22,0,0,1,1-2.41c.3-.6.62-1.2.92-1.8A9.8,9.8,0,0,0,11,55.34C11.35,55.66,11.68,56,12,56.26Z"/></g></g></g></svg>