<svg xmlns="http://www.w3.org/2000/svg" viewBox="0 0 74.82 74.82"><defs><style>.cls-1{isolation:isolate;}.cls-2{fill:#fcf2d6;stroke:#f6da8b;stroke-miterlimit:10;stroke-width:0.68px;}.cls-3{fill:#fff;}.cls-4{fill:#b9defe;}.cls-10,.cls-4,.cls-8,.cls-9{mix-blend-mode:multiply;opacity:0.4;}.cls-5,.cls-8{fill:#3b67b1;}.cls-6,.cls-9{fill:#172988;}.cls-10,.cls-7{fill:#8bc8fd;}.cls-11{fill:#f1c954;}</style></defs><g class="cls-1"><g id="Шар_2" data-name="Шар 2"><g id="OBJECTS"><rect class="cls-2" x="0.34" y="0.34" width="74.14" height="74.14" rx="3.36"/><path class="cls-3" d="M63.42,49.62l-1.25-.77-1.3-.77c-.34-.19-.67-.4-1-.57.21-.27.42-.54.62-.82A19.53,19.53,0,0,1,63.42,49.62Z"/><path class="cls-4" d="M63.42,49.62l-1.25-.77-1.3-.77c-.34-.19-.67-.4-1-.57.21-.27.42-.54.62-.82A19.53,19.53,0,0,1,63.42,49.62Z"/><path d="M64.86,50.53c.17.25-.17.57-.41.41-.85-.54-1.71-1.07-2.56-1.62l-1.27-.82a11.09,11.09,0,0,1-1-.7,24.77,24.77,0,0,1-2.58,2.85,29.49,29.49,0,0,1-12.83,7s0,0,0,0a45,45,0,0,1,1.07,8.08c0,.41-.53.43-.66.09-.5-1.33-1-2.66-1.48-4s-.92-2.41-1.26-3.65a41.5,41.5,0,0,1-9.56.73,33.43,33.43,0,0,1-11.1-2.21c-.35.87-.75,1.72-1.08,2.6s-.66,1.87-.95,2.82a.28.28,0,0,1-.54-.07,27.69,27.69,0,0,1,.11-3.41c0-.53.11-1,.2-1.57a7.48,7.48,0,0,1,.26-1.3A23.18,23.18,0,0,1,10,47.14.17.17,0,0,1,10,47a.58.58,0,0,1,.11-.56,37.07,37.07,0,0,1,10.62-8.93,34.42,34.42,0,0,1-1.74-6,32.86,32.86,0,0,1-.55-9.54A15,15,0,0,1,21,14.53a14.06,14.06,0,0,1,5.44-4.4A15.71,15.71,0,0,1,38.87,10a16.09,16.09,0,0,1,8.91,8.52,29.21,29.21,0,0,1,1.76,8.32c.17,1.62.32,3.23.49,4.84a28.28,28.28,0,0,1,13.76,6.4.53.53,0,0,1,.08.61,0,0,0,0,1,0,0,.31.31,0,0,1,0,.24,22.14,22.14,0,0,1-3.09,7.21A20.31,20.31,0,0,1,64.86,50.53Zm-2.69-1.68,1.25.77a19.53,19.53,0,0,0-3-2.93c-.2.28-.41.55-.62.82.36.17.69.38,1,.57Zm.59-10.3a28.34,28.34,0,0,0-12.63-5.87c.12,1.19.24,2.38.37,3.56a.42.42,0,0,1-.32.47s0,0,0,.07a6.72,6.72,0,0,1-2.45,2,17.64,17.64,0,0,1-3.09,1.35,45.11,45.11,0,0,1-7.25,1.68c-4.86.78-10.45,1.09-15-1.05l0,0h0l-.08-.08v0A22.35,22.35,0,0,1,21,38.17a51.91,51.91,0,0,0-9.85,8.56A23.41,23.41,0,0,0,21.6,51.84a40.86,40.86,0,0,0,12.29.52A64.08,64.08,0,0,0,45.81,50.3C52.57,48.4,59.07,44.69,62.76,38.55ZM47,55.7c7.1-2.63,13.2-8.13,15.75-15.32a25.64,25.64,0,0,1-7.19,6.77c-6.9,4.39-15.47,5.89-23.52,6.36-7,.41-14.5-.65-20.23-4.92a33.12,33.12,0,0,0,3.64,3.76,22.68,22.68,0,0,0,6.19,3.5A34.69,34.69,0,0,0,34,57.93,37.6,37.6,0,0,0,47,55.7Zm2.45-19.48c-.33-3.22-.65-6.45-1-9.68A24.27,24.27,0,0,0,46.42,18c-3.79-7.42-13.94-10.57-21.1-6.12a12.26,12.26,0,0,0-4.59,5,18.17,18.17,0,0,0-1.47,7.85,34.59,34.59,0,0,0,1,8.11,48.26,48.26,0,0,0,2.57,7.36A33.08,33.08,0,0,0,30,41.35a37.44,37.44,0,0,0,7.25-.54A45.27,45.27,0,0,0,44,39.28,16.39,16.39,0,0,0,47,38C47.87,37.53,48.6,36.78,49.48,36.22ZM43.73,61.57c.25.64.49,1.29.74,1.94a43.43,43.43,0,0,0-.88-5.69s0,0,0,0q-.65.16-1.29.3C42.84,59.21,43.28,60.4,43.73,61.57Zm-23-5.12-.9-.4L19.63,56c0,.38-.12.78-.17,1.15-.07.55-.13,1.09-.17,1.63s-.07,1-.07,1.52c.13-.4.26-.8.41-1.19A27.21,27.21,0,0,1,20.71,56.45Z"/><path class="cls-5" d="M50.13,32.68a28.34,28.34,0,0,1,12.63,5.87C59.07,44.69,52.57,48.4,45.81,50.3a64.08,64.08,0,0,1-11.92,2.06,40.86,40.86,0,0,1-12.29-.52,23.41,23.41,0,0,1-10.47-5.11A51.91,51.91,0,0,1,21,38.17a22.35,22.35,0,0,0,1.22,2.45v0l.08.08h0l0,0c4.57,2.14,10.16,1.83,15,1.05a45.11,45.11,0,0,0,7.25-1.68,17.64,17.64,0,0,0,3.09-1.35,6.72,6.72,0,0,0,2.45-2s0-.05,0-.07a.42.42,0,0,0,.32-.47C50.37,35.06,50.25,33.87,50.13,32.68Z"/><path class="cls-6" d="M62.78,40.38C60.23,47.57,54.13,53.07,47,55.7A37.6,37.6,0,0,1,34,57.93a34.69,34.69,0,0,1-12.28-2.08,22.68,22.68,0,0,1-6.19-3.5,33.12,33.12,0,0,1-3.64-3.76c5.73,4.27,13.19,5.33,20.23,4.92,8-.47,16.62-2,23.52-6.36A25.64,25.64,0,0,0,62.78,40.38Z"/><path class="cls-7" d="M48.49,26.54c.34,3.23.66,6.46,1,9.68-.88.56-1.61,1.31-2.53,1.81a16.39,16.39,0,0,1-3,1.25,45.27,45.27,0,0,1-6.71,1.53,37.44,37.44,0,0,1-7.25.54,33.08,33.08,0,0,1-7.2-1.16,48.26,48.26,0,0,1-2.57-7.36,34.59,34.59,0,0,1-1-8.11,18.17,18.17,0,0,1,1.47-7.85,12.26,12.26,0,0,1,4.59-5c7.16-4.45,17.31-1.3,21.1,6.12A24.27,24.27,0,0,1,48.49,26.54Z"/><path class="cls-3" d="M44.47,63.51c-.25-.65-.49-1.3-.74-1.94-.45-1.17-.89-2.36-1.43-3.49q.64-.13,1.29-.3s0,0,0,0A43.43,43.43,0,0,1,44.47,63.51Z"/><path class="cls-3" d="M19.81,56.05l.9.4a27.21,27.21,0,0,0-1.08,2.62c-.15.39-.28.79-.41,1.19,0-.5,0-1,.07-1.52s.1-1.08.17-1.63c.05-.37.13-.77.17-1.15Z"/><path class="cls-8" d="M33,42.49c.91-.12,1.82-.27,2.73-.44-4.43.57-9.29.61-13.35-1.29l0,0h0l-.08-.08v0A20.8,20.8,0,0,1,21,38.21l-.06,0-1.5,1.07C22.23,43.22,28.42,43.07,33,42.49Z"/><path class="cls-8" d="M50.13,32.68c.12,1.19.24,2.38.37,3.56a.42.42,0,0,1-.32.47s0,0,0,.07a4.82,4.82,0,0,1-1.47,1.4l1-.41c2.6-1.11,6,2.2,3.35,4.34-.18.15-.37.29-.56.43h0c-11.7,9-27.23,9.43-40.2,2.92q-.58.62-1.14,1.26A23.41,23.41,0,0,0,21.6,51.84a40.86,40.86,0,0,0,12.29.52A64.08,64.08,0,0,0,45.81,50.3c6.76-1.9,13.26-5.61,16.95-11.75A28.34,28.34,0,0,0,50.13,32.68Z"/><path class="cls-9" d="M62.78,40.38C60.23,47.57,54.13,53.07,47,55.7A37.6,37.6,0,0,1,34,57.93a34.69,34.69,0,0,1-12.28-2.08,22.68,22.68,0,0,1-6.19-3.5,33.12,33.12,0,0,1-3.64-3.76c5.73,4.27,13.19,5.33,20.23,4.92,8-.47,16.62-2,23.52-6.36A25.64,25.64,0,0,0,62.78,40.38Z"/><path class="cls-10" d="M48.49,26.54A24.27,24.27,0,0,0,46.42,18a14.57,14.57,0,0,0-5.22-5.65,18.14,18.14,0,0,1,3.91,6C47.41,24,46.68,31,41.82,35.17c-5.18,4.46-13.15,5.46-19.68,3.43.21.53.43,1.06.65,1.59A33.08,33.08,0,0,0,30,41.35a37.44,37.44,0,0,0,7.25-.54A45.27,45.27,0,0,0,44,39.28,16.39,16.39,0,0,0,47,38c.92-.5,1.65-1.25,2.53-1.81C49.15,33,48.83,29.77,48.49,26.54Z"/><path class="cls-4" d="M44.47,63.51c-.25-.65-.49-1.3-.74-1.94-.45-1.17-.89-2.36-1.43-3.49q.64-.13,1.29-.3s0,0,0,0A43.43,43.43,0,0,1,44.47,63.51Z"/><path class="cls-4" d="M19.81,56.05l.9.4a27.21,27.21,0,0,0-1.08,2.62c-.15.39-.28.79-.41,1.19,0-.5,0-1,.07-1.52s.1-1.08.17-1.63c.05-.37.13-.77.17-1.15Z"/><path d="M59.26,37.23A1.54,1.54,0,0,1,58.19,39a2,2,0,0,1-1.91-.51,1.5,1.5,0,0,1-.41-1,1.65,1.65,0,0,1,.46-1.07,1.82,1.82,0,0,1,1-.55l.18,0a.24.24,0,0,1,.11-.06C58.5,35.52,59.16,36.44,59.26,37.23Zm-.75.24a.67.67,0,0,0,0-.2v0l0-.1a.83.83,0,0,0,0-.15h0s0,0,0,0v0a.56.56,0,0,0,0-.08.83.83,0,0,0-.09-.16l0,0-.06-.07-.08-.08,0,0-.14-.09s0,0,0,0h-.06l-.09,0h0l-.11,0-.21.06-.07,0-.1.07-.1.06-.06,0-.18.16,0,0a.35.35,0,0,0-.05.08l-.06.1s0,0,0,0h0v0a1.31,1.31,0,0,0-.05.15v.19a.28.28,0,0,0,0,.08l0,.09s0,0,0,0l.08.15,0,0,.06.06.06.06s0,0,0,0a.71.71,0,0,0,.14.1l.09,0h0l.18.06.09,0h0l.2,0h.1a1.18,1.18,0,0,1,.2,0l.07,0h0l.13-.08h0l0,0,.07-.08,0,0s0,0,0,0l0-.08v0h0a1.33,1.33,0,0,0,0-.19h0A.34.34,0,0,0,58.51,37.47Z"/><path class="cls-11" d="M58.5,37.27a.67.67,0,0,1,0,.2.34.34,0,0,1,0,.1h0a1.33,1.33,0,0,1,0,.19h0v0l0,.08s0,0,0,0l0,0-.07.08,0,0h0a0,0,0,0,0,0,0l-.13.08h0l-.07,0a1.18,1.18,0,0,0-.2,0h-.1l-.2,0h0l-.09,0-.18-.06h0l-.09,0A.71.71,0,0,1,57,38s0,0,0,0l-.06-.06-.06-.06,0,0-.08-.15s0,0,0,0l0-.09a.28.28,0,0,1,0-.08V37.3a1.31,1.31,0,0,1,.05-.15h0v0h0s0,0,0,0l.06-.1a.35.35,0,0,1,.05-.08l0,0,.18-.16.06,0,.1-.06.1-.07.07,0,.21-.06.11,0h0l.09,0h.06s0,0,0,0l.14.09,0,0,.08.08.06.07,0,0a.83.83,0,0,1,.09.16.56.56,0,0,1,0,.08v0s0,0,0,0h0a.83.83,0,0,1,0,.15l0,.1Z"/><path d="M58.22,38.08h0a0,0,0,0,1,0,0Z"/><path d="M52.87,43v0l.07-.06,0,0h0s0,0,0,0a.22.22,0,0,0,0-.08h0v0a.59.59,0,0,0,.05-.19h0a.28.28,0,0,0,0-.09.74.74,0,0,0,0-.21v0a.24.24,0,0,1,0-.08,1.31,1.31,0,0,0,0-.15l0-.08a.63.63,0,0,0,0-.09,1,1,0,0,0-.1-.15s0,0,0,0l-.06-.07-.09-.08,0,0-.14-.09s0,0,0,0l-.06,0h-.12l-.11,0a1.52,1.52,0,0,0-.2.06l-.07,0-.1.05-.1.07-.06,0-.18.16,0,.06,0,.07a.31.31,0,0,0-.05.1.05.05,0,0,1,0,0h0v0a.88.88,0,0,1,0,.15v.2a.23.23,0,0,0,0,.07l0,.11v0s.05.09.08.14l0,0h0l.06.06.07.07h0l.15.1.08,0h0l.18.06.09,0h.33a.9.9,0,0,1,.19,0l.07,0v0l.14-.07h0Zm1-.85a1.54,1.54,0,0,1-1.07,1.72,1.93,1.93,0,0,1-1.92-.5,1.52,1.52,0,0,1-.4-1A1.73,1.73,0,0,1,51,41.22a1.76,1.76,0,0,1,1-.55l.18,0a.17.17,0,0,1,.12-.06C53.13,40.42,53.78,41.33,53.89,42.11Z"/><path class="cls-11" d="M53.13,42.16a.74.74,0,0,1,0,.21.28.28,0,0,1,0,.09h0a.59.59,0,0,1-.05.19v0h0a.22.22,0,0,1,0,.08s0,0,0,0h0l0,0-.07.06v0h0l-.14.07v0l-.07,0a.9.9,0,0,0-.19,0H52.1l-.09,0L51.83,43h0l-.08,0-.15-.1h0l-.07-.07-.06-.06h0l0,0s0-.1-.08-.14v0l0-.11a.23.23,0,0,1,0-.07v-.2a.88.88,0,0,0,0-.15v0h0a.05.05,0,0,0,0,0,.31.31,0,0,1,.05-.1l0-.07,0-.06.18-.16.06,0,.1-.07.1-.05.07,0a1.52,1.52,0,0,1,.2-.06l.11,0h.12l.06,0s0,0,0,0l.14.09,0,0,.09.08.06.07s0,0,0,0a1,1,0,0,1,.1.15.63.63,0,0,1,0,.09l0,.08a1.31,1.31,0,0,1,0,.15.24.24,0,0,0,0,.08Z"/><path d="M52.85,43h0Z"/><path d="M42.3,46.53a.28.28,0,0,0,0,.08l0,.1v0a.5.5,0,0,0,.08.14,0,0,0,0,0,0,0l.06.07.06.06h0l.15.1.09,0h0l.19.06.08,0h0l.2,0h.11a1.29,1.29,0,0,1,.19,0s0,0,.07,0h0l.12-.07,0,0h0A.46.46,0,0,1,44,47L44,47l0,0,.05-.08h0v0c0-.06,0-.12,0-.19h0v-.09a1.47,1.47,0,0,0,0-.21,0,0,0,0,0,0,0s0-.06,0-.09a1.52,1.52,0,0,0-.06-.2l0,0a.59.59,0,0,0,0-.08.56.56,0,0,0-.1-.15l0,0-.06-.06-.08-.09,0,0-.13-.09h-.08l-.1,0h0l-.11,0-.21.06-.07,0-.1,0-.09.07-.06,0a1.45,1.45,0,0,0-.18.16l-.05.06,0,.07a.47.47,0,0,0,0,.1.41.41,0,0,0,0,.08.88.88,0,0,0-.05.15.1.1,0,0,1,0,0v.09A.13.13,0,0,0,42.3,46.53Zm2.61-.26A1.56,1.56,0,0,1,43.83,48a1.92,1.92,0,0,1-1.91-.51,1.47,1.47,0,0,1-.4-1A1.68,1.68,0,0,1,42,45.37a1.79,1.79,0,0,1,1-.55h.17s.07-.07.12-.07C44.14,44.56,44.81,45.48,44.91,46.27Z"/><path class="cls-11" d="M44.15,46.61h0c0,.07,0,.13,0,.19v0h0l-.05.08,0,0L44,47a.46.46,0,0,0-.07.07h0l0,0-.12.07h0s0,0-.07,0a1.29,1.29,0,0,0-.19,0h-.11l-.2,0h0l-.08,0-.19-.06h0l-.09,0-.15-.1h0L42.51,47l-.06-.07a0,0,0,0,1,0,0,.5.5,0,0,1-.08-.14v0l0-.1a.28.28,0,0,1,0-.08.13.13,0,0,1,0-.06v-.09a.1.1,0,0,0,0,0,.88.88,0,0,1,.05-.15.41.41,0,0,1,0-.08.47.47,0,0,1,0-.1l0-.07.05-.06a1.45,1.45,0,0,1,.18-.16l.06,0,.09-.07.1,0,.07,0,.21-.06.11,0h0l.1,0h.08l.13.09,0,0,.08.09.06.06,0,0a.56.56,0,0,1,.1.15A.59.59,0,0,1,44,46l0,0a1.52,1.52,0,0,1,.06.2s0,.06,0,.09a0,0,0,0,1,0,0,1.47,1.47,0,0,1,0,.21Z"/><path d="M32.21,48s0,.1,0,.15a.06.06,0,0,0,0,0v.15h0a.24.24,0,0,0,0,.08.29.29,0,0,0,0,.09s0,0,0,0l.08.15,0,0,.06.07.07,0,0,0a.56.56,0,0,0,.15.1l.08,0h0a1.39,1.39,0,0,1,.19.06l.08,0h0l.19,0h.11a.53.53,0,0,1,.19,0l.07,0h0l.13-.07h0v0h0l.08-.08,0,0,0-.08,0-.08h0v0a.59.59,0,0,0,0-.19h0v-.09a.7.7,0,0,0,0-.21v0a.36.36,0,0,1,0-.1s0-.09-.05-.15,0,0,0,0v0a.22.22,0,0,0,0-.08.54.54,0,0,0-.09-.15l0,0-.06-.07-.08-.08,0,0a.67.67,0,0,0-.14-.09l0,0h-.06l-.09,0h0l-.11,0a.73.73,0,0,0-.21.06l-.07,0-.1.05-.1.06-.06,0a1.29,1.29,0,0,0-.17.16l0,.06-.05.07a.47.47,0,0,0,0,.1Zm2.56.09a1.55,1.55,0,0,1-1.07,1.72,1.91,1.91,0,0,1-1.91-.51,1.5,1.5,0,0,1-.41-1,1.71,1.71,0,0,1,.46-1.07,1.82,1.82,0,0,1,1-.55l.18,0a.17.17,0,0,1,.12-.06C34,46.41,34.67,47.33,34.77,48.12Z"/><path class="cls-11" d="M34,48.46h0a.59.59,0,0,1,0,.19v0h0l0,.08,0,.08,0,0-.08.08h0v0h0l-.13.07h0l-.07,0a.53.53,0,0,0-.19,0H33.2l-.19,0h0l-.08,0a1.39,1.39,0,0,0-.19-.06h0l-.08,0a.56.56,0,0,1-.15-.1l0,0-.07,0-.06-.07,0,0-.08-.15s0,0,0,0a.29.29,0,0,1,0-.09.24.24,0,0,1,0-.08h0v-.15a.06.06,0,0,1,0,0s0-.1,0-.15l0-.07a.47.47,0,0,1,0-.1l.05-.07,0-.06a1.29,1.29,0,0,1,.17-.16l.06,0,.1-.06.1-.05.07,0a.73.73,0,0,1,.21-.06l.11,0h0l.09,0h.06l0,0a.67.67,0,0,1,.14.09l0,0,.08.08.06.07,0,0a.54.54,0,0,1,.09.15.22.22,0,0,1,0,.08v0l0,0c0,.06,0,.1.05.15a.36.36,0,0,0,0,.1v0a.7.7,0,0,1,0,.21Z"/><path d="M33.75,49v0Z"/><path d="M22.59,48.2a.34.34,0,0,0,0,.09l0,.09v0l.09.14,0,0h0l.06.06.07.06h0l.15.11.09,0h0l.18.06.09,0h.32s.16,0,.19-.05l.07,0h0l.14-.07h0l0,0h0a.27.27,0,0,0,.08-.07l0,0v0h0s0,0,0,0a.56.56,0,0,1,.05-.08s0,0,0,0h0a.77.77,0,0,0,.05-.19h0s0-.07,0-.1,0-.13,0-.2v0a.29.29,0,0,1,0-.09.88.88,0,0,1-.05-.15l0-.07a.36.36,0,0,0,0-.09l-.1-.15,0,0-.06-.07a.34.34,0,0,0-.09-.08l0,0-.14-.09h-.08l-.09,0h0l-.11,0-.2.07-.08,0-.09.06-.1.06-.06,0-.18.16,0,0a.35.35,0,0,0-.05.08l-.06.09a.08.08,0,0,1,0,0h0s0,0,0,0l-.05.16v.19Zm2.61-.26a1.55,1.55,0,0,1-1.07,1.72,2,2,0,0,1-1.92-.5,1.51,1.51,0,0,1-.4-1,1.76,1.76,0,0,1,1.44-1.62.5.5,0,0,1,.17,0,.25.25,0,0,1,.12-.07C24.43,46.24,25.09,47.16,25.2,47.94Z"/><path class="cls-11" d="M24.44,48c0,.07,0,.13,0,.2s0,.06,0,.1h0a.77.77,0,0,1-.05.19h0s0,0,0,0a.56.56,0,0,0-.05.08s0,0,0,0h0v0l0,0a.27.27,0,0,1-.08.07h0l0,0h0l-.14.07h0l-.07,0s-.16,0-.19.05h-.32l-.09,0-.18-.06h0l-.09,0-.15-.11h0l-.07-.06-.06-.06h0l0,0-.09-.14v0l0-.09a.34.34,0,0,1,0-.09V48l.05-.16s0,0,0,0h0a.08.08,0,0,0,0,0l.06-.09a.35.35,0,0,1,.05-.08l0,0L23,47.4l.06,0,.1-.06.09-.06.08,0,.2-.07.11,0h0l.09,0h.08l.14.09,0,0a.34.34,0,0,1,.09.08l.06.07,0,0,.1.15a.36.36,0,0,1,0,.09l0,.07a.88.88,0,0,0,.05.15.29.29,0,0,0,0,.09Z"/><path d="M24.16,48.8h0Z"/><path d="M14.65,45l0,.08a.54.54,0,0,0,0,.1v0l.08.14,0,0h0l.07.07.06.06h0l.15.1a.25.25,0,0,0,.09,0h0c.06,0,.11.05.18.06l.09,0h.32a.9.9,0,0,1,.19,0l.07,0h0a.44.44,0,0,0,.15-.08h0l.08-.06,0-.06s0,0,0,0a.2.2,0,0,0,0-.08h0v0a1.06,1.06,0,0,0,0-.19h0V45a.74.74,0,0,0,0-.21v0s0-.07,0-.09l-.05-.16h0v0l0,0a.41.41,0,0,0,0-.09l-.09-.14,0,0a.46.46,0,0,0-.07-.07l-.08-.08s0,0,0,0l-.13-.09h-.09a.13.13,0,0,1-.09,0h0l-.11,0a.73.73,0,0,0-.21.06l-.07,0-.1,0-.1.06s0,0-.06,0l-.17.17-.05.06-.05.07,0,.1a.49.49,0,0,0,0,.07s0,.1-.05.15a.06.06,0,0,0,0,0V45Zm2.61-.26a1.53,1.53,0,0,1-1.07,1.71,1.91,1.91,0,0,1-1.91-.5,1.48,1.48,0,0,1-.41-1,1.69,1.69,0,0,1,.47-1.07,1.76,1.76,0,0,1,1-.55l.18,0a.17.17,0,0,1,.12-.06C16.5,43.07,17.16,44,17.26,44.77Z"/><path class="cls-11" d="M16.51,45.11h0a1.06,1.06,0,0,1,0,.19v0h0a.2.2,0,0,1,0,.08s0,0,0,0l0,.06-.08.06h0a.44.44,0,0,1-.15.08h0l-.07,0a.9.9,0,0,0-.19,0h-.32l-.09,0c-.07,0-.12,0-.18-.06h0a.25.25,0,0,1-.09,0l-.15-.1h0l-.06-.06-.07-.07h0l0,0-.08-.14v0a.54.54,0,0,1,0-.1l0-.08v-.16a.06.06,0,0,1,0,0s0-.1.05-.15a.49.49,0,0,1,0-.07l0-.1.05-.07.05-.06.17-.17s0,0,.06,0l.1-.06.1,0,.07,0A.73.73,0,0,1,15.6,44l.11,0h0a.13.13,0,0,0,.09,0h.09L16,44s0,0,0,0l.08.08a.46.46,0,0,1,.07.07l0,0,.09.14a.41.41,0,0,1,0,.09l0,0v0h0l.05.16s0,.06,0,.09v0a.74.74,0,0,1,0,.21Z"/></g></g></g></svg>